<svg xmlns="http://www.w3.org/2000/svg" width="207" height="62" fill="none"><g clip-path="url(#a)"><path d="M100.644 18.884v23.323h3.982V18.884h-3.982Zm47.278 23.323V18.884h3.981v23.323h-3.981ZM84.315 19.253l-8.18 22.954h4.416l1.711-4.96h9.487l1.71 4.96h4.417l-8.211-22.954h-5.35Zm6.22 14.389h-7.06l3.546-10.198 3.515 10.198Zm26.283 8.935c-1.7 0-3.229-.385-4.587-1.156a8.472 8.472 0 0 1-3.204-3.158c-.778-1.335-1.167-2.844-1.167-4.529 0-1.684.389-3.189 1.167-4.514a8.543 8.543 0 0 1 3.188-3.142c1.348-.77 2.882-1.155 4.603-1.155a8.96 8.96 0 0 1 3.375.631 8.08 8.08 0 0 1 2.706 1.756 6.93 6.93 0 0 1 1.664 2.573l-3.421 1.664a4.471 4.471 0 0 0-1.664-2.172c-.778-.545-1.675-.817-2.691-.817-.912 0-1.731.22-2.457.663a4.657 4.657 0 0 0-1.711 1.833c-.414.78-.622 1.684-.622 2.711 0 1.007.208 1.9.622 2.68a4.77 4.77 0 0 0 1.711 1.85c.726.451 1.555.677 2.488.677 1.037 0 1.934-.277 2.691-.832a4.623 4.623 0 0 0 1.633-2.188l3.421 1.726a6.4 6.4 0 0 1-1.633 2.51 8.545 8.545 0 0 1-2.706 1.742c-1.047.431-2.182.647-3.406.647Zm14.215-1.14c1.368.76 2.892 1.14 4.572 1.14 1.679 0 3.204-.38 4.572-1.14a8.798 8.798 0 0 0 3.282-3.143c.819-1.335 1.228-2.855 1.228-4.56 0-1.684-.404-3.194-1.213-4.529a8.65 8.65 0 0 0-3.281-3.142c-1.379-.76-2.909-1.14-4.588-1.14-1.68 0-3.204.38-4.572 1.14a8.674 8.674 0 0 0-3.266 3.142c-.809 1.335-1.213 2.845-1.213 4.53 0 1.704.404 3.224 1.213 4.56a8.674 8.674 0 0 0 3.266 3.142Zm63.264-.046c1.328.79 2.872 1.186 4.635 1.186 1.762 0 3.307-.39 4.634-1.171 1.327-.78 2.25-1.777 2.769-2.989l-3.235-1.571a4.344 4.344 0 0 1-1.618 1.648c-.705.421-1.544.632-2.519.632-1.286 0-2.369-.385-3.25-1.155-.881-.77-1.384-1.803-1.509-3.097h12.597a3.29 3.29 0 0 0 .171-.8c.031-.309.047-.607.047-.894 0-1.5-.363-2.876-1.089-4.129a8.288 8.288 0 0 0-2.971-3.004c-1.254-.75-2.69-1.125-4.307-1.125-1.617 0-3.074.386-4.37 1.156a8.49 8.49 0 0 0-3.079 3.143c-.757 1.324-1.136 2.829-1.136 4.513 0 1.643.374 3.133 1.12 4.468a8.465 8.465 0 0 0 3.11 3.189Zm-32.969.785-2.8 6.87h4.106l9.642-23.754h-4.323l-4.573 11.8-4.541-11.8h-4.323l6.812 16.884Zm12.379.031v-3.204l9.051-10.198h-8.678v-3.513h13.903v3.204l-8.895 10.199h8.927v3.512h-14.308Zm22.115-13.079c.787-.647 1.731-.97 2.83-.97 1.078 0 2.011.349 2.799 1.047.788.699 1.224 1.592 1.307 2.68h-8.461c.229-1.19.737-2.11 1.525-2.757Zm-57.667 9.166c-.746.452-1.596.678-2.55.678-.954 0-1.799-.226-2.535-.678a4.846 4.846 0 0 1-1.742-1.848c-.425-.781-.637-1.674-.637-2.681 0-1.006.212-1.9.637-2.68a4.846 4.846 0 0 1 1.742-1.85c.736-.45 1.581-.677 2.535-.677.954 0 1.804.226 2.55.678a4.804 4.804 0 0 1 1.758 1.848c.425.781.637 1.675.637 2.681 0 1.007-.212 1.9-.637 2.68a4.804 4.804 0 0 1-1.758 1.85Z" fill="#1E2749"/><mask id="b" style="mask-type:luminance" maskUnits="userSpaceOnUse" x="0" y="0" width="58" height="61"><path d="M.373 0h57.51v60.477H.374V0Z" fill="#fff"/></mask><g mask="url(#b)"><path fill-rule="evenodd" clip-rule="evenodd" d="M19.09 57.416c2.89 2.068 4.524 3.061 10.038 3.061 5.515 0 7.148-.993 10.04-3.06 1.078-.773 2.3-1.647 4.116-2.694 1.817-1.048 3.187-1.667 4.394-2.214 3.238-1.465 4.918-2.381 7.675-7.15 2.758-4.77 2.713-6.68 2.364-10.212-.13-1.32-.277-2.814-.277-4.908 0-2.05.125-3.558.224-4.77.295-3.572.316-5.218-2.2-10.145C52.971 10.438 50.99 9.52 47.705 8c-1.242-.575-2.65-1.226-4.421-2.247-1.816-1.047-3.038-1.92-4.116-2.693C36.276.994 34.643 0 29.128 0c-5.514 0-7.147.994-10.039 3.061-1.078.772-2.3 1.646-4.116 2.693-1.816 1.047-3.187 1.668-4.394 2.214C7.34 9.434 5.66 10.35 2.903 15.12.146 19.888.19 21.8.54 25.332c.13 1.319.276 2.813.276 4.907S.67 33.827.54 35.147c-.35 3.531-.394 5.442 2.363 10.212 2.758 4.769 4.438 5.685 7.676 7.15 1.207.547 2.578 1.166 4.394 2.214 1.816 1.047 3.038 1.921 4.116 2.693Zm1.702-51.98c2.487-1.78 3.516-2.516 8.336-2.516s5.85.737 8.337 2.516c1.076.77 2.417 1.729 4.357 2.848 1.884 1.086 3.42 1.797 4.654 2.366 3.075 1.423 4.348 2.013 6.383 5.999 2.236 4.384 2.143 5.527 1.892 8.574v.006c-.105 1.264-.235 2.84-.235 5.01 0 2.238.162 3.876.29 5.193.3 3.04.424 4.298-1.985 8.466-2.41 4.169-3.564 4.69-6.349 5.95-1.207.547-2.71 1.227-4.65 2.347-1.94 1.117-3.28 2.077-4.357 2.848-2.489 1.778-3.516 2.514-8.337 2.514-4.82 0-5.849-.736-8.336-2.514-1.077-.77-2.417-1.73-4.357-2.848-1.94-1.12-3.443-1.8-4.65-2.346-2.787-1.26-3.938-1.782-6.349-5.951-2.41-4.168-2.285-5.427-1.986-8.466.13-1.317.291-2.955.291-5.193 0-2.237-.162-3.876-.29-5.194-.3-3.039-.424-4.298 1.985-8.465 2.41-4.17 3.564-4.69 6.35-5.951 1.206-.547 2.71-1.227 4.649-2.345 1.94-1.119 3.28-2.079 4.357-2.848Z" fill="#1E2749"/></g><path d="M14.316 26.023v19.581h2.173c1.168 0 2.117-.89 2.117-1.985V24.356h-2.511c-.981 0-1.78.748-1.78 1.667Zm6.435-8.462v24.856h2.173c1.168 0 2.117-.91 2.117-2.03v-24.53H22.53c-.981 0-1.779.764-1.779 1.704Zm6.435-6.412V30.73h2.173c1.168 0 2.118-.89 2.118-1.985V9.482h-2.512c-.98 0-1.779.748-1.779 1.667Zm6.436 6.412v24.856h2.172c1.168 0 2.118-.91 2.118-2.03v-24.53H35.4c-.98 0-1.778.764-1.778 1.704Zm6.435 8.462v19.581h2.172c1.168 0 2.118-.89 2.118-1.985V24.356h-2.512c-.982 0-1.778.748-1.778 1.667Z" fill="#1E2749"/></g><defs><clipPath id="a"><path fill="#fff" d="M0 0h207v61.62H0z"/></clipPath></defs></svg>