<svg version="1.1" id="Alcolyze" xmlns="http://www.w3.org/2000/svg" x="0" y="0" width="46" height="48" viewBox="0 0 57.5 60.5" style="enable-background:new 0 0 57.5 60.5" xml:space="preserve"><style>.st0{fill:#354054}</style><path class="st0" d="M57.3 35.1c-.1-1.3-.3-2.8-.3-4.9 0-2.1.1-3.6.2-4.8.3-3.6.3-5.2-2.2-10.1-2.5-4.9-4.5-5.8-7.8-7.3-1.2-.6-2.7-1.2-4.4-2.2-1.8-1-3-1.9-4.1-2.7C35.9 1 34.3 0 28.8 0s-7.1 1-10 3.1c-1.1.8-2.3 1.6-4.1 2.7-1.8 1-3.2 1.7-4.4 2.2-3.3 1.4-5 2.3-7.8 7.1S-.2 21.8.1 25.3c.1 1.3.3 2.8.3 4.9 0 2.1-.1 3.6-.3 4.9-.3 3.5-.4 5.4 2.4 10.2 2.8 4.8 4.4 5.7 7.7 7.2 1.2.5 2.6 1.2 4.4 2.2 1.8 1 3 1.9 4.1 2.7 2.9 2.1 4.5 3.1 10 3.1s7.1-1 10-3.1c1.1-.8 2.3-1.6 4.1-2.7 1.8-1 3.2-1.7 4.4-2.2 3.2-1.5 4.9-2.4 7.7-7.2 2.8-4.7 2.8-6.6 2.4-10.2zm-4.9 8.8c-2.4 4.2-3.6 4.7-6.3 6-1.2.5-2.7 1.2-4.6 2.3-1.9 1.1-3.3 2.1-4.4 2.8-2.5 1.8-3.5 2.5-8.3 2.5-4.8 0-5.8-.7-8.3-2.5-1.1-.8-2.4-1.7-4.4-2.8-1.9-1.1-3.4-1.8-4.7-2.3-2.8-1.3-3.9-1.8-6.3-6s-2.3-5.4-2-8.5c.1-1.3.3-3 .3-5.2s-.2-3.8-.3-5.2c-.3-3-.4-4.3 2-8.5s3.6-4.7 6.4-6c1.2-.5 2.7-1.2 4.6-2.3 1.9-1.1 3.3-2.1 4.4-2.8C23 3.6 24 2.9 28.8 2.9c4.8 0 5.8.7 8.3 2.5 1.1.8 2.4 1.7 4.4 2.8 1.9 1.1 3.4 1.8 4.7 2.4 3.1 1.4 4.3 2 6.4 6 2.2 4.4 2.1 5.5 1.9 8.6-.1 1.3-.2 2.8-.2 5s.2 3.9.3 5.2c.1 3.1.3 4.3-2.2 8.5z"/><path class="st0" d="M13.9 26v19.6h2.2c1.2 0 2.1-.9 2.1-2V24.4h-2.5c-1 0-1.8.7-1.8 1.6zm6.5-8.4v24.9h2.2c1.2 0 2.1-.9 2.1-2V15.9h-2.5c-1 0-1.8.7-1.8 1.7zm6.4-6.5v19.6H29c1.2 0 2.1-.9 2.1-2V9.5h-2.5c-1 0-1.8.7-1.8 1.6zm6.4 6.5v24.9h2.2c1.2 0 2.1-.9 2.1-2V15.9H35c-1 0-1.8.7-1.8 1.7zm6.5 8.4v19.6h2.2c1.2 0 2.1-.9 2.1-2V24.4h-2.5c-1 0-1.8.7-1.8 1.6z"/></svg>