<svg width="45" height="46" fill="none" xmlns="http://www.w3.org/2000/svg" transform="rotate(180)"><path d="m19.424 12.842 10.547 9.844a.69.69 0 0 1 0 .966l-10.547 9.844a.69.69 0 0 1-.967 0c-.176-.176-.176-.352-.176-.527 0-.176 0-.352.176-.44l10.02-9.316-10.02-9.404a.69.69 0 0 1 0-.967.69.69 0 0 1 .967 0ZM22.5.625c12.393 0 22.5 10.107 22.5 22.5 0 12.48-10.107 22.5-22.5 22.5-12.48 0-22.5-10.02-22.5-22.5C0 10.732 10.02.625 22.5.625Zm0 43.594c11.602 0 21.094-9.404 21.094-21.094 0-11.602-9.492-21.094-21.094-21.094-11.69 0-21.094 9.492-21.094 21.094A21.043 21.043 0 0 0 22.5 44.219Z" fill="#747E7F"/></svg>