<svg width="45" height="46" fill="none" xmlns="http://www.w3.org/2000/svg"><path d="M29.268 16.357c.263.264.263.704 0 .88l-5.801 5.888 5.8 5.889a.69.69 0 0 1 0 .966.69.69 0 0 1-.966 0l-5.801-5.8-5.889 5.713a.69.69 0 0 1-.966 0 .69.69 0 0 1 0-.967l5.8-5.801-5.8-5.8a.69.69 0 0 1 0-.968.69.69 0 0 1 .966 0l5.889 5.801 5.8-5.8a.69.69 0 0 1 .968 0ZM22.5.625c12.393 0 22.5 10.107 22.5 22.5 0 12.48-10.107 22.5-22.5 22.5-12.48 0-22.5-10.02-22.5-22.5C0 10.732 10.02.625 22.5.625Zm0 43.594c11.602 0 21.094-9.404 21.094-21.094 0-11.602-9.492-21.094-21.094-21.094-11.69 0-21.094 9.492-21.094 21.094A21.043 21.043 0 0 0 22.5 44.219Z" fill="#E8FCFF"/></svg>