<svg width="87" height="46" fill="none" xmlns="http://www.w3.org/2000/svg"><g fill="#344054"><path d="M19.312 45.294v-4.02l-.08.034a7.437 7.437 0 0 1-2.897.735 4.263 4.263 0 0 1-2.918-.86 3.733 3.733 0 0 1-1.27-1.803 4.337 4.337 0 0 1-.085-2.412 3.698 3.698 0 0 1 1.293-2.062 3.877 3.877 0 0 1 2.032-.877 6.697 6.697 0 0 1 3.838.72l.087.045V30.75l-.184-.05c-1.18-.378-2.42-.54-3.659-.478a8.466 8.466 0 0 0-3.267.747 7.467 7.467 0 0 0-2.676 2.068 8.05 8.05 0 0 0-.146 9.79 7.673 7.673 0 0 0 4.254 2.735 9.977 9.977 0 0 0 5.383-.188l.295-.081Zm39.788 0v-4.02l-.08.034a7.437 7.437 0 0 1-2.897.735 4.263 4.263 0 0 1-2.918-.86 3.733 3.733 0 0 1-1.27-1.803 4.337 4.337 0 0 1-.085-2.412 3.698 3.698 0 0 1 1.293-2.062 3.877 3.877 0 0 1 2.032-.877 6.697 6.697 0 0 1 3.837.72l.087.045V30.75l-.183-.05c-1.18-.378-2.42-.54-3.659-.478a8.466 8.466 0 0 0-3.267.747 7.467 7.467 0 0 0-2.676 2.068 8.049 8.049 0 0 0-.146 9.79 7.673 7.673 0 0 0 4.253 2.735 9.977 9.977 0 0 0 5.383-.188l.295-.081Z"/><path fill-rule="evenodd" clip-rule="evenodd" d="m33.51 41.956-.016 3.463.254.044c.794.148 1.597.251 2.403.309.706.065 1.415.08 2.123.041a8.846 8.846 0 0 0 1.994-.376 5.515 5.515 0 0 0 2.068-1.102 4.17 4.17 0 0 0 1.204-1.727 4.751 4.751 0 0 0-.024-3.475 3.9 3.9 0 0 0-1.08-1.497 4.477 4.477 0 0 0-1.583-.922l-2.612-.97a1.4 1.4 0 0 1-.713-.678.89.89 0 0 1 .029-.793.996.996 0 0 1 .174-.234 1.42 1.42 0 0 1 .386-.279 2.78 2.78 0 0 1 .93-.27 5.433 5.433 0 0 1 1.666.017c.651.07 1.297.186 1.93.346l.136.03v-3.195l-.25-.054a16.984 16.984 0 0 0-1.964-.35 10.083 10.083 0 0 0-2.582-.01 5.581 5.581 0 0 0-2.973 1.195 3.945 3.945 0 0 0-1.27 1.751 4.81 4.81 0 0 0-.003 3.255c.195.523.506.995.913 1.378.351.34.75.627 1.182.856a8.131 8.131 0 0 0 1.796.706c.207.062.412.127.616.195l.31.114.088.036c.305.109.583.281.818.505.162.152.288.34.366.548.048.19.049.39.002.582a1.235 1.235 0 0 1-.598.717 2.966 2.966 0 0 1-.996.31 7.235 7.235 0 0 1-1.543.079c-.676-.051-1.35-.14-2.015-.269a19.823 19.823 0 0 1-1.038-.243l-.128-.033Zm-8.958 3.603h3.802v-15.08h-3.802v15.08Zm44.015-10.627a3.966 3.966 0 1 1 4.949 6.198 3.966 3.966 0 0 1-4.95-6.198Zm-5.52 3.094a7.933 7.933 0 0 0 9.647 7.624 7.74 7.74 0 0 0 2.538-14.25 7.985 7.985 0 0 0-12.186 6.626"/><path d="M0 18.36a1.887 1.887 0 0 0 3.76 0v-4.18a1.88 1.88 0 0 0-3.76 0v4.18Zm10.41 0a1.888 1.888 0 0 0 3.162 1.242c.35-.324.563-.767.598-1.242V8.99a1.882 1.882 0 0 0-3.76 0v9.371m10.353 3.773a1.885 1.885 0 0 0 3.76 0V1.867a1.882 1.882 0 0 0-3.76 0v20.267Zm10.444-3.774a1.888 1.888 0 0 0 1.88 1.746 1.886 1.886 0 0 0 1.88-1.746V8.99a1.882 1.882 0 0 0-3.76 0v9.371m10.389-.001a1.888 1.888 0 0 0 3.163 1.242c.348-.324.562-.767.598-1.242v-4.18a1.88 1.88 0 0 0-3.761 0v4.18Zm10.409 0a1.888 1.888 0 0 0 3.163 1.242c.349-.324.562-.767.598-1.242V8.99a1.882 1.882 0 0 0-3.761 0v9.371m10.355 3.773a1.885 1.885 0 0 0 3.76 0V1.867a1.883 1.883 0 0 0-3.76 0v20.267Zm10.443-3.774a1.888 1.888 0 0 0 1.88 1.746 1.886 1.886 0 0 0 1.88-1.746V8.99a1.882 1.882 0 0 0-3.76 0v9.371m10.288-.001a1.888 1.888 0 0 0 3.163 1.242c.349-.324.563-.767.598-1.242v-4.18a1.88 1.88 0 0 0-3.76 0v4.18Z"/></g></svg>