<svg xmlns="http://www.w3.org/2000/svg" width="168" height="70" viewBox="0 0 168 70" fill="none">
  <path d="M145.143 30.5661C142.301 31.22 134.82 31.5965 134.82 31.5965L133.872 34.5685C133.872 34.5685 137.603 34.2515 140.327 34.5289C140.327 34.5289 141.215 34.4298 141.314 35.5394C141.353 36.5697 141.235 37.6793 141.235 37.6793C141.235 37.6793 141.176 38.353 140.228 38.5115C139.202 38.6898 132.175 38.9474 132.175 38.9474L131.03 42.8111C131.03 42.8111 130.616 43.7028 131.563 43.4452C132.451 43.2074 139.814 41.8204 140.781 42.0186C141.807 42.2762 142.952 43.6433 142.617 44.9114C142.222 46.4569 134.879 51.1726 130.399 50.8358C130.399 50.8358 128.05 50.9943 126.056 47.8043C124.201 44.7727 126.767 39.0069 126.767 39.0069C126.767 39.0069 125.602 36.3122 126.451 35.4205C126.451 35.4205 126.964 34.9648 128.425 34.8459L130.221 31.1011C130.221 31.1011 128.168 31.2398 126.944 29.7339C125.8 28.2875 125.721 27.6337 126.589 27.2374C127.517 26.7817 136.063 25.2164 141.945 25.4145C141.945 25.4145 143.998 25.2164 145.755 28.7829C145.735 28.7829 146.604 30.2293 145.143 30.5661ZM123.016 44.951C122.266 46.7343 120.273 48.6364 117.805 47.4476C115.358 46.2588 111.469 38.2737 111.469 38.2737C111.469 38.2737 109.989 35.3017 109.713 35.3611C109.713 35.3611 109.397 34.7865 109.2 38.036C109.002 41.2855 109.239 47.6061 107.956 48.5968C106.732 49.5875 105.252 49.1912 104.482 48.0222C103.791 46.873 103.495 44.1387 103.87 39.3437C104.324 34.5487 105.43 29.4367 106.851 27.8318C108.272 26.2467 109.417 27.3959 109.851 27.812C109.851 27.812 111.746 29.5358 114.884 34.6082L115.437 35.5394C115.437 35.5394 118.279 40.3344 118.575 40.3146C118.575 40.3146 118.812 40.5325 119.01 40.374C119.306 40.2948 119.187 38.7493 119.187 38.7493C119.187 38.7493 118.595 33.5382 116.009 24.7012C116.009 24.7012 115.615 23.5916 115.891 22.5613C116.147 21.5112 117.194 22.0065 117.194 22.0065C117.194 22.0065 121.22 24.0275 123.155 30.6058C125.069 37.2434 123.766 43.1678 123.016 44.951ZM103.239 28.0498C102.903 28.7234 102.706 29.6943 101.008 29.9519C101.008 29.9519 84.7635 31.0615 83.9937 32.2107C83.9937 32.2107 83.4212 32.8844 84.3095 33.0825C85.1977 33.2608 88.869 33.7562 90.6455 33.8552C92.5404 33.8751 98.9356 33.9345 101.225 36.8075C101.225 36.8075 102.587 38.1747 102.528 41.2657C102.469 44.4359 101.916 45.5455 100.692 46.6947C99.4093 47.7646 88.3953 52.7181 81.2895 45.1096C81.2895 45.1096 78.0129 41.444 82.4146 38.67C82.4146 38.67 85.5925 36.7481 93.6655 39.0069C93.6655 39.0069 96.113 39.8985 95.9946 40.7901C95.8564 41.7412 93.9813 42.7517 91.2574 42.6923C88.6124 42.613 86.6781 41.3449 87.0531 41.543C87.4084 41.6817 84.2108 39.9976 83.2239 41.1468C82.2369 42.1969 82.4738 42.8508 83.441 43.5046C85.9083 44.9114 95.4419 44.4161 98.2842 41.2458C98.2842 41.2458 99.4093 39.9579 97.6921 38.9078C95.9748 37.9171 91.06 37.3227 89.1454 37.2236C87.3097 37.1245 80.4802 37.2434 79.4933 35.4205C79.4933 35.4205 78.5064 34.1921 79.592 30.7048C80.7368 27.0591 88.6914 25.6523 92.1259 25.3352C92.1259 25.3352 101.581 24.9984 103.318 26.9402C103.298 26.9402 103.535 27.3959 103.239 28.0498ZM76.3944 49.429C75.2496 50.281 72.8217 49.9045 72.1309 48.9535C71.4401 48.1015 71.2032 44.7133 71.3414 39.4031C71.4795 34.0336 71.598 27.3761 72.7428 26.3259C73.9666 25.256 74.7166 26.1872 75.1903 26.9204C75.7035 27.6337 76.3154 28.4262 76.4536 30.1104C76.572 31.7946 76.9668 40.6316 76.9668 40.6316C76.9668 40.6316 77.48 48.5968 76.3944 49.429ZM78.8617 20.9366C75.5259 22.0461 73.2363 21.6697 71.3019 20.8375C70.4531 22.3235 69.9597 22.7793 69.3083 22.8783C68.3609 22.9774 67.5121 21.4517 67.3542 20.9564C67.1963 20.5799 66.7423 19.9459 67.295 18.44C65.4001 16.736 65.2619 14.4376 65.5778 12.8921C66.0515 11.1088 69.2491 4.33247 78.9801 3.53991C78.9801 3.53991 83.7371 3.18326 84.5463 5.73926H84.6845C84.6845 5.73926 89.3033 5.75907 89.2046 9.88037C89.1454 14.0215 84.0726 19.1731 78.8617 20.9366ZM69.782 11.7627C68.7951 13.3478 68.7556 14.2989 69.2096 14.9527C70.3347 13.2289 72.3875 10.5144 75.4075 8.45377C73.0783 8.65191 71.1242 9.66242 69.782 11.7627ZM83.2239 9.10764C80.1644 9.56336 75.4272 13.6847 73.177 17.053C76.6312 17.6871 82.7304 17.4493 85.4346 11.9212C85.4148 11.9212 86.7175 8.49341 83.2239 9.10764ZM166.283 41.0279C164.447 44.2377 159.296 50.9349 152.427 49.3695C150.157 54.8976 148.262 60.4654 147.176 68.8268C147.176 68.8268 146.939 70.4516 145.597 69.877C144.275 69.4014 142.064 67.1823 141.63 64.1111C141.156 60.0691 142.952 53.2333 146.604 45.4068C145.538 43.6631 144.808 41.1666 145.439 37.6199C145.439 37.6199 146.367 31.0417 152.94 25.0975C152.94 25.0975 153.729 24.404 154.183 24.622C154.696 24.8399 154.46 26.9798 154.045 28.0101C153.631 29.0405 150.69 34.1524 150.69 34.1524C150.69 34.1524 148.854 37.6001 149.367 40.3146C152.821 34.9846 160.677 24.2257 165.553 27.6138C167.191 28.7829 167.941 31.3389 167.941 34.093C167.921 36.5301 167.349 39.1059 166.283 41.0279ZM164.862 32.5872C164.862 32.5872 164.585 30.4671 162.533 32.8051C160.756 34.7667 157.559 38.4719 154.973 43.4848C157.677 43.1876 160.282 41.7016 161.072 40.9486C162.355 39.7994 165.335 36.7085 164.862 32.5872ZM69.032 35.2818C68.657 40.0768 66.8213 48.1411 53.8137 52.1237C45.2275 54.7193 37.115 53.471 32.6936 52.3416C32.595 54.1051 32.3976 54.858 32.1212 55.1552C31.7462 55.5317 28.9434 57.1564 27.4038 54.858C26.7129 53.7682 26.3576 51.7869 26.1603 50.0234C16.2121 45.4266 11.6328 38.8087 11.4552 38.5115C11.238 38.2936 8.96813 35.9159 11.238 33.0032C13.3698 30.368 20.3374 27.7327 26.6142 26.6628C26.8314 21.2734 27.463 17.2115 28.213 15.349C29.121 13.1893 30.2658 15.1311 31.2527 16.5973C32.0818 17.6871 32.5752 22.383 32.6147 26.1278C36.7203 25.9297 39.1481 26.2269 43.7274 27.0591C49.6884 28.1488 53.6755 31.2002 53.3202 34.6676C53.0636 38.0756 49.945 39.4824 48.7607 39.5815C47.5172 39.6805 45.5828 38.7889 45.5828 38.7889C44.2603 38.1549 45.4841 37.6001 47.0829 36.9066C48.8199 36.0546 48.4251 35.1828 48.4251 35.1828C47.7738 33.2806 40.0363 31.9531 32.3384 31.9531C32.2989 36.2131 32.516 43.2867 32.6147 47.408C38.0033 48.4383 42.0299 48.2402 42.0299 48.2402C42.0299 48.2402 61.6893 47.6854 62.2815 35.0837C62.8933 22.4622 42.6813 10.3559 27.7393 6.512C12.8171 2.58884 4.36909 5.32317 3.63878 5.69964C2.84924 6.09592 3.57956 6.21479 3.57956 6.21479C3.57956 6.21479 4.38883 6.33368 5.79026 6.80921C7.27063 7.28475 6.12581 8.0575 6.12581 8.0575C3.57956 8.86987 0.717496 8.3547 0.164822 7.18568C-0.387852 6.01666 0.539854 4.96652 1.60573 3.46066C2.6716 1.87554 3.83616 1.93499 3.83616 1.93499C22.2915 -4.48473 44.7735 7.12624 44.7735 7.12624C65.8344 17.8456 69.4267 30.4076 69.032 35.2818ZM13.3303 34.628C11.238 35.6583 12.6789 37.1444 12.6789 37.1444C16.6069 41.3845 21.4428 44.0396 26.0418 45.6842C26.5748 38.3728 26.4958 35.797 26.555 32.1116C19.3703 32.607 15.2252 33.7562 13.3303 34.628Z" fill="#0BA5EC"/>
</svg>