<svg width="97" height="41" viewBox="0 0 97 41" fill="none" xmlns="http://www.w3.org/2000/svg">
<g id="Disney">
<g id="Group">
<g id="Group_2">
<g id="Group_3">
<path id="Vector" d="M83.0859 18.4288C81.4617 18.8024 77.1869 19.0175 77.1869 19.0175L76.6455 20.7159C76.6455 20.7159 78.7773 20.5347 80.3338 20.6932C80.3338 20.6932 80.8414 20.6366 80.8978 21.2706C80.9203 21.8594 80.8526 22.4934 80.8526 22.4934C80.8526 22.4934 80.8188 22.8784 80.2774 22.969C79.6909 23.0709 75.6755 23.2181 75.6755 23.2181L75.0214 25.4259C75.0214 25.4259 74.7845 25.9354 75.3259 25.7882C75.8335 25.6524 80.0405 24.8598 80.5932 24.973C81.1797 25.1202 81.8339 25.9014 81.6422 26.6261C81.4166 27.5092 77.2208 30.2039 74.6604 30.0114C74.6604 30.0114 73.3182 30.102 72.179 28.2791C71.1188 26.5468 72.5851 23.252 72.5851 23.252C72.5851 23.252 71.9196 21.7122 72.4046 21.2027C72.4046 21.2027 72.6979 20.9423 73.5325 20.8744L74.5589 18.7345C74.5589 18.7345 73.3859 18.8137 72.6866 17.9532C72.0324 17.1267 71.9873 16.7531 72.4836 16.5266C73.0137 16.2662 77.8975 15.3718 81.2587 15.485C81.2587 15.485 82.4317 15.3718 83.4355 17.4098C83.4243 17.4098 83.9206 18.2363 83.0859 18.4288ZM70.4421 26.6487C70.0135 27.6677 68.8743 28.7547 67.4644 28.0753C66.0658 27.396 63.8438 22.8331 63.8438 22.8331C63.8438 22.8331 62.9979 21.1348 62.84 21.1687C62.84 21.1687 62.6595 20.8404 62.5467 22.6973C62.4339 24.5541 62.5693 28.1659 61.8361 28.732C61.1368 29.2981 60.2909 29.0717 59.851 28.4037C59.4563 27.747 59.2871 26.1845 59.5014 23.4445C59.7608 20.7045 60.3924 17.7834 61.2045 16.8663C62.0166 15.9605 62.6708 16.6172 62.9189 16.855C62.9189 16.855 64.0017 17.84 65.7951 20.7385L66.1109 21.2706C66.1109 21.2706 67.7351 24.0106 67.9043 23.9993C67.9043 23.9993 68.0396 24.1239 68.1524 24.0333C68.3216 23.988 68.2539 23.1049 68.2539 23.1049C68.2539 23.1049 67.9156 20.1271 66.438 15.0774C66.438 15.0774 66.2124 14.4433 66.3703 13.8546C66.5169 13.2545 67.1147 13.5375 67.1147 13.5375C67.1147 13.5375 69.4157 14.6924 70.521 18.4514C71.6151 22.2444 70.8707 25.6297 70.4421 26.6487ZM59.1404 16.9908C58.9487 17.3758 58.8359 17.9306 57.8659 18.0778C57.8659 18.0778 48.5832 18.7118 48.1433 19.3685C48.1433 19.3685 47.8163 19.7535 48.3238 19.8667C48.8314 19.9686 50.9293 20.2516 51.9444 20.3083C53.0272 20.3196 56.6816 20.3535 57.99 21.9953C57.99 21.9953 58.7682 22.7765 58.7344 24.5428C58.7006 26.3543 58.3847 26.9884 57.6854 27.6451C56.9523 28.2565 50.6586 31.087 46.5981 26.7393C46.5981 26.7393 44.7258 24.6447 47.241 23.0596C47.241 23.0596 49.057 21.9613 53.6701 23.252C53.6701 23.252 55.0687 23.7615 55.001 24.271C54.9221 24.8145 53.8506 25.3919 52.294 25.358C50.7826 25.3127 49.6773 24.5881 49.8916 24.7013C50.0946 24.7805 48.2674 23.8181 47.7035 24.4748C47.1395 25.0749 47.2749 25.4486 47.8275 25.8222C49.2374 26.6261 54.6852 26.343 56.3094 24.5315C56.3094 24.5315 56.9523 23.7955 55.971 23.1954C54.9897 22.6293 52.1813 22.2896 51.0872 22.233C50.0382 22.1764 46.1357 22.2444 45.5717 21.2027C45.5717 21.2027 45.0078 20.5007 45.6281 18.508C46.2823 16.4247 50.8278 15.6208 52.7903 15.4397C52.7903 15.4397 58.193 15.2472 59.1856 16.3568C59.1743 16.3568 59.3096 16.6172 59.1404 16.9908ZM43.8009 29.2075C43.1467 29.6944 41.7594 29.4793 41.3646 28.9358C40.9699 28.449 40.8345 26.5128 40.9135 23.4785C40.9924 20.4102 41.0601 16.6059 41.7143 16.0058C42.4136 15.3944 42.8422 15.9265 43.1129 16.3455C43.4061 16.7531 43.7558 17.206 43.8347 18.1684C43.9024 19.1307 44.128 24.1805 44.128 24.1805C44.128 24.1805 44.4213 28.732 43.8009 29.2075ZM45.2108 12.9261C43.3046 13.5602 41.9963 13.3451 40.8909 12.8695C40.4059 13.7187 40.1239 13.9791 39.7517 14.0357C39.2103 14.0923 38.7253 13.2205 38.6351 12.9375C38.5449 12.7223 38.2854 12.36 38.6013 11.4995C37.5185 10.5258 37.4395 9.21245 37.62 8.32931C37.8907 7.31031 39.7179 3.4381 45.2785 2.98521C45.2785 2.98521 47.9967 2.78141 48.4592 4.24198H48.5381C48.5381 4.24198 51.1774 4.2533 51.121 6.60833C51.0872 8.97468 48.1885 11.9185 45.2108 12.9261ZM40.0224 7.68394C39.4585 8.58972 39.4359 9.1332 39.6953 9.50683C40.3382 8.5218 41.5113 6.97064 43.237 5.79313C41.906 5.90635 40.7894 6.48379 40.0224 7.68394ZM47.7035 6.16677C45.9552 6.42718 43.2482 8.7822 41.9624 10.707C43.9363 11.0693 47.4215 10.9334 48.9667 7.77452C48.9554 7.77452 49.6999 5.81578 47.7035 6.16677ZM95.1658 24.4069C94.1168 26.2411 91.173 30.068 87.2479 29.1736C85.9508 32.3325 84.868 35.514 84.2476 40.292C84.2476 40.292 84.1123 41.2205 83.3453 40.8921C82.5896 40.6204 81.3264 39.3523 81.0782 37.5973C80.8075 35.2876 81.8339 31.3814 83.9205 26.9091C83.3115 25.9128 82.8942 24.4862 83.2551 22.4595C83.2551 22.4595 83.7852 18.7005 87.5411 15.3038C87.5411 15.3038 87.9923 14.9075 88.2517 15.0321C88.545 15.1566 88.4096 16.3794 88.1728 16.9682C87.9359 17.5569 86.2553 20.4781 86.2553 20.4781C86.2553 20.4781 85.2064 22.4482 85.4996 23.9993C87.4734 20.9536 91.9625 14.8056 94.7484 16.7417C95.6846 17.4098 96.1132 18.8703 96.1132 20.4441C96.1019 21.8368 95.7748 23.3087 95.1658 24.4069ZM94.3537 19.5836C94.3537 19.5836 94.1958 18.3722 93.0228 19.7082C92.0076 20.8291 90.1804 22.9463 88.7029 25.8109C90.2481 25.641 91.7369 24.7919 92.1881 24.3616C92.9212 23.7049 94.6244 21.9387 94.3537 19.5836ZM39.5938 21.1235C39.3795 23.8634 38.3306 28.4716 30.8977 30.7474C25.9913 32.2306 21.3556 31.5173 18.8291 30.8719C18.7727 31.8796 18.6599 32.3098 18.502 32.4797C18.2877 32.6948 16.686 33.6232 15.8063 32.3098C15.4115 31.6871 15.2085 30.5549 15.0957 29.5472C9.41104 26.9205 6.7943 23.1388 6.69278 22.969C6.56871 22.8444 5.27162 21.4858 6.56871 19.8214C7.78685 18.3155 11.7684 16.8097 15.3551 16.1983C15.4792 13.1186 15.8401 10.7976 16.2687 9.73328C16.7875 8.49915 17.4417 9.60873 18.0057 10.4466C18.4794 11.0693 18.7614 13.7527 18.7839 15.8926C21.13 15.7794 22.5173 15.9492 25.1341 16.4247C28.5403 17.0474 30.8187 18.7911 30.6157 20.7725C30.4691 22.7199 28.687 23.5238 28.0102 23.5804C27.2996 23.637 26.1943 23.1275 26.1943 23.1275C25.4386 22.7652 26.1379 22.4482 27.0515 22.0519C28.0441 21.565 27.8185 21.0668 27.8185 21.0668C27.4463 19.9799 23.0249 19.2213 18.626 19.2213C18.6035 21.6556 18.7275 25.6976 18.7839 28.0527C21.8631 28.6414 24.1641 28.5282 24.1641 28.5282C24.1641 28.5282 35.398 28.2112 35.7364 21.0102C36.086 13.798 24.5363 6.88006 15.998 4.68355C7.47104 2.44174 2.6436 4.00422 2.22627 4.21934C1.77511 4.44578 2.19244 4.51371 2.19244 4.51371C2.19244 4.51371 2.65488 4.58165 3.45569 4.85338C4.30162 5.12512 3.64744 5.56669 3.64744 5.56669C2.19244 6.0309 0.55697 5.73652 0.241157 5.06851C-0.0746573 4.40049 0.455461 3.80041 1.06453 2.93992C1.6736 2.03414 2.33906 2.06811 2.33906 2.06811C12.885 -1.6003 25.7318 5.03454 25.7318 5.03454C37.7666 11.1599 39.8194 18.3382 39.5938 21.1235ZM7.76429 20.7498C6.56871 21.3386 7.39209 22.1878 7.39209 22.1878C9.63662 24.6107 12.4 26.1279 15.028 27.0676C15.3326 22.8897 15.2874 21.4178 15.3213 19.3119C11.2157 19.595 8.84708 20.2516 7.76429 20.7498Z" fill="#344054"/>
</g>
</g>
</g>
</g>
</svg>
