<svg xmlns="http://www.w3.org/2000/svg" width="104" height="41" viewBox="0 0 104 41" fill="none">
  <g clip-path="url(#clip0_5619_439)">
    <path fill-rule="evenodd" clip-rule="evenodd" d="M22.4131 40.9624C11.9868 40.9624 6.56791 38.6669 3.32657 33.254C1.49959 30.1365 0.852051 24.551 0.852051 20.9618C0.852051 17.3726 1.49959 11.7895 3.32657 8.67084C6.56791 3.25791 11.9856 0.962402 22.4131 0.962402C32.8406 0.962402 38.2595 3.25791 41.4984 8.67084C43.3254 11.7895 43.9717 17.3738 43.9717 20.9618C43.9717 24.5497 43.3254 30.1353 41.4984 33.254C38.2583 38.6669 32.8394 40.9624 22.4131 40.9624ZM27.653 32.2667C26.4748 32.2667 24.7647 31.7366 23.9431 29.8533L18.7591 17.3203C17.6393 14.4959 19.8205 11.8478 22.3535 11.8478C23.5317 11.8478 25.2394 12.3792 26.0634 14.2613L31.2474 26.793C32.3672 29.6174 30.186 32.2667 27.6543 32.2667H27.653ZM17.2267 32.2667C16.0497 32.2667 14.3408 31.7366 13.5155 29.8533L8.33159 17.3203C7.21301 14.4959 9.39175 11.8478 11.9247 11.8478C13.1041 11.8478 14.8118 12.3792 15.6371 14.2613L20.821 26.793C21.9396 29.6174 19.7621 32.2667 17.2279 32.2667H17.2267ZM34.1613 22.7977C32.9843 22.7977 31.2741 22.2676 30.4513 20.3843L29.1855 17.3203C28.0657 14.4959 30.2444 11.8478 32.7761 11.8478C33.9544 11.8478 35.6633 12.3792 36.4873 14.2613L37.7556 17.324C38.8766 20.1496 36.6942 22.7977 34.1613 22.7977Z" fill="#344054"/>
    <path d="M51.8127 13.8212L53.4583 7.44528L55.1039 13.8212H57.1999L59.846 4.23181H57.7172L56.2079 10.2381C56.1823 10.367 56.158 10.4885 56.1178 10.6077C56.1166 10.6138 56.1142 10.6211 56.1129 10.6271C56.1093 10.6126 56.1056 10.5992 56.102 10.5846C56.0643 10.4727 56.0399 10.3475 56.0107 10.2065L54.4649 4.23181H52.448L50.8998 10.215C50.873 10.3475 50.8487 10.4727 50.8085 10.5943C50.8061 10.6053 50.8036 10.615 50.8 10.6271C50.7975 10.6174 50.7951 10.6077 50.7927 10.598C50.7562 10.4885 50.7318 10.367 50.7014 10.2211L49.1957 4.23181H47.0669L49.713 13.8212H51.809H51.8127Z" fill="#344054"/>
    <path d="M60.8416 13.8212L61.7752 11.3822H65.1967L66.1303 13.8212H68.2956L64.4481 4.31327L64.4152 4.23181H62.5578L58.6763 13.8212H60.8416ZM63.2626 7.48541L63.4865 6.84223L63.6034 7.19239L64.4968 9.54869H62.4763L63.2626 7.48541Z" fill="#344054"/>
    <path d="M76.479 7.0015C76.479 5.29324 75.156 4.23181 73.0259 4.23181H68.9058V13.8212H70.9287V10.0375H72.2153L74.3757 13.8212H76.692L74.4013 9.81374C75.7792 9.26783 76.4766 8.32191 76.4766 7.00028L76.479 7.0015ZM74.4561 7.13403C74.4561 7.8611 73.9753 8.22829 73.0271 8.22829H70.9299V6.03855H73.0271C73.9753 6.03855 74.4561 6.40695 74.4561 7.13281V7.13403Z" fill="#344054"/>
    <path d="M79.748 7.52553L79.7699 7.56565C79.8125 7.64347 79.8575 7.72493 79.9074 7.79301L83.8024 13.7628L83.8413 13.8224H85.8314V4.23181H83.862V10.4873L83.8401 10.4484C83.7975 10.3706 83.7525 10.2904 83.7026 10.2211L79.7686 4.23181H77.7798V13.8212H79.7492V7.52553H79.748Z" fill="#344054"/>
    <path d="M94.1279 11.9877H89.4065V9.78456H93.7141V7.94986H89.4065V6.06652H94.0877V4.23181H87.3823V13.8212H94.1279V11.9877Z" fill="#344054"/>
    <path d="M100.856 9.81496C102.234 9.26905 102.932 8.32312 102.932 7.0015C102.932 5.29324 101.609 4.23181 99.4785 4.23181H95.3584V13.8212H97.3813V10.0375H98.6679L100.828 13.8212H103.145L100.854 9.81374L100.856 9.81496ZM100.909 7.13524C100.909 7.86232 100.428 8.2295 99.4798 8.2295H97.3838V6.03977H99.4798C100.428 6.03977 100.909 6.40817 100.909 7.13403V7.13524Z" fill="#344054"/>
    <path d="M58.73 25.6647V16.0741H56.656L53.77 23.2622L50.8829 16.0741H48.8101V25.6647H50.7794V20.6773L50.9815 21.3071L52.8426 25.6647H54.6963L56.5622 21.2961L56.7594 20.6773V25.6647H58.73Z" fill="#344054"/>
    <path d="M60.1748 16.0741V22.0013C60.1748 24.3394 61.7291 25.8507 64.1343 25.8507C66.5394 25.8507 68.0937 24.3394 68.0937 22.0013V16.0741H66.0708V21.8287C66.0708 23.1843 65.3648 23.9625 64.1343 23.9625C62.9037 23.9625 62.1977 23.1843 62.1977 21.8287V16.0741H60.1748Z" fill="#344054"/>
    <path d="M73.0585 24.0427C71.8 24.0427 71.0904 23.3691 70.8263 21.9247L70.7946 21.7521L69.0005 22.664L69.0212 22.7624C69.435 24.726 70.9115 25.8519 73.0719 25.8519C75.4442 25.8519 76.6845 24.3443 76.6845 22.8561C76.6845 21.2426 75.7108 20.3198 73.5247 19.8627C71.9777 19.5453 71.3752 19.1745 71.3752 18.5386C71.3752 17.9027 72.1457 17.6972 72.8042 17.6972C73.8315 17.6972 74.5301 18.2237 74.8807 19.2608L74.9318 19.4128L76.5531 18.4778L76.5153 18.3745C75.9153 16.7258 74.6798 15.8893 72.8443 15.8893C70.8031 15.8893 69.4314 16.9702 69.4314 18.5787C69.4314 20.0754 70.5353 21.1429 72.4573 21.5053C74.0627 21.8323 74.6604 22.2165 74.6604 22.9229C74.6604 23.6293 74.0311 24.0439 73.0573 24.0439L73.0585 24.0427Z" fill="#344054"/>
    <path d="M79.8174 16.0741H77.7944V25.6634H79.8174V16.0741Z" fill="#344054"/>
    <path d="M89.9576 23.2877L90.0282 23.1819L88.4301 22.0354L88.3595 22.1667C87.718 23.3582 86.8051 23.9625 85.6464 23.9625C83.9837 23.9625 82.7763 22.6615 82.7763 20.8694C82.7763 19.0772 83.9837 17.7763 85.6464 17.7763C86.8404 17.7763 87.6669 18.3368 88.2499 19.5405L88.3181 19.6815L89.9588 18.5021L89.915 18.4049C89.2078 16.8291 87.6316 15.8893 85.6999 15.8893C82.8177 15.8893 80.7266 17.9842 80.7266 20.8706C80.7266 23.757 82.7446 25.8519 85.633 25.8519C87.819 25.8519 88.8743 24.912 89.9576 23.2877Z" fill="#344054"/>
    <path d="M52.1535 33.9616H55.1429C55.0054 34.6157 54.5112 35.8048 52.739 35.8048C51.1116 35.8048 49.976 34.533 49.976 32.7117C49.976 30.8904 51.1944 29.5384 52.8729 29.5384C54.0767 29.5384 55.0005 30.0989 55.5433 31.1591L55.6127 31.2953L57.1476 30.1803L57.0965 30.0806C56.3455 28.6095 54.7765 27.7304 52.8972 27.7304C50.0624 27.7304 47.9238 29.8715 47.9238 32.7117C47.9238 35.5519 49.9699 37.693 52.6842 37.693C53.8722 37.693 54.8325 37.2456 55.4764 36.3957L55.8014 37.507H57.1914V32.2619H52.1535V33.9628V33.9616Z" fill="#344054"/>
    <path d="M66.0889 30.6861C66.0889 28.9778 64.7658 27.9164 62.6358 27.9164H58.5156V37.5057H60.5386V33.722H61.8251L63.9856 37.5057H66.3019L64.0112 33.4983C65.389 32.9524 66.0865 32.0065 66.0865 30.6849L66.0889 30.6861ZM64.0659 30.8186C64.0659 31.5457 63.5852 31.9141 62.637 31.9141H60.5398V29.7243H62.637C63.5852 29.7243 64.0659 30.0927 64.0659 30.8186Z" fill="#344054"/>
    <path d="M71.6783 27.7304C68.8654 27.7304 66.7451 29.8715 66.7451 32.7117C66.7451 35.5519 68.8667 37.693 71.6783 37.693C74.49 37.693 76.6115 35.5519 76.6115 32.7117C76.6115 29.8715 74.49 27.7304 71.6783 27.7304ZM74.5618 32.7117C74.5618 34.5622 73.4031 35.8048 71.6783 35.8048C69.9536 35.8048 68.7948 34.561 68.7948 32.7117C68.7948 30.8624 69.9536 29.6186 71.6783 29.6186C73.4031 29.6186 74.5618 30.8624 74.5618 32.7117Z" fill="#344054"/>
    <path d="M83.5664 33.671C83.5664 35.0266 82.8605 35.8048 81.6299 35.8048C80.3993 35.8048 79.6934 35.0266 79.6934 33.671V27.9164H77.6704V33.8436C77.6704 36.1817 79.2247 37.6918 81.6299 37.6918C84.035 37.6918 85.5894 36.1805 85.5894 33.8436V27.9164H83.5664V33.671Z" fill="#344054"/>
    <path d="M91.4075 27.9164H87.0342V37.5057H89.0571V34.2546H91.4075C93.6447 34.2546 95.0335 33.0399 95.0335 31.0861C95.0335 29.1322 93.6434 27.9164 91.4075 27.9164ZM93.0105 31.0861C93.0105 31.9591 92.4372 32.4211 91.3539 32.4211H89.0571V29.7511H91.3539C92.4372 29.7511 93.0105 30.2131 93.0105 31.0861Z" fill="#344054"/>
  </g>
  <defs>
    <clipPath id="clip0_5619_439">
      <rect width="102.295" height="40" fill="white" transform="translate(0.852051 0.962402)"/>
    </clipPath>
  </defs>
</svg>