<svg width="46" height="48" viewBox="0 0 46 48" fill="none" xmlns="http://www.w3.org/2000/svg">
<mask id="mask0_5233_294" style="mask-type:luminance" maskUnits="userSpaceOnUse" x="0" y="0" width="46" height="48">
<path d="M0.113281 0H45.257V47.9248H0.113281V0Z" fill="white"/>
</mask>
<g mask="url(#mask0_5233_294)">
<path fill-rule="evenodd" clip-rule="evenodd" d="M14.8049 45.499C17.0744 47.1374 18.3566 47.9248 22.6852 47.9248C27.0138 47.9248 28.296 47.1374 30.5655 45.499C31.4118 44.8871 32.3713 44.1945 33.7967 43.3652C35.2232 42.5346 36.2981 42.0435 37.2459 41.6104C39.7879 40.4491 41.1065 39.7232 43.2702 35.9444C45.435 32.1646 45.3997 30.6512 45.1262 27.8515C45.0247 26.8056 44.9082 25.6218 44.9082 23.9629C44.9082 22.3375 45.0066 21.1429 45.0845 20.1821C45.3164 17.3523 45.3325 16.0478 43.3578 12.1431C41.4003 8.27166 39.8445 7.54457 37.2672 6.34028C36.2917 5.88464 35.1869 5.36866 33.7967 4.5597C32.3713 3.73027 31.4118 3.03765 30.5655 2.42581C28.296 0.787418 27.0138 0 22.6852 0C18.3566 0 17.0744 0.787418 14.8049 2.42581C13.9586 3.03765 12.9991 3.73027 11.5737 4.5597C10.1482 5.38913 9.07229 5.8814 8.12448 6.31443C5.58247 7.47563 4.26391 8.20165 2.0991 11.9814C-0.0646539 15.7602 -0.0293926 17.2747 0.244148 20.0743C0.345658 21.1192 0.461057 22.303 0.461057 23.9629C0.461057 25.6218 0.345658 26.8056 0.244148 27.8515C-0.0293926 30.6512 -0.0646539 32.1646 2.0991 35.9444C4.26391 39.7232 5.58247 40.4491 8.12448 41.6104C9.07229 42.0435 10.1482 42.5346 11.5737 43.3652C12.9991 44.1945 13.9586 44.8871 14.8049 45.499ZM16.1416 4.30765C18.0938 2.89761 18.9016 2.31378 22.6852 2.31378C26.4688 2.31378 27.2766 2.89761 29.2288 4.30765C30.074 4.91733 31.1265 5.67782 32.6491 6.56434C34.1279 7.425 35.3332 7.98837 36.3024 8.43972C38.7161 9.56753 39.7152 10.035 41.3126 13.1933C43.0683 16.6673 42.9946 17.5731 42.7983 19.9881L42.7979 19.9925C42.7157 20.9942 42.613 22.2427 42.613 23.9629C42.613 25.736 42.7403 27.034 42.8417 28.0777C43.0768 30.4863 43.174 31.4838 41.2828 34.7864C39.3904 38.0901 38.4854 38.5038 36.2992 39.5023C35.3514 39.9353 34.1717 40.474 32.6491 41.3616C31.1265 42.247 30.074 43.0075 29.2288 43.6182C27.2755 45.0272 26.4688 45.611 22.6852 45.611C18.9016 45.611 18.0938 45.0272 16.1416 43.6182C15.2964 43.0075 14.2439 42.247 12.7213 41.3616C11.1986 40.474 10.0189 39.9353 9.07119 39.5023C6.88393 38.5038 5.97996 38.0901 4.08761 34.7864C2.19633 31.4838 2.29357 30.4863 2.52865 28.0777C2.63015 27.034 2.75731 25.736 2.75731 23.9629C2.75731 22.1899 2.63015 20.8909 2.52865 19.8471C2.29357 17.4385 2.19633 16.441 4.08761 13.1384C5.97996 9.83467 6.885 9.42205 9.07229 8.42246C10.0189 7.98945 11.1986 7.45085 12.7213 6.56434C14.2439 5.67782 15.2964 4.91733 16.1416 4.30765Z" fill="#344054"/>
</g>
<path d="M11.0581 20.6211V36.1384H12.7636C13.6803 36.1384 14.4257 35.4323 14.4257 34.5652V19.3004H12.4543C11.6845 19.3004 11.0581 19.8929 11.0581 20.6211Z" fill="#344054"/>
<path d="M16.1094 13.9162V33.6127H17.8149C18.7316 33.6127 19.477 32.8915 19.477 32.0044V12.5652H17.5056C16.7357 12.5652 16.1094 13.1712 16.1094 13.9162Z" fill="#344054"/>
<path d="M21.1606 8.83453V24.3518H22.8661C23.7829 24.3518 24.5282 23.6467 24.5282 22.7786V7.51379H22.5569C21.787 7.51379 21.1606 8.10628 21.1606 8.83453Z" fill="#344054"/>
<path d="M26.2124 13.9162V33.6127H27.9179C28.8346 33.6127 29.58 32.8915 29.58 32.0044V12.5652H27.6086C26.8388 12.5652 26.2124 13.1712 26.2124 13.9162Z" fill="#344054"/>
<path d="M31.2637 20.6211V36.1384H32.9692C33.8859 36.1384 34.6313 35.4323 34.6313 34.5652V19.3004H32.6599C31.8889 19.3004 31.2637 19.8929 31.2637 20.6211Z" fill="#344054"/>
</svg>
