<svg xmlns="http://www.w3.org/2000/svg" width="207" height="62" viewBox="0 0 207 62" fill="none">
  <path d="M100.271 18.9634V42.2865H104.253V18.9634H100.271ZM147.549 42.2865V18.9634H151.53V42.2865H147.549ZM83.942 19.3331L75.7617 42.2865H80.1784L81.8891 37.3261H91.3757L93.0864 42.2865H97.5032L89.2918 19.3331H83.942ZM90.1627 33.7214H83.1022L86.648 23.5233L90.1627 33.7214ZM116.445 42.6563C114.745 42.6563 113.216 42.2711 111.857 41.5009C110.499 40.7306 109.431 39.678 108.654 38.3429C107.876 37.0078 107.487 35.4981 107.487 33.8138C107.487 32.1295 107.876 30.625 108.654 29.3001C109.431 27.9753 110.494 26.9278 111.842 26.1575C113.19 25.3873 114.724 25.0021 116.445 25.0021C117.648 25.0021 118.773 25.2127 119.82 25.6337C120.867 26.0548 121.769 26.6402 122.526 27.3899C123.283 28.1396 123.838 28.9972 124.19 29.9625L120.769 31.6263C120.437 30.7225 119.882 29.9985 119.105 29.4542C118.327 28.9099 117.43 28.6377 116.414 28.6377C115.502 28.6377 114.683 28.8585 113.957 29.3001C113.231 29.7417 112.661 30.3528 112.246 31.1333C111.832 31.9138 111.624 32.8176 111.624 33.8446C111.624 34.8511 111.832 35.7446 112.246 36.5251C112.661 37.3056 113.231 37.9218 113.957 38.3737C114.683 38.8256 115.512 39.0515 116.445 39.0515C117.482 39.0515 118.379 38.7742 119.136 38.2196C119.893 37.665 120.437 36.9359 120.769 36.0321L124.19 37.7575C123.858 38.7023 123.314 39.5393 122.557 40.2685C121.8 40.9977 120.898 41.5779 119.851 42.0093C118.804 42.4406 117.669 42.6563 116.445 42.6563ZM130.66 41.5163C132.028 42.2763 133.552 42.6563 135.232 42.6563C136.911 42.6563 138.436 42.2763 139.804 41.5163C141.173 40.7563 142.266 39.7088 143.086 38.3737C143.905 37.0386 144.314 35.5186 144.314 33.8138C144.314 32.1295 143.91 30.6198 143.101 29.2847C142.292 27.9496 141.199 26.9021 139.82 26.1421C138.441 25.3821 136.911 25.0021 135.232 25.0021C133.552 25.0021 132.028 25.3821 130.66 26.1421C129.291 26.9021 128.202 27.9496 127.394 29.2847C126.585 30.6198 126.181 32.1295 126.181 33.8138C126.181 35.5186 126.585 37.0386 127.394 38.3737C128.202 39.7088 129.291 40.7563 130.66 41.5163ZM193.924 41.4701C195.251 42.2609 196.796 42.6563 198.559 42.6563C200.321 42.6563 201.866 42.266 203.193 41.4855C204.52 40.705 205.443 39.7088 205.962 38.4969L202.727 36.9256C202.353 37.6034 201.814 38.1529 201.109 38.5739C200.404 38.995 199.565 39.2055 198.59 39.2055C197.304 39.2055 196.221 38.8204 195.34 38.0502C194.459 37.2799 193.955 36.2478 193.831 34.9538H206.428C206.511 34.7278 206.568 34.4608 206.599 34.1527C206.63 33.8446 206.646 33.5468 206.646 33.2592C206.646 31.7598 206.283 30.3836 205.557 29.1307C204.831 27.8777 203.841 26.8764 202.586 26.1267C201.332 25.377 199.896 25.0021 198.279 25.0021C196.662 25.0021 195.205 25.3873 193.909 26.1575C192.613 26.9278 191.587 27.9753 190.83 29.3001C190.073 30.625 189.694 32.1295 189.694 33.8138C189.694 35.457 190.068 36.9461 190.814 38.2812C191.561 39.6163 192.597 40.6793 193.924 41.4701ZM160.955 42.2557L158.155 49.1264H162.261L171.903 25.3719H167.58L163.007 37.1721L158.466 25.3719H154.143L160.955 42.2557ZM173.334 42.2865V39.0823L182.385 28.8842H173.707V25.3719H187.61V28.5761L178.715 38.7742H187.641V42.2865H173.334ZM195.448 29.2077C196.236 28.5607 197.18 28.2372 198.279 28.2372C199.357 28.2372 200.29 28.5864 201.078 29.2847C201.866 29.9831 202.302 30.8766 202.385 31.9652H193.924C194.152 30.7739 194.661 29.8547 195.448 29.2077ZM137.782 38.3737C137.036 38.8256 136.186 39.0515 135.232 39.0515C134.278 39.0515 133.433 38.8256 132.697 38.3737C131.961 37.9218 131.38 37.3056 130.955 36.5251C130.53 35.7446 130.317 34.8511 130.317 33.8446C130.317 32.8381 130.53 31.9447 130.955 31.1641C131.38 30.3836 131.961 29.7674 132.697 29.3155C133.433 28.8637 134.278 28.6377 135.232 28.6377C136.186 28.6377 137.036 28.8637 137.782 29.3155C138.529 29.7674 139.115 30.3836 139.54 31.1641C139.965 31.9447 140.177 32.8381 140.177 33.8446C140.177 34.8511 139.965 35.7446 139.54 36.5251C139.115 37.3056 138.529 37.9218 137.782 38.3737Z" fill="#1E2749"/>
  <mask id="mask0_5153_815" style="mask-type:luminance" maskUnits="userSpaceOnUse" x="0" y="0" width="58" height="61">
    <path d="M0 0.0795898H57.5108V60.557H0V0.0795898Z" fill="white"/>
  </mask>
  <g mask="url(#mask0_5153_815)">
    <path fill-rule="evenodd" clip-rule="evenodd" d="M18.7163 57.4958C21.6076 59.5633 23.2411 60.557 28.7554 60.557C34.2699 60.557 35.9033 59.5633 38.7946 57.4958C39.8727 56.7237 41.0951 55.8496 42.911 54.803C44.7282 53.755 46.0976 53.1352 47.3051 52.5886C50.5434 51.1233 52.2232 50.2071 54.9797 45.4386C57.7376 40.6688 57.6926 38.759 57.3442 35.226C57.2148 33.9062 57.0665 32.4123 57.0665 30.319C57.0665 28.2678 57.1917 26.7603 57.2911 25.5478C57.5864 21.9768 57.6069 20.3307 55.0913 15.4032C52.5975 10.5178 50.6156 9.60025 47.3322 8.08053C46.0895 7.50554 44.682 6.85442 42.911 5.83358C41.0951 4.7869 39.8727 3.91286 38.7946 3.14078C35.9033 1.07325 34.2699 0.0795898 28.7554 0.0795898C23.2411 0.0795898 21.6076 1.07325 18.7163 3.14078C17.6382 3.91286 16.4159 4.7869 14.5999 5.83358C12.784 6.88025 11.4133 7.50146 10.2059 8.04791C6.96746 9.51325 5.28769 10.4294 2.52983 15.1992C-0.22668 19.9678 -0.181759 21.8789 0.166717 25.4118C0.296035 26.7303 0.443048 28.2242 0.443048 30.319C0.443048 32.4123 0.296035 33.9062 0.166717 35.226C-0.181759 38.759 -0.22668 40.6688 2.52983 45.4386C5.28769 50.2071 6.96746 51.1233 10.2059 52.5886C11.4133 53.1352 12.784 53.755 14.5999 54.803C16.4159 55.8496 17.6382 56.7237 18.7163 57.4958ZM20.4192 5.5155C22.9062 3.73615 23.9353 2.9994 28.7554 2.9994C33.5756 2.9994 34.6047 3.73615 37.0916 5.5155C38.1684 6.28487 39.5092 7.24455 41.449 8.36327C43.3329 9.44937 44.8684 10.1603 46.1031 10.7299C49.1781 12.1531 50.4508 12.743 52.4859 16.7285C54.7224 21.1124 54.6286 22.2555 54.3785 25.303L54.378 25.3085C54.2733 26.5727 54.1425 28.1481 54.1425 30.319C54.1425 32.5564 54.3046 34.1943 54.4338 35.5115C54.7333 38.551 54.8571 39.8097 52.4478 43.9774C50.037 48.1464 48.8841 48.6683 46.099 49.9285C44.8915 50.4749 43.3887 51.1546 41.449 52.2747C39.5092 53.392 38.1684 54.3517 37.0916 55.1224C34.6033 56.9005 33.5756 57.6371 28.7554 57.6371C23.9353 57.6371 22.9062 56.9005 20.4192 55.1224C19.3425 54.3517 18.0017 53.392 16.0619 52.2747C14.1221 51.1546 12.6193 50.4749 11.4119 49.9285C8.62545 48.6683 7.47385 48.1464 5.06309 43.9774C2.6537 39.8097 2.77758 38.551 3.07705 35.5115C3.20637 34.1943 3.36835 32.5564 3.36835 30.319C3.36835 28.0815 3.20637 26.4422 3.07705 25.125C2.77758 22.0856 2.6537 20.8268 5.06309 16.6592C7.47385 12.4902 8.62682 11.9695 11.4133 10.7081C12.6193 10.1617 14.1221 9.48198 16.0619 8.36327C18.0017 7.24455 19.3425 6.28487 20.4192 5.5155Z" fill="#1E2749"/>
  </g>
  <path d="M13.9429 26.1022V45.6838H16.1156C17.2834 45.6838 18.233 44.7928 18.233 43.6985V24.4355H15.7216C14.7408 24.4355 13.9429 25.1832 13.9429 26.1022Z" fill="#1E2749"/>
  <path d="M20.3779 17.6409V42.4964H22.5506C23.7185 42.4964 24.6681 41.5862 24.6681 40.4669V15.936H22.1566C21.1759 15.936 20.3779 16.7008 20.3779 17.6409Z" fill="#1E2749"/>
  <path d="M26.8135 11.2282V30.8098H28.9862C30.154 30.8098 31.1036 29.92 31.1036 28.8245V9.56152H28.5922C27.6114 9.56152 26.8135 10.3092 26.8135 11.2282Z" fill="#1E2749"/>
  <path d="M33.2485 17.6409V42.4964H35.4213C36.5891 42.4964 37.5387 41.5862 37.5387 40.4669V15.936H35.0272C34.0465 15.936 33.2485 16.7008 33.2485 17.6409Z" fill="#1E2749"/>
  <path d="M39.6836 26.1022V45.6838H41.8563C43.0242 45.6838 43.9737 44.7928 43.9737 43.6985V24.4355H41.4623C40.4801 24.4355 39.6836 25.1832 39.6836 26.1022Z" fill="#1E2749"/>
</svg>