<svg xmlns="http://www.w3.org/2000/svg" width="134" height="70" fill="none"><g clip-path="url(#a)"><mask id="b" style="mask-type:luminance" maskUnits="userSpaceOnUse" x="0" y="0" width="134" height="70"><path d="M133.913 0H0v70h133.913V0Z" fill="#fff"/></mask><g mask="url(#b)"><mask id="c" style="mask-type:luminance" maskUnits="userSpaceOnUse" x="0" y="0" width="134" height="70"><path d="M133.913 0H0v70h133.913V0Z" fill="#fff"/></mask><g mask="url(#c)"><path d="M103.346 41.106c1.599 1.112 3.157 2.203 4.838 3.357-.84.72-1.599 1.441-2.399 2.06-2.255 1.75-4.797 2.944-7.626 3.335-4.285.598-8.323.021-11.768-2.862-2.357-1.998-3.628-4.593-3.915-7.661-.451-4.758.902-8.98 4.018-12.583 2.686-3.11 6.11-4.943 10.127-5.623 2.543-.412 5.085-.432 7.524.495 3.465 1.297 5.392 3.913 6.171 7.455.492 2.183.451 4.407.144 6.631-.082.618-.164 1.215-.226 1.833-.02.33-.184.391-.471.391H89.692c-.779 0-.779 0-.717.783.287 3.522 2.808 5.87 6.355 5.931 2.973.062 5.474-.968 7.565-3.11.123-.123.266-.247.451-.412m-13.633-8.381h13.776c.308 0 .595.02.636-.412.184-2.307-.513-4.86-3.321-5.828-2.993-1.01-5.843-.598-8.303 1.503-1.435 1.215-2.276 2.821-2.788 4.737Zm-45.573 8.34c1.598 1.112 3.177 2.204 4.796 3.337-1.783 1.832-3.73 3.274-6.007 4.283-2.603 1.153-5.35 1.565-8.159 1.318-3.444-.309-6.499-1.565-8.815-4.263-1.681-1.956-2.542-4.263-2.727-6.837-.308-4.222.84-8.032 3.403-11.368 2.706-3.522 6.315-5.622 10.66-6.405 2.46-.432 4.921-.474 7.32.35 3.813 1.297 5.863 4.119 6.6 7.97.411 2.142.35 4.304.042 6.467-.062.453-.123.885-.144 1.338-.02.453-.184.639-.676.639H30.649c-.902 0-.84 0-.8.865.165 3.439 2.81 5.807 6.5 5.848 2.85 0 5.268-.988 7.257-3.006.164-.165.349-.33.533-.515m-13.756-8.382h13.12c.329 0 .677.02 1.005 0 .144 0 .37-.165.37-.288.143-1.833-.103-3.563-1.538-4.881-.923-.865-2.03-1.236-3.26-1.442-3.588-.556-6.786.948-8.57 4.119-.43.741-.717 1.565-1.127 2.513m32.473-11.162c-.184 1.503-.369 2.945-.532 4.366.04 0 .082.04.123.061.081-.102.184-.185.266-.308 1.743-2.76 4.244-4.387 7.462-4.737 2.358-.268 4.695-.124 6.786 1.194 2.01 1.257 2.952 3.172 3.3 5.458.308 2.06.042 4.098-.266 6.116-.287 1.977-.553 3.955-.84 5.911-.328 2.265-.636 4.53-.964 6.796-.123.844-.266 1.689-.348 2.554-.041.309-.164.37-.43.37h-6.028c-.308 0-.43-.061-.37-.432.452-3.13.882-6.281 1.313-9.412.246-1.709.513-3.418.738-5.148.164-1.36.225-2.698-.041-4.057-.553-2.678-2.542-3.501-4.838-3.275-4.387.433-6.212 3.934-6.663 7.208-.308 2.245-.636 4.49-.964 6.755-.307 2.224-.615 4.47-.943 6.693-.02.165-.04.33-.082.495-.136.782-.608 1.173-1.414 1.173h-5.577c.205-1.503.39-2.903.595-4.324.287-2.019.574-4.016.84-6.035.308-2.265.636-4.53.944-6.796.328-2.327.656-4.654.963-6.981.144-1.091.287-2.183.472-3.254.02-.144.246-.37.369-.37 2.009-.021 4.018 0 6.15 0" fill="#055EAA"/><path d="M85.346 22.16c2.46-7.518 7.094-12.975 13.818-16.682 4.223-2.327 8.774-3.728 13.51-4.551 3.014-.536 6.027-.886 9.082-.907 2.214-.02 4.428-.04 6.642.042 1.702.082 3.383.35 5.085.514.348.042.451.186.41.515-.451 3.151-.902 6.302-1.333 9.453-.061.412-.205.535-.656.432-2.87-.535-5.74-.988-8.672-1.05-2.685-.041-5.371-.144-8.036.041-6.499.433-12.793 1.833-18.759 4.47-3.915 1.73-7.524 3.912-10.496 7.063-.164.165-.328.35-.574.639M49.572 49.364C47.07 55.872 42.684 60.527 36.8 63.842c-4.223 2.39-8.775 3.851-13.49 4.799-2.932.597-5.884 1.009-8.877 1.132-2.214.103-4.428.248-6.622.186-2.44-.083-4.879-.392-7.319-.597-.492-.042-.512-.268-.45-.68.368-2.471.717-4.943 1.065-7.414.082-.597.164-1.215.246-1.833.062-.391.205-.474.636-.412 2.112.31 4.223.68 6.335.803 2.972.206 5.945.371 8.918.31 7.196-.145 14.289-1.072 21.075-3.667 4.12-1.585 7.893-3.748 11.03-6.96.04-.042.081-.062.225-.186" fill="#F68E2E"/><path d="M18.779 13.571c-.226 1.648-.472 3.295-.697 4.922-.123.865-.246 1.73-.39 2.595-.061.433.123.515.492.494H24.5c-.103.762-.185 1.442-.267 2.101-.143 1.01-.287 2.018-.41 3.048-.04.453-.205.638-.697.638-1.886-.02-3.772 0-5.638 0-.45 0-.676.062-.738.618-.471 3.646-1.025 7.311-1.496 10.957-.123.885-.205 1.77-.164 2.656.102 1.957 1.373 2.554 3.013 2.677 1.148.083 2.256-.164 3.363-.803-.103.742-.164 1.4-.246 2.039-.144 1.01-.288 2.018-.41 3.048-.042.432-.206.68-.657.844-2.111.762-4.264.762-6.437.536a11.527 11.527 0 0 1-2.337-.495c-2.07-.7-3.075-2.265-3.362-4.386-.287-2.142.102-4.242.39-6.343.266-1.998.553-3.975.84-5.972l.615-4.428c.041-.288.061-.577.082-.927H5.781c.082-.741.164-1.4.246-2.08.144-1.01.308-2.018.41-3.048.062-.453.164-.7.697-.68.984.042 1.968-.04 2.952.021.595.041.739-.247.8-.72.246-1.648.513-3.275.8-4.902.02-.165.164-.392.307-.433 2.173-.68 4.367-1.318 6.56-1.977h.185m93.547 13.799c.102-.783.164-1.504.266-2.225.123-1.009.308-2.018.41-3.048.041-.37.185-.514.554-.514h3.177c.39 0 .595-.062.656-.515.246-1.71.554-3.419.861-5.128.021-.165.226-.392.39-.433 2.153-.659 4.305-1.297 6.437-1.956h.205c-.225 1.627-.451 3.213-.676 4.819-.123.865-.246 1.73-.39 2.595-.082.453.062.638.554.618 1.865-.021 3.731 0 5.597 0h.656c-.123.906-.226 1.75-.328 2.594-.103.845-.226 1.69-.328 2.554-.062.453-.226.66-.738.639-1.866-.042-3.732 0-5.577-.021-.451 0-.697.062-.758.618-.246 2.039-.554 4.057-.841 6.075-.287 2.08-.594 4.16-.82 6.26a5.72 5.72 0 0 0 .144 2.04c.307 1.235 1.332 1.874 2.87 1.936 1.168.04 2.275-.165 3.382-.804-.164 1.257-.328 2.41-.471 3.563-.082.597-.144 1.195-.287 1.771a.945.945 0 0 1-.492.556c-1.681.68-3.465.762-5.269.7-1.435-.04-2.849-.226-4.162-.844-1.701-.803-2.501-2.245-2.767-4.057-.287-1.956 0-3.872.266-5.787.267-2.018.574-4.016.861-6.034.246-1.73.472-3.46.738-5.19.103-.72.082-.782-.635-.782h-3.465" fill="#055EAA"/></g></g></g><defs><clipPath id="a"><path fill="#fff" d="M0 0h133.913v70H0z"/></clipPath></defs></svg>