<?xml version="1.0" encoding="utf-8"?>
<!-- Generator: Adobe Illustrator 27.8.1, SVG Export Plug-In . SVG Version: 6.00 Build 0)  -->
<svg version="1.1" id="Alcolyze" xmlns="http://www.w3.org/2000/svg" xmlns:xlink="http://www.w3.org/1999/xlink" x="0px" y="0px"
	width="46" height="48" viewBox="0 0 57.5 60.5" style="enable-background:new 0 0 57.5 60.5;" xml:space="preserve">
<style type="text/css">
	.st0{fill:#354054;}
</style>
<g>
	<path class="st0" d="M57.3,35.1c-0.1-1.3-0.3-2.8-0.3-4.9c0-2.1,0.1-3.6,0.2-4.8c0.3-3.6,0.3-5.2-2.2-10.1
		c-2.5-4.9-4.5-5.8-7.8-7.3c-1.2-0.6-2.7-1.2-4.4-2.2c-1.8-1-3-1.9-4.1-2.7C35.9,1,34.3,0,28.8,0c-5.5,0-7.1,1-10,3.1
		c-1.1,0.8-2.3,1.6-4.1,2.7c-1.8,1-3.2,1.7-4.4,2.2C7,9.4,5.3,10.3,2.5,15.1c-2.8,4.8-2.7,6.7-2.4,10.2c0.1,1.3,0.3,2.8,0.3,4.9
		c0,2.1-0.1,3.6-0.3,4.9c-0.3,3.5-0.4,5.4,2.4,10.2c2.8,4.8,4.4,5.7,7.7,7.2c1.2,0.5,2.6,1.2,4.4,2.2c1.8,1,3,1.9,4.1,2.7
		c2.9,2.1,4.5,3.1,10,3.1c5.5,0,7.1-1,10-3.1c1.1-0.8,2.3-1.6,4.1-2.7c1.8-1,3.2-1.7,4.4-2.2c3.2-1.5,4.9-2.4,7.7-7.2
		C57.7,40.6,57.7,38.7,57.3,35.1z M52.4,43.9c-2.4,4.2-3.6,4.7-6.3,6c-1.2,0.5-2.7,1.2-4.6,2.3c-1.9,1.1-3.3,2.1-4.4,2.8
		c-2.5,1.8-3.5,2.5-8.3,2.5c-4.8,0-5.8-0.7-8.3-2.5c-1.1-0.8-2.4-1.7-4.4-2.8c-1.9-1.1-3.4-1.8-4.7-2.3c-2.8-1.3-3.9-1.8-6.3-6
		c-2.4-4.2-2.3-5.4-2-8.5c0.1-1.3,0.3-3,0.3-5.2S3.2,26.4,3.1,25c-0.3-3-0.4-4.3,2-8.5c2.4-4.2,3.6-4.7,6.4-6
		c1.2-0.5,2.7-1.2,4.6-2.3c1.9-1.1,3.3-2.1,4.4-2.8c2.5-1.8,3.5-2.5,8.3-2.5c4.8,0,5.8,0.7,8.3,2.5c1.1,0.8,2.4,1.7,4.4,2.8
		c1.9,1.1,3.4,1.8,4.7,2.4c3.1,1.4,4.3,2,6.4,6c2.2,4.4,2.1,5.5,1.9,8.6l0,0c-0.1,1.3-0.2,2.8-0.2,5c0,2.2,0.2,3.9,0.3,5.2
		C54.7,38.5,54.9,39.7,52.4,43.9z"/>
	<path class="st0" d="M13.9,26v19.6h2.2c1.2,0,2.1-0.9,2.1-2V24.4h-2.5C14.7,24.4,13.9,25.1,13.9,26z"/>
	<path class="st0" d="M20.4,17.6v24.9h2.2c1.2,0,2.1-0.9,2.1-2V15.9h-2.5C21.2,15.9,20.4,16.6,20.4,17.6z"/>
	<path class="st0" d="M26.8,11.1v19.6H29c1.2,0,2.1-0.9,2.1-2V9.5h-2.5C27.6,9.5,26.8,10.2,26.8,11.1z"/>
	<path class="st0" d="M33.2,17.6v24.9h2.2c1.2,0,2.1-0.9,2.1-2V15.9H35C34,15.9,33.2,16.6,33.2,17.6z"/>
	<path class="st0" d="M39.7,26v19.6h2.2c1.2,0,2.1-0.9,2.1-2V24.4h-2.5C40.5,24.4,39.7,25.1,39.7,26z"/>
</g>
</svg>
