<svg xmlns="http://www.w3.org/2000/svg" width="207" height="62" viewBox="0 0 207 62" fill="none">
  <g clip-path="url(#clip0_5153_815)">
    <path d="M100.644 18.8838V42.207H104.626V18.8838H100.644ZM147.922 42.207V18.8838H151.903V42.207H147.922ZM84.315 19.2535L76.1348 42.207H80.5515L82.2622 37.2465H91.7488L93.4595 42.207H97.8762L89.6648 19.2535H84.315ZM90.5357 33.6418H83.4752L87.021 23.4437L90.5357 33.6418ZM116.818 42.5767C115.118 42.5767 113.589 42.1916 112.231 41.4213C110.872 40.6511 109.804 39.5984 109.027 38.2633C108.249 36.9282 107.86 35.4185 107.86 33.7342C107.86 32.0499 108.249 30.5454 109.027 29.2205C109.804 27.8957 110.867 26.8482 112.215 26.0779C113.563 25.3077 115.097 24.9225 116.818 24.9225C118.021 24.9225 119.146 25.1331 120.193 25.5542C121.24 25.9752 122.142 26.5606 122.899 27.3103C123.656 28.06 124.211 28.9176 124.563 29.883L121.142 31.5467C120.81 30.6429 120.255 29.9189 119.478 29.3746C118.7 28.8303 117.803 28.5581 116.787 28.5581C115.875 28.5581 115.056 28.7789 114.33 29.2205C113.604 29.6622 113.034 30.2732 112.619 31.0537C112.205 31.8343 111.997 32.738 111.997 33.765C111.997 34.7715 112.205 35.665 112.619 36.4455C113.034 37.226 113.604 37.8422 114.33 38.2941C115.056 38.746 115.885 38.9719 116.818 38.9719C117.855 38.9719 118.752 38.6946 119.509 38.14C120.266 37.5855 120.81 36.8563 121.142 35.9525L124.563 37.6779C124.231 38.6227 123.687 39.4597 122.93 40.1889C122.173 40.9181 121.271 41.4983 120.224 41.9297C119.177 42.361 118.042 42.5767 116.818 42.5767ZM131.033 41.4367C132.401 42.1967 133.925 42.5767 135.605 42.5767C137.284 42.5767 138.809 42.1967 140.177 41.4367C141.546 40.6767 142.64 39.6292 143.459 38.2941C144.278 36.959 144.687 35.439 144.687 33.7342C144.687 32.0499 144.283 30.5402 143.474 29.2051C142.665 27.87 141.572 26.8225 140.193 26.0625C138.814 25.3025 137.284 24.9225 135.605 24.9225C133.925 24.9225 132.401 25.3025 131.033 26.0625C129.664 26.8225 128.575 27.87 127.767 29.2051C126.958 30.5402 126.554 32.0499 126.554 33.7342C126.554 35.439 126.958 36.959 127.767 38.2941C128.575 39.6292 129.664 40.6767 131.033 41.4367ZM194.297 41.3905C195.625 42.1813 197.169 42.5767 198.932 42.5767C200.694 42.5767 202.239 42.1864 203.566 41.4059C204.893 40.6254 205.816 39.6292 206.335 38.4173L203.1 36.846C202.727 37.5238 202.187 38.0733 201.482 38.4944C200.777 38.9154 199.938 39.126 198.963 39.126C197.677 39.126 196.594 38.7408 195.713 37.9706C194.832 37.2003 194.329 36.1682 194.204 34.8742H206.801C206.884 34.6482 206.941 34.3812 206.972 34.0731C207.003 33.765 207.019 33.4672 207.019 33.1796C207.019 31.6802 206.656 30.304 205.93 29.0511C205.204 27.7981 204.214 26.7968 202.959 26.0471C201.705 25.2974 200.269 24.9225 198.652 24.9225C197.035 24.9225 195.578 25.3077 194.282 26.0779C192.986 26.8482 191.96 27.8957 191.203 29.2205C190.446 30.5454 190.067 32.0499 190.067 33.7342C190.067 35.3774 190.441 36.8666 191.187 38.2017C191.934 39.5368 192.97 40.5997 194.297 41.3905ZM161.328 42.1761L158.528 49.0468H162.634L172.276 25.2923H167.953L163.38 37.0925L158.839 25.2923H154.516L161.328 42.1761ZM173.707 42.207V39.0027L182.758 28.8046H174.08V25.2923H187.983V28.4965L179.088 38.6946H188.015V42.207H173.707ZM195.822 29.1281C196.609 28.4811 197.553 28.1576 198.652 28.1576C199.73 28.1576 200.663 28.5068 201.451 29.2051C202.239 29.9035 202.675 30.797 202.758 31.8856H194.297C194.526 30.6943 195.034 29.7751 195.822 29.1281ZM138.155 38.2941C137.409 38.746 136.559 38.9719 135.605 38.9719C134.651 38.9719 133.806 38.746 133.07 38.2941C132.334 37.8422 131.753 37.226 131.328 36.4455C130.903 35.665 130.691 34.7715 130.691 33.765C130.691 32.7586 130.903 31.8651 131.328 31.0845C131.753 30.304 132.334 29.6878 133.07 29.2359C133.806 28.7841 134.651 28.5581 135.605 28.5581C136.559 28.5581 137.409 28.7841 138.155 29.2359C138.902 29.6878 139.488 30.304 139.913 31.0845C140.338 31.8651 140.55 32.7586 140.55 33.765C140.55 34.7715 140.338 35.665 139.913 36.4455C139.488 37.226 138.902 37.8422 138.155 38.2941Z" fill="#1E2749"/>
    <mask id="mask0_5153_815" style="mask-type:luminance" maskUnits="userSpaceOnUse" x="0" y="0" width="58" height="61">
      <path d="M0.373047 0H57.8839V60.4774H0.373047V0Z" fill="white"/>
    </mask>
    <g mask="url(#mask0_5153_815)">
      <path fill-rule="evenodd" clip-rule="evenodd" d="M19.0894 57.4162C21.9806 59.4837 23.6141 60.4774 29.1285 60.4774C34.6429 60.4774 36.2764 59.4837 39.1676 57.4162C40.2458 56.6441 41.4681 55.77 43.284 54.7234C45.1012 53.6754 46.4707 53.0556 47.6781 52.5091C50.9164 51.0437 52.5962 50.1276 55.3528 45.359C58.1106 40.5892 58.0657 38.6794 57.7172 35.1465C57.5878 33.8266 57.4395 32.3328 57.4395 30.2394C57.4395 28.1882 57.5648 26.6807 57.6641 25.4682C57.9595 21.8972 57.98 20.2511 55.4643 15.3236C52.9706 10.4382 50.9886 9.52066 47.7053 8.00094C46.4625 7.42595 45.055 6.77483 43.284 5.75399C41.4681 4.70731 40.2458 3.83327 39.1676 3.06119C36.2764 0.993661 34.6429 0 29.1285 0C23.6141 0 21.9806 0.993661 19.0894 3.06119C18.0113 3.83327 16.7889 4.70731 14.973 5.75399C13.1571 6.80066 11.7864 7.42187 10.5789 7.96832C7.34051 9.43366 5.66074 10.3498 2.90288 15.1196C0.146367 19.8882 0.191288 21.7994 0.539764 25.3322C0.669082 26.6508 0.816095 28.1446 0.816095 30.2394C0.816095 32.3328 0.669082 33.8266 0.539764 35.1465C0.191288 38.6794 0.146367 40.5892 2.90288 45.359C5.66074 50.1276 7.34051 51.0437 10.5789 52.5091C11.7864 53.0556 13.1571 53.6754 14.973 54.7234C16.7889 55.77 18.0113 56.6441 19.0894 57.4162ZM20.7923 5.43591C23.2793 3.65656 24.3084 2.91981 29.1285 2.91981C33.9487 2.91981 34.9778 3.65656 37.4647 5.43591C38.5415 6.20528 39.8823 7.16496 41.8221 8.28368C43.706 9.36978 45.2414 10.0807 46.4761 10.6503C49.5511 12.0735 50.8239 12.6634 52.8589 16.6489C55.0955 21.0328 55.0016 22.1759 54.7515 25.2234L54.7511 25.2289C54.6463 26.4931 54.5156 28.0685 54.5156 30.2394C54.5156 32.4768 54.6776 34.1147 54.8069 35.4319C55.1063 38.4714 55.2302 39.7301 52.8208 43.8978C50.4101 48.0668 49.2571 48.5887 46.4721 49.8489C45.2646 50.3953 43.7617 51.075 41.8221 52.1951C39.8823 53.3125 38.5415 54.2721 37.4647 55.0428C34.9764 56.8209 33.9487 57.5575 29.1285 57.5575C24.3084 57.5575 23.2793 56.8209 20.7923 55.0428C19.7155 54.2721 18.3748 53.3125 16.435 52.1951C14.4952 51.075 12.9923 50.3953 11.785 49.8489C8.9985 48.5887 7.84689 48.0668 5.43614 43.8978C3.02674 39.7301 3.15062 38.4714 3.4501 35.4319C3.57941 34.1147 3.7414 32.4768 3.7414 30.2394C3.7414 28.0019 3.57941 26.3626 3.4501 25.0455C3.15062 22.006 3.02674 20.7472 5.43614 16.5796C7.84689 12.4106 8.99986 11.8899 11.7864 10.6285C12.9923 10.0821 14.4952 9.40239 16.435 8.28368C18.3748 7.16496 19.7155 6.20528 20.7923 5.43591Z" fill="#1E2749"/>
    </g>
    <path d="M14.3159 26.0226V45.6042H16.4886C17.6565 45.6042 18.6061 44.7132 18.6061 43.6189V24.356H16.0946C15.1139 24.356 14.3159 25.1036 14.3159 26.0226Z" fill="#1E2749"/>
    <path d="M20.751 17.5613V42.4168H22.9237C24.0915 42.4168 25.0411 41.5066 25.0411 40.3873V15.8564H22.5297C21.5489 15.8564 20.751 16.6213 20.751 17.5613Z" fill="#1E2749"/>
    <path d="M27.1865 11.1486V30.7302H29.3592C30.5271 30.7302 31.4767 29.8404 31.4767 28.7449V9.48193H28.9652C27.9845 9.48193 27.1865 10.2296 27.1865 11.1486Z" fill="#1E2749"/>
    <path d="M33.6216 17.5613V42.4168H35.7943C36.9621 42.4168 37.9117 41.5066 37.9117 40.3873V15.8564H35.4003C34.4195 15.8564 33.6216 16.6213 33.6216 17.5613Z" fill="#1E2749"/>
    <path d="M40.0566 26.0226V45.6042H42.2294C43.3972 45.6042 44.3468 44.7132 44.3468 43.6189V24.356H41.8353C40.8532 24.356 40.0566 25.1036 40.0566 26.0226Z" fill="#1E2749"/>
  </g>
  <defs>
    <clipPath id="clip0_5153_815">
      <rect width="207" height="61.62" fill="white"/>
    </clipPath>
  </defs>
</svg>