<svg width="87" height="46" viewBox="0 0 87 46" fill="none" xmlns="http://www.w3.org/2000/svg">
<g id="Group">
<path id="Vector" d="M19.3116 45.2937V41.2732L19.2328 41.3077C18.3266 41.7465 17.3409 41.9967 16.3352 42.0432C15.2899 42.1251 14.2511 41.8189 13.4174 41.1832C12.822 40.7236 12.3794 40.0949 12.1474 39.3795C11.8915 38.5999 11.8619 37.7638 12.0622 36.9681C12.2481 36.1543 12.704 35.4274 13.3555 34.9056C13.9333 34.4224 14.6394 34.1179 15.3875 34.0295C16.7096 33.8829 18.0455 34.1333 19.2248 34.7489L19.3116 34.7939V30.7508L19.1283 30.7018C17.9476 30.3226 16.708 30.1603 15.4695 30.2228C14.3414 30.2517 13.2305 30.5059 12.2021 30.9703C11.1638 31.4457 10.2484 32.153 9.52629 33.0376C8.42889 34.4263 7.81982 36.1381 7.79338 37.9079C7.76693 39.6777 8.32458 41.4068 9.38001 42.8277C10.448 44.1939 11.9474 45.1581 13.6336 45.563C15.4108 45.9954 17.2732 45.9295 19.0166 45.3749L19.3116 45.2937Z" fill="#344054"/>
<path id="Vector_2" d="M59.0992 45.2937V41.2732L59.0204 41.3077C58.1142 41.7465 57.1285 41.9967 56.1227 42.0432C55.0775 42.1251 54.0387 41.8189 53.205 41.1832C52.6096 40.7236 52.167 40.0949 51.935 39.3795C51.6791 38.5999 51.6495 37.7638 51.8498 36.9681C52.0357 36.1543 52.4916 35.4274 53.1431 34.9056C53.7209 34.4224 54.427 34.1179 55.1751 34.0295C56.4972 33.8829 57.8331 34.1333 59.0124 34.7489L59.0992 34.7939V30.7508L58.9159 30.7018C57.7352 30.3226 56.4956 30.1603 55.2571 30.2228C54.129 30.2517 53.0181 30.5059 51.9897 30.9703C50.9514 31.4457 50.036 32.153 49.3139 33.0376C48.2165 34.4263 47.6074 36.1381 47.581 37.9079C47.5545 39.6777 48.1122 41.4068 49.1676 42.8277C50.2356 44.1939 51.735 45.1581 53.4212 45.563C55.1984 45.9954 57.0608 45.9295 58.8042 45.3749L59.0992 45.2937Z" fill="#344054"/>
<path id="Vector_3" fill-rule="evenodd" clip-rule="evenodd" d="M33.5096 41.9564L33.4943 45.4191L33.7475 45.4625C34.5425 45.6112 35.3447 45.7141 36.1509 45.772C36.8568 45.8374 37.5665 45.8511 38.2745 45.813C38.9512 45.7647 39.6208 45.6378 40.2678 45.4368C41.0282 45.2219 41.7335 44.846 42.336 44.3348C42.8783 43.8717 43.2929 43.2773 43.54 42.6083C43.9712 41.4883 43.9626 40.2466 43.5159 39.1327C43.281 38.5547 42.9108 38.0414 42.4364 37.6361C41.9779 37.2229 41.4387 36.909 40.853 36.7141L38.2407 35.7448C37.9286 35.6122 37.6753 35.3708 37.5277 35.0656C37.4709 34.9402 37.444 34.8034 37.449 34.6659C37.454 34.5284 37.4909 34.3939 37.5567 34.273C37.6035 34.1872 37.6622 34.1085 37.7311 34.0391C37.8429 33.9249 37.9734 33.8306 38.1169 33.7602C38.4087 33.6156 38.7238 33.5247 39.0477 33.4894C39.6004 33.4096 40.1622 33.4156 40.7131 33.507C41.3642 33.5778 42.0096 33.6927 42.6438 33.8527L42.7789 33.8824V30.6882L42.5297 30.6343C41.8823 30.4794 41.2263 30.3626 40.5652 30.2847C39.7084 30.1702 38.8405 30.1665 37.9827 30.2734C36.896 30.3729 35.8623 30.7887 35.0095 31.4694C34.4313 31.9233 33.9915 32.5296 33.7395 33.2201C33.3604 34.2719 33.3595 35.423 33.7371 36.4754C33.9316 36.9979 34.2435 37.4697 34.6502 37.8531C35.0014 38.1923 35.3993 38.4801 35.8317 38.7091C36.4008 39.0146 37.0037 39.2517 37.6282 39.4149C37.8348 39.4767 38.0397 39.5419 38.2439 39.6102L38.5534 39.7235L38.6418 39.7597C38.9472 39.869 39.2253 40.041 39.46 40.2645C39.6224 40.4172 39.7478 40.6045 39.8258 40.8134C39.874 41.0039 39.8748 41.2033 39.8282 41.3946C39.7304 41.7026 39.5157 41.96 39.2302 42.1116C38.9192 42.2733 38.582 42.3786 38.2343 42.4226C37.7241 42.5036 37.2067 42.5298 36.691 42.5006C36.0147 42.4499 35.3419 42.3602 34.6759 42.2321C34.3279 42.1598 33.9814 42.0794 33.6382 41.9886L33.5096 41.9564ZM24.5522 45.559H28.3541V30.4792H24.5522V45.559ZM68.5667 34.9321C68.973 34.6012 69.4409 34.354 69.9433 34.205C70.4457 34.0559 70.9727 34.0079 71.4938 34.0637C72.0148 34.1195 72.5197 34.2781 72.9791 34.5302C73.4386 34.7823 73.8435 35.1229 74.1705 35.5324C74.4975 35.942 74.74 36.4122 74.8842 36.9161C75.0284 37.4199 75.0712 37.9473 75.0103 38.4679C74.9494 38.9884 74.786 39.4916 74.5294 39.9486C74.2729 40.4056 73.9283 40.8071 73.5156 41.1301C72.692 41.7666 71.6512 42.0538 70.6177 41.9297C69.5843 41.8057 68.641 41.2803 67.9915 40.4669C67.3419 39.6536 67.0382 38.6174 67.1458 37.5821C67.2534 36.5468 67.7638 35.5945 68.5667 34.9321ZM63.0471 38.0259C63.0652 39.2029 63.345 40.3612 63.8662 41.4166C64.3874 42.4721 65.137 43.3984 66.0605 44.1283C66.9841 44.8581 68.0585 45.3733 69.2059 45.6365C70.3532 45.8997 71.5448 45.9042 72.6941 45.6498C74.2379 45.3592 75.6566 44.6057 76.7619 43.4895C77.8672 42.3733 78.6067 40.9472 78.882 39.4006C79.1574 37.8541 78.9557 36.2604 78.3037 34.8312C77.6517 33.4021 76.5802 32.2052 75.2316 31.3995C74.034 30.6582 72.6615 30.247 71.2536 30.2074C69.8456 30.1679 68.4522 30.5015 67.2148 31.1744C65.9774 31.8473 64.94 32.8355 64.2079 34.0388C63.4758 35.2421 63.0751 36.6177 63.0463 38.0259" fill="#344054"/>
<path id="Vector_4" d="M0 18.3605C0.0270663 18.7142 0.153251 19.0531 0.364086 19.3383C0.574922 19.6236 0.861873 19.8436 1.19204 19.9732C1.5222 20.1029 1.88222 20.1368 2.2308 20.0712C2.57939 20.0056 2.90243 19.8431 3.16289 19.6024C3.51173 19.2784 3.72554 18.8348 3.76091 18.3605V14.1808C3.75073 13.6888 3.54815 13.2204 3.1966 12.8761C2.84506 12.5317 2.37255 12.3389 1.88045 12.3389C1.38835 12.3389 0.915851 12.5317 0.564306 12.8761C0.21276 13.2204 0.0101724 13.6888 0 14.1808L0 18.3605Z" fill="#344054"/>
<path id="Vector_5" d="M10.4092 18.3605C10.4452 18.8348 10.659 19.2781 11.0077 19.6016C11.3564 19.9251 11.8144 20.1051 12.29 20.1056C12.7657 20.1055 13.2238 19.9256 13.5725 19.602C13.9211 19.2783 14.1346 18.8349 14.1701 18.3605V8.99082C14.1526 8.50375 13.9469 8.04245 13.5961 7.70404C13.2454 7.36563 12.777 7.17651 12.2896 7.17651C11.8022 7.17651 11.3339 7.36563 10.9831 7.70404C10.6324 8.04245 10.4266 8.50375 10.4092 8.99082V18.3613" fill="#344054"/>
<path id="Vector_6" d="M20.7632 22.1343C20.7973 22.6096 21.0101 23.0544 21.359 23.3792C21.7078 23.7039 22.1667 23.8844 22.6432 23.8844C23.1198 23.8844 23.5787 23.7039 23.9275 23.3792C24.2763 23.0544 24.4892 22.6096 24.5233 22.1343V1.86686C24.4989 1.38471 24.2901 0.930372 23.9402 0.597751C23.5903 0.265129 23.126 0.0796509 22.6432 0.0796509C22.1605 0.0796509 21.6961 0.265129 21.3462 0.597751C20.9963 0.930372 20.7876 1.38471 20.7632 1.86686V22.1343Z" fill="#344054"/>
<path id="Vector_7" d="M31.207 18.3605C31.2431 18.8348 31.4568 19.2781 31.8055 19.6016C32.1542 19.9251 32.6122 20.1051 33.0879 20.1056C33.5636 20.1055 34.0217 19.9256 34.3703 19.602C34.719 19.2783 34.9325 18.8349 34.9679 18.3605V8.99082C34.9505 8.50375 34.7447 8.04245 34.394 7.70404C34.0432 7.36563 33.5749 7.17651 33.0875 7.17651C32.6001 7.17651 32.1317 7.36563 31.781 7.70404C31.4302 8.04245 31.2245 8.50375 31.207 8.99082V18.3613" fill="#344054"/>
<path id="Vector_8" d="M41.5957 18.3605C41.6228 18.7142 41.749 19.0531 41.9598 19.3383C42.1706 19.6236 42.4576 19.8436 42.7877 19.9732C43.1179 20.1029 43.4779 20.1368 43.8265 20.0712C44.1751 20.0056 44.4981 19.8431 44.7586 19.6024C45.1074 19.2784 45.3212 18.8348 45.3566 18.3605V14.1808C45.3464 13.6888 45.1438 13.2204 44.7923 12.8761C44.4408 12.5317 43.9683 12.3389 43.4762 12.3389C42.9841 12.3389 42.5116 12.5317 42.16 12.8761C41.8085 13.2204 41.6059 13.6888 41.5957 14.1808V18.3605Z" fill="#344054"/>
<path id="Vector_9" d="M52.0049 18.3605C52.0409 18.8348 52.2547 19.2781 52.6034 19.6016C52.9521 19.9251 53.4101 20.1051 53.8857 20.1056C54.3614 20.1055 54.8195 19.9256 55.1682 19.602C55.5168 19.2783 55.7303 18.8349 55.7658 18.3605V8.99082C55.7483 8.50375 55.5426 8.04245 55.1918 7.70404C54.8411 7.36563 54.3727 7.17651 53.8853 7.17651C53.398 7.17651 52.9296 7.36563 52.5788 7.70404C52.2281 8.04245 52.0223 8.50375 52.0049 8.99082V18.3613" fill="#344054"/>
<path id="Vector_10" d="M62.3594 22.1343C62.3934 22.6096 62.6063 23.0544 62.9551 23.3792C63.304 23.7039 63.7629 23.8844 64.2394 23.8844C64.716 23.8844 65.1749 23.7039 65.5237 23.3792C65.8725 23.0544 66.0854 22.6096 66.1195 22.1343V1.86686C66.095 1.38471 65.8863 0.930372 65.5364 0.597751C65.1865 0.265129 64.7222 0.0796509 64.2394 0.0796509C63.7567 0.0796509 63.2923 0.265129 62.9424 0.597751C62.5925 0.930372 62.3838 1.38471 62.3594 1.86686V22.1343Z" fill="#344054"/>
<path id="Vector_11" d="M72.8027 18.3605C72.8388 18.8348 73.0525 19.2781 73.4012 19.6016C73.7499 19.9251 74.2079 20.1051 74.6836 20.1056C75.1593 20.1055 75.6174 19.9256 75.966 19.602C76.3147 19.2783 76.5282 18.8349 76.5636 18.3605V8.99082C76.5462 8.50375 76.3404 8.04245 75.9897 7.70404C75.6389 7.36563 75.1706 7.17651 74.6832 7.17651C74.1958 7.17651 73.7274 7.36563 73.3767 7.70404C73.0259 8.04245 72.8202 8.50375 72.8027 8.99082V18.3613" fill="#344054"/>
<path id="Vector_12" d="M83.0913 18.3605C83.1184 18.7142 83.2446 19.0531 83.4554 19.3383C83.6662 19.6236 83.9532 19.8436 84.2833 19.9732C84.6135 20.1029 84.9735 20.1368 85.3221 20.0712C85.6707 20.0056 85.9937 19.8431 86.2542 19.6024C86.603 19.2784 86.8168 18.8348 86.8522 18.3605V14.1808C86.842 13.6888 86.6395 13.2204 86.2879 12.8761C85.9364 12.5317 85.4639 12.3389 84.9718 12.3389C84.4797 12.3389 84.0072 12.5317 83.6556 12.8761C83.3041 13.2204 83.1015 13.6888 83.0913 14.1808V18.3605Z" fill="#344054"/>
</g>
</svg>
