<svg xmlns="http://www.w3.org/2000/svg" width="162" height="85" viewBox="0 0 162 85" fill="none">
<path d="M35.8684 83.9758V76.5085L35.7221 76.5727C34.0391 77.3876 32.2082 77.8523 30.3404 77.9387C28.399 78.0909 26.4697 77.5222 24.9213 76.3413C23.8155 75.4878 22.9933 74.3201 22.5625 72.9914C22.0872 71.5435 22.0323 69.9905 22.4043 68.5128C22.7496 67.0013 23.5962 65.6512 24.8063 64.6821C25.8795 63.7845 27.1909 63.2191 28.5803 63.0549C31.0359 62.7825 33.517 63.2477 35.7072 64.391L35.8684 64.4746V56.9655L35.528 56.8744C33.3352 56.1701 31.0328 55.8686 28.7325 55.9847C26.6374 56.0385 24.5742 56.5105 22.6641 57.373C20.7357 58.2561 19.0355 59.5696 17.6943 61.2127C15.6561 63.7919 14.5249 66.9711 14.4758 70.2581C14.4267 73.5452 15.4624 76.7567 17.4226 79.3957C19.4063 81.9333 22.191 83.724 25.3228 84.4759C28.6236 85.2791 32.0825 85.1567 35.3205 84.1266L35.8684 83.9758Z" fill="#1E4471"/>
<path d="M109.764 83.9758V76.5085L109.618 76.5727C107.935 77.3876 106.104 77.8523 104.236 77.9387C102.295 78.0909 100.366 77.5222 98.8173 76.3413C97.7115 75.4878 96.8893 74.3201 96.4585 72.9914C95.9832 71.5435 95.9283 69.9905 96.3003 68.5128C96.6456 67.0013 97.4922 65.6512 98.7023 64.6821C99.7755 63.7845 101.087 63.2191 102.476 63.0549C104.932 62.7825 107.413 63.2477 109.603 64.391L109.764 64.4746V56.9655L109.424 56.8744C107.231 56.1701 104.929 55.8686 102.629 55.9847C100.533 56.0385 98.4702 56.5105 96.5601 57.373C94.6317 58.2561 92.9315 59.5696 91.5903 61.2127C89.5521 63.7919 88.4209 66.9711 88.3718 70.2581C88.3227 73.5452 89.3584 76.7567 91.3186 79.3957C93.3023 81.9333 96.087 83.724 99.2188 84.4759C102.52 85.2791 105.979 85.1567 109.217 84.1266L109.764 83.9758Z" fill="#1E4471"/>
<path fill-rule="evenodd" clip-rule="evenodd" d="M62.2375 77.7772L62.2092 84.2085L62.6794 84.2891C64.1559 84.5653 65.6457 84.7564 67.1431 84.8639C68.4542 84.9853 69.7724 85.0107 71.0872 84.94C72.3442 84.8504 73.5878 84.6146 74.7895 84.2413C76.2017 83.8421 77.5117 83.1441 78.6306 82.1946C79.6379 81.3345 80.4079 80.2304 80.867 78.988C81.6677 76.9078 81.6517 74.6017 80.8222 72.5328C80.3859 71.4592 79.6983 70.506 78.8173 69.7531C77.9655 68.9856 76.9642 68.4026 75.8763 68.0408L71.0245 66.2404C70.445 65.9941 69.9744 65.5459 69.7003 64.9789C69.5949 64.7461 69.5448 64.492 69.5542 64.2366C69.5635 63.9812 69.6319 63.7315 69.7541 63.507C69.8411 63.3476 69.9501 63.2014 70.078 63.0726C70.2857 62.8604 70.5281 62.6852 70.7946 62.5545C71.3365 62.2858 71.9217 62.1171 72.5234 62.0514C73.55 61.9034 74.5933 61.9144 75.6166 62.0843C76.8258 62.2156 78.0245 62.4291 79.2024 62.7262L79.4532 62.7814V56.8488L78.9904 56.7488C77.788 56.461 76.5697 56.2442 75.3419 56.0994C73.7505 55.8869 72.1384 55.8798 70.5453 56.0785C68.5271 56.2633 66.6072 57.0356 65.0232 58.2999C63.9494 59.1428 63.1325 60.2689 62.6645 61.5513C61.9603 63.5049 61.9587 65.6428 62.66 67.5974C63.0213 68.5678 63.6005 69.4441 64.3559 70.1562C65.0083 70.7862 65.7472 71.3206 66.5504 71.7461C67.6074 72.3134 68.727 72.7538 69.887 73.0568C70.2706 73.1718 70.6513 73.2927 71.0305 73.4196L71.6052 73.6301L71.7695 73.6973C72.3367 73.9003 72.8533 74.2198 73.2892 74.6348C73.5907 74.9184 73.8236 75.2662 73.9684 75.6544C74.058 76.0082 74.0595 76.3784 73.9729 76.7337C73.7913 77.3059 73.3925 77.784 72.8622 78.0654C72.2846 78.3657 71.6584 78.5613 71.0126 78.6431C70.0651 78.7936 69.1041 78.8421 68.1463 78.7879C66.8902 78.6937 65.6406 78.5272 64.4037 78.2893C63.7573 78.1549 63.1138 78.0057 62.4764 77.837L62.2375 77.7772ZM45.6011 84.4682H52.6623V56.4607H45.6011V84.4682ZM127.349 64.7311C128.103 64.1164 128.972 63.6574 129.905 63.3805C130.839 63.1037 131.817 63.0145 132.785 63.1182C133.753 63.2218 134.691 63.5163 135.544 63.9845C136.397 64.4527 137.149 65.0854 137.757 65.8461C138.364 66.6067 138.814 67.4801 139.082 68.4159C139.35 69.3517 139.43 70.3312 139.316 71.298C139.203 72.2647 138.9 73.1994 138.423 74.0481C137.947 74.8969 137.307 75.6427 136.54 76.2426C135.011 77.4247 133.078 77.9581 131.158 77.7277C129.239 77.4972 127.487 76.5214 126.28 75.0108C125.074 73.5001 124.51 71.5758 124.71 69.6529C124.91 67.7301 125.857 65.9614 127.349 64.7311ZM117.097 70.4771C117.131 72.6632 117.65 74.8144 118.619 76.7747C119.587 78.735 120.979 80.4554 122.694 81.811C124.409 83.1666 126.405 84.1234 128.536 84.6122C130.667 85.101 132.88 85.1095 135.015 84.6369C137.882 84.0972 140.517 82.6978 142.57 80.6246C144.622 78.5515 145.996 75.9027 146.507 73.0304C147.019 70.158 146.644 67.198 145.433 64.5437C144.222 61.8893 142.232 59.6663 139.728 58.17C137.503 56.7932 134.954 56.0294 132.339 55.9559C129.724 55.8825 127.136 56.5021 124.838 57.7519C122.54 59.0016 120.613 60.8371 119.253 63.072C117.894 65.3069 117.149 67.8617 117.096 70.4771" fill="#1E4471"/>
<path d="M0 33.953C0.05027 34.6099 0.284632 35.2393 0.676215 35.7691C1.0678 36.2988 1.60075 36.7075 2.21396 36.9483C2.82717 37.1891 3.49583 37.2521 4.14325 37.1303C4.79067 37.0085 5.39066 36.7067 5.87441 36.2595C6.52231 35.6579 6.91941 34.8338 6.9851 33.953V26.1901C6.96621 25.2764 6.58994 24.4064 5.93702 23.7668C5.2841 23.1272 4.40652 22.769 3.49255 22.769C2.57858 22.769 1.701 23.1272 1.04808 23.7668C0.395158 24.4064 0.0188931 25.2764 0 26.1901L0 33.953Z" fill="#1E4471"/>
<path d="M19.3335 33.9529C19.4004 34.8338 19.7974 35.657 20.4451 36.2579C21.0927 36.8588 21.9433 37.1931 22.8268 37.1939C23.7103 37.1937 24.5611 36.8596 25.2087 36.2586C25.8562 35.6575 26.2527 34.834 26.3186 33.9529V16.5506C26.2862 15.646 25.904 14.7892 25.2526 14.1607C24.6012 13.5321 23.7313 13.1809 22.826 13.1809C21.9208 13.1809 21.0509 13.5321 20.3995 14.1607C19.748 14.7892 19.3659 15.646 19.3335 16.5506V33.9544" fill="#1E4471"/>
<path d="M38.5635 40.9619C38.6268 41.8448 39.0221 42.6709 39.67 43.274C40.3179 43.8771 41.1701 44.2124 42.0553 44.2124C42.9404 44.2124 43.7927 43.8771 44.4406 43.274C45.0884 42.6709 45.4838 41.8448 45.5471 40.9619V3.31937C45.5017 2.42388 45.114 1.58004 44.4642 0.962263C43.8143 0.344487 42.9519 0 42.0553 0C41.1586 0 40.2963 0.344487 39.6464 0.962263C38.9965 1.58004 38.6088 2.42388 38.5635 3.31937V40.9619Z" fill="#1E4471"/>
<path d="M57.9609 33.9529C58.0279 34.8338 58.4249 35.657 59.0725 36.2579C59.7202 36.8588 60.5708 37.1931 61.4542 37.1939C62.3377 37.1937 63.1885 36.8596 63.8361 36.2586C64.4837 35.6575 64.8801 34.834 64.946 33.9529V16.5506C64.9136 15.646 64.5315 14.7892 63.8801 14.1607C63.2286 13.5321 62.3587 13.1809 61.4535 13.1809C60.5483 13.1809 59.6784 13.5321 59.0269 14.1607C58.3755 14.7892 57.9933 15.646 57.9609 16.5506V33.9544" fill="#1E4471"/>
<path d="M77.2559 33.953C77.3061 34.6099 77.5405 35.2393 77.9321 35.7691C78.3237 36.2988 78.8566 36.7075 79.4698 36.9483C80.083 37.1891 80.7517 37.2521 81.3991 37.1303C82.0465 37.0085 82.6465 36.7067 83.1303 36.2595C83.7782 35.6579 84.1753 34.8338 84.241 33.953V26.1901C84.2221 25.2764 83.8458 24.4064 83.1929 23.7668C82.54 23.1272 81.6624 22.769 80.7484 22.769C79.8344 22.769 78.9569 23.1272 78.3039 23.7668C77.651 24.4064 77.2748 25.2764 77.2559 26.1901V33.953Z" fill="#1E4471"/>
<path d="M96.5879 33.9529C96.6548 34.8338 97.0518 35.657 97.6995 36.2579C98.3471 36.8588 99.1977 37.1931 100.081 37.1939C100.965 37.1937 101.816 36.8596 102.463 36.2586C103.111 35.6575 103.507 34.834 103.573 33.9529V16.5506C103.541 15.646 103.158 14.7892 102.507 14.1607C101.856 13.5321 100.986 13.1809 100.08 13.1809C99.1752 13.1809 98.3053 13.5321 97.6539 14.1607C97.0024 14.7892 96.6203 15.646 96.5879 16.5506V33.9544" fill="#1E4471"/>
<path d="M115.819 40.9619C115.883 41.8448 116.278 42.6709 116.926 43.274C117.574 43.8771 118.426 44.2124 119.311 44.2124C120.196 44.2124 121.049 43.8771 121.696 43.274C122.344 42.6709 122.74 41.8448 122.803 40.9619V3.31937C122.758 2.42388 122.37 1.58004 121.72 0.962263C121.07 0.344487 120.208 0 119.311 0C118.414 0 117.552 0.344487 116.902 0.962263C116.252 1.58004 115.865 2.42388 115.819 3.31937V40.9619Z" fill="#1E4471"/>
<path d="M135.216 33.9529C135.283 34.8338 135.68 35.657 136.328 36.2579C136.976 36.8588 137.826 37.1931 138.71 37.1939C139.593 37.1937 140.444 36.8596 141.091 36.2586C141.739 35.6575 142.136 34.834 142.201 33.9529V16.5506C142.169 15.646 141.787 14.7892 141.135 14.1607C140.484 13.5321 139.614 13.1809 138.709 13.1809C137.804 13.1809 136.934 13.5321 136.282 14.1607C135.631 14.7892 135.249 15.646 135.216 16.5506V33.9544" fill="#1E4471"/>
<path d="M154.324 33.953C154.374 34.6099 154.609 35.2393 155 35.7691C155.392 36.2988 155.925 36.7075 156.538 36.9483C157.151 37.1891 157.82 37.2521 158.467 37.1303C159.115 37.0085 159.715 36.7067 160.199 36.2595C160.847 35.6579 161.244 34.8338 161.309 33.953V26.1901C161.29 25.2764 160.914 24.4064 160.261 23.7668C159.608 23.1272 158.731 22.769 157.817 22.769C156.903 22.769 156.025 23.1272 155.372 23.7668C154.719 24.4064 154.343 25.2764 154.324 26.1901V33.953Z" fill="#1E4471"/>
</svg>