<svg width="46" height="48" fill="none" xmlns="http://www.w3.org/2000/svg"><mask id="a" style="mask-type:luminance" maskUnits="userSpaceOnUse" x="0" y="0" width="46" height="48"><path d="M.113 0h45.144v47.925H.113V0Z" fill="#fff"/></mask><g mask="url(#a)"><path fill-rule="evenodd" clip-rule="evenodd" d="M14.805 45.499c2.27 1.638 3.552 2.426 7.88 2.426 4.329 0 5.611-.788 7.88-2.426.847-.612 1.806-1.305 3.232-2.134 1.426-.83 2.501-1.322 3.449-1.755 2.542-1.16 3.86-1.887 6.024-5.666 2.165-3.78 2.13-5.293 1.856-8.093-.101-1.045-.218-2.23-.218-3.888 0-1.626.099-2.82.176-3.78.232-2.83.248-4.135-1.726-8.04-1.958-3.871-3.514-4.598-6.09-5.803-.976-.455-2.081-.971-3.471-1.78-1.426-.83-2.385-1.522-3.231-2.134C28.296.787 27.014 0 22.686 0c-4.33 0-5.612.787-7.881 2.426-.846.612-1.806 1.304-3.231 2.134-1.426.83-2.502 1.321-3.45 1.754-2.542 1.162-3.86 1.888-6.025 5.667-2.164 3.78-2.128 5.294-1.855 8.093.102 1.045.217 2.229.217 3.889 0 1.659-.115 2.843-.217 3.889-.273 2.8-.309 4.313 1.855 8.092 2.165 3.78 3.483 4.505 6.025 5.666.948.434 2.024.925 3.45 1.755 1.425.83 2.385 1.522 3.23 2.134Zm1.337-41.191c1.952-1.41 2.76-1.994 6.543-1.994 3.784 0 4.592.584 6.544 1.994.845.61 1.898 1.37 3.42 2.256 1.479.861 2.684 1.424 3.653 1.876 2.414 1.128 3.413 1.595 5.01 4.753 1.756 3.474 1.683 4.38 1.486 6.795v.005c-.082 1.001-.185 2.25-.185 3.97 0 1.773.127 3.071.229 4.115.235 2.408.332 3.406-1.56 6.708-1.892 3.304-2.797 3.718-4.983 4.716-.948.433-2.127.972-3.65 1.86-1.523.885-2.575 1.645-3.42 2.256-1.953 1.41-2.76 1.993-6.544 1.993-3.783 0-4.591-.584-6.543-1.993-.846-.61-1.898-1.371-3.42-2.256-1.523-.888-2.703-1.427-3.65-1.86-2.188-.998-3.092-1.412-4.984-4.716-1.892-3.302-1.794-4.3-1.56-6.708.102-1.044.23-2.342.23-4.115 0-1.773-.128-3.072-.23-4.116-.234-2.409-.332-3.406 1.56-6.709C5.98 9.835 6.885 9.422 9.072 8.422c.947-.433 2.127-.971 3.65-1.858 1.522-.886 2.574-1.647 3.42-2.256Z" fill="#344054"/></g><path d="M11.058 20.621v15.517h1.706c.916 0 1.662-.706 1.662-1.573V19.3h-1.972c-.77 0-1.396.593-1.396 1.321Zm5.052-6.705v19.697h1.705c.917 0 1.662-.721 1.662-1.609V12.565h-1.971c-.77 0-1.397.606-1.397 1.351Zm5.05-5.081v15.517h1.706c.917 0 1.662-.705 1.662-1.573V7.514h-1.971c-.77 0-1.396.592-1.396 1.32Zm5.052 5.081v19.697h1.706c.917 0 1.662-.721 1.662-1.609V12.565h-1.971c-.77 0-1.397.606-1.397 1.351Zm5.052 6.705v15.517h1.705c.917 0 1.662-.706 1.662-1.573V19.3H32.66c-.771 0-1.396.593-1.396 1.321Z" fill="#344054"/></svg>