<svg xmlns="http://www.w3.org/2000/svg" width="207" height="62" fill="none"><path d="M100.271 18.963v23.323h3.982V18.963h-3.982Zm47.278 23.323V18.963h3.981v23.323h-3.981ZM83.942 19.333l-8.18 22.953h4.416l1.711-4.96h9.487l1.71 4.96h4.417l-8.211-22.953h-5.35Zm6.22 14.388h-7.06l3.546-10.198 3.515 10.198Zm26.283 8.935c-1.7 0-3.229-.385-4.588-1.155a8.477 8.477 0 0 1-3.203-3.158c-.778-1.335-1.167-2.845-1.167-4.53 0-1.684.389-3.188 1.167-4.513a8.543 8.543 0 0 1 3.188-3.143c1.348-.77 2.882-1.155 4.603-1.155 1.203 0 2.328.21 3.375.632a8.081 8.081 0 0 1 2.706 1.756 6.93 6.93 0 0 1 1.664 2.572l-3.421 1.664a4.471 4.471 0 0 0-1.664-2.172c-.778-.544-1.675-.816-2.691-.816-.912 0-1.731.22-2.457.662a4.656 4.656 0 0 0-1.711 1.833c-.414.78-.622 1.685-.622 2.712 0 1.006.208 1.9.622 2.68a4.77 4.77 0 0 0 1.711 1.849c.726.452 1.555.677 2.488.677 1.037 0 1.934-.277 2.691-.831a4.623 4.623 0 0 0 1.633-2.188l3.421 1.726a6.4 6.4 0 0 1-1.633 2.51 8.545 8.545 0 0 1-2.706 1.741c-1.047.432-2.182.647-3.406.647Zm14.215-1.14c1.368.76 2.892 1.14 4.572 1.14 1.679 0 3.204-.38 4.572-1.14a8.806 8.806 0 0 0 3.282-3.142c.819-1.335 1.228-2.855 1.228-4.56 0-1.684-.404-3.194-1.213-4.53a8.65 8.65 0 0 0-3.281-3.142c-1.379-.76-2.909-1.14-4.588-1.14-1.68 0-3.204.38-4.572 1.14a8.674 8.674 0 0 0-3.266 3.143c-.809 1.335-1.213 2.845-1.213 4.529 0 1.705.404 3.225 1.213 4.56a8.674 8.674 0 0 0 3.266 3.142Zm63.264-.046c1.327.79 2.872 1.186 4.635 1.186 1.762 0 3.307-.39 4.634-1.17 1.327-.781 2.25-1.777 2.769-2.99l-3.235-1.57a4.35 4.35 0 0 1-1.618 1.648c-.705.421-1.544.632-2.519.632-1.286 0-2.369-.386-3.25-1.156-.881-.77-1.385-1.802-1.509-3.096h12.597a3.29 3.29 0 0 0 .171-.801c.031-.308.047-.606.047-.894 0-1.5-.363-2.875-1.089-4.128a8.288 8.288 0 0 0-2.971-3.004c-1.254-.75-2.69-1.125-4.307-1.125-1.617 0-3.074.385-4.37 1.155a8.49 8.49 0 0 0-3.079 3.143c-.757 1.325-1.136 2.83-1.136 4.514 0 1.643.374 3.132 1.12 4.467a8.466 8.466 0 0 0 3.11 3.19Zm-32.969.786-2.8 6.87h4.106l9.642-23.754h-4.323l-4.573 11.8-4.541-11.8h-4.323l6.812 16.884Zm12.379.03v-3.204l9.051-10.198h-8.678v-3.512h13.903v3.204l-8.895 10.198h8.926v3.512h-14.307Zm22.114-13.078c.788-.647 1.732-.97 2.831-.97 1.078 0 2.011.348 2.799 1.047.788.698 1.224 1.592 1.307 2.68h-8.461c.228-1.191.737-2.11 1.524-2.757Zm-57.666 9.166c-.746.452-1.596.677-2.55.677-.954 0-1.799-.225-2.535-.677a4.846 4.846 0 0 1-1.742-1.849c-.425-.78-.638-1.674-.638-2.68 0-1.007.213-1.9.638-2.68a4.846 4.846 0 0 1 1.742-1.85c.736-.451 1.581-.677 2.535-.677.954 0 1.804.226 2.55.677a4.804 4.804 0 0 1 1.758 1.85c.425.78.637 1.673.637 2.68 0 1.006-.212 1.9-.637 2.68a4.804 4.804 0 0 1-1.758 1.849Z" fill="#1E2749"/><mask id="a" style="mask-type:luminance" maskUnits="userSpaceOnUse" x="0" y="0" width="58" height="61"><path d="M0 .08h57.51v60.477H0V.08Z" fill="#fff"/></mask><g mask="url(#a)"><path fill-rule="evenodd" clip-rule="evenodd" d="M18.716 57.496c2.892 2.067 4.525 3.061 10.04 3.061 5.514 0 7.147-.994 10.039-3.061 1.078-.772 2.3-1.646 4.116-2.693 1.817-1.048 3.187-1.668 4.394-2.214 3.238-1.466 4.918-2.382 7.675-7.15 2.758-4.77 2.713-6.68 2.364-10.213-.13-1.32-.278-2.814-.278-4.907 0-2.051.126-3.559.225-4.771.295-3.571.316-5.217-2.2-10.145-2.494-4.885-4.475-5.803-7.759-7.322-1.242-.575-2.65-1.227-4.421-2.247-1.816-1.047-3.038-1.921-4.116-2.693C35.903 1.073 34.27.08 28.755.08c-5.514 0-7.147.993-10.039 3.06-1.078.773-2.3 1.647-4.116 2.694-1.816 1.046-3.187 1.667-4.394 2.214-3.239 1.465-4.918 2.381-7.676 7.151C-.227 19.968-.182 21.88.167 25.412c.129 1.318.276 2.812.276 4.907 0 2.093-.147 3.587-.276 4.907-.349 3.533-.394 5.443 2.363 10.213 2.758 4.768 4.437 5.684 7.676 7.15 1.207.546 2.578 1.166 4.394 2.214 1.816 1.047 3.038 1.92 4.116 2.693Zm1.703-51.98c2.487-1.78 3.516-2.517 8.336-2.517s5.85.737 8.337 2.517c1.076.769 2.417 1.729 4.357 2.847 1.884 1.086 3.42 1.797 4.654 2.367 3.075 1.423 4.348 2.013 6.383 5.998 2.236 4.384 2.143 5.527 1.893 8.575l-.001.005c-.105 1.265-.236 2.84-.236 5.011 0 2.237.163 3.875.292 5.192.3 3.04.423 4.299-1.986 8.466-2.411 4.17-3.564 4.691-6.349 5.952-1.207.546-2.71 1.226-4.65 2.346-1.94 1.117-3.28 2.077-4.357 2.847-2.489 1.779-3.516 2.515-8.337 2.515-4.82 0-5.849-.736-8.336-2.515-1.076-.77-2.417-1.73-4.357-2.847-1.94-1.12-3.443-1.8-4.65-2.346-2.787-1.26-3.938-1.783-6.349-5.952-2.41-4.167-2.285-5.426-1.986-8.465.13-1.318.291-2.956.291-5.193 0-2.238-.162-3.877-.291-5.194-.3-3.04-.423-4.298 1.986-8.466 2.41-4.169 3.564-4.69 6.35-5.95 1.206-.547 2.71-1.227 4.649-2.346 1.94-1.118 3.28-2.078 4.357-2.847Z" fill="#1E2749"/></g><path d="M13.943 26.102v19.582h2.173c1.167 0 2.117-.891 2.117-1.985V24.436h-2.511c-.981 0-1.78.747-1.78 1.666Zm6.435-8.462v24.856h2.173c1.168 0 2.117-.91 2.117-2.03v-24.53h-2.511c-.981 0-1.78.765-1.78 1.705Zm6.436-6.412V30.81h2.172c1.168 0 2.118-.89 2.118-1.985V9.561h-2.512c-.98 0-1.778.747-1.778 1.666Zm6.434 6.412v24.856h2.173c1.168 0 2.118-.91 2.118-2.03v-24.53h-2.512c-.98 0-1.779.765-1.779 1.705Zm6.436 8.462v19.582h2.172c1.168 0 2.118-.891 2.118-1.985V24.436h-2.512c-.982 0-1.778.747-1.778 1.666Z" fill="#1E2749"/></svg>