<svg width="18" height="24" fill="none" xmlns="http://www.w3.org/2000/svg"><path d="M17.11 5.906c.562.563.89 1.313.89 2.11V21c0 1.688-1.36 3-3 3H3c-1.688 0-3-1.313-3-3V3c0-1.64 1.313-3 3-3h6.984c.797 0 1.547.328 2.11.89l5.015 5.016ZM10.5 1.641V6.75c0 .422.328.75.75.75h5.11a1.179 1.179 0 0 0-.329-.563L11.063 1.97a1.18 1.18 0 0 0-.563-.328ZM16.5 21V9h-5.25A2.221 2.221 0 0 1 9 6.75V1.5H3c-.844 0-1.5.703-1.5 1.5v18c0 .844.656 1.5 1.5 1.5h12c.797 0 1.5-.656 1.5-1.5Zm-7.031-7.406c.328.562.75 1.078 1.219 1.5.562-.094 1.687-.281 2.437-.281 1.031 0 1.875.843 1.875 1.828 0 .984-.797 1.78-1.828 1.78-.985 0-2.39-.843-2.953-1.218-1.031.235-1.922.469-2.719.797-.656 1.125-1.219 1.969-1.5 2.344A1.733 1.733 0 0 1 4.64 21C3.704 21 3 20.297 3 19.36c0-.47.14-.891.469-1.22.656-.656 1.547-1.218 2.625-1.734.468-.89.89-1.828 1.218-2.718-.656-1.641-.656-3-.656-3 0-.938.75-1.688 1.64-1.688.938 0 1.688.75 1.688 1.688 0 .234-.046 1.406-.515 2.906Zm-4.547 5.953c.187-.281.562-.797 1.031-1.594-.562.328-1.125.703-1.547 1.172-.047.047-.093.094-.093.188 0 .375.421.468.609.234Zm3.375-9.188a.32.32 0 0 0-.328.329c0 .046 0 .937.375 2.015.094-.375.281-1.312.281-2.015a.32.32 0 0 0-.328-.329ZM7.5 16.547c.75-.235 1.5-.422 2.203-.61-.515-.468-.937-.984-1.219-1.5-.328.75-.656 1.5-.984 2.11Zm5.625-.375c-.563 0-1.781.187-1.828.187.469.282 1.453.75 1.875.75.281 0 .469-.187.469-.422 0-.328-.235-.515-.516-.515Z" fill="#98A2B3"/></svg>