<svg width="97" height="41" fill="none" xmlns="http://www.w3.org/2000/svg"><path d="M83.086 18.429c-1.624.373-5.9.588-5.9.588l-.54 1.699s2.131-.181 3.688-.023c0 0 .507-.056.564.578.022.588-.045 1.222-.045 1.222s-.034.385-.576.476c-.586.102-4.602.25-4.602.25l-.654 2.207s-.237.51.305.362c.508-.136 4.715-.928 5.267-.815.587.147 1.24.928 1.05 1.653-.226.883-4.422 3.578-6.983 3.385 0 0-1.342.091-2.481-1.732-1.06-1.732.406-5.027.406-5.027s-.665-1.54-.18-2.05c0 0 .293-.26 1.127-.328l1.027-2.14s-1.173.08-1.872-.78c-.655-.827-.7-1.2-.203-1.427.53-.26 5.413-1.155 8.775-1.042 0 0 1.173-.113 2.177 1.925-.012 0 .485.826-.35 1.019Zm-12.644 8.22c-.428 1.019-1.568 2.106-2.978 1.426-1.398-.679-3.62-5.242-3.62-5.242s-.846-1.698-1.004-1.664c0 0-.18-.329-.293 1.528-.113 1.857.022 5.469-.71 6.035-.7.566-1.546.34-1.986-.328-.395-.657-.564-2.22-.35-4.96.26-2.74.891-5.66 1.704-6.578.812-.905 1.466-.249 1.714-.011 0 0 1.083.985 2.876 3.883l.316.533s1.624 2.74 1.793 2.728c0 0 .136.125.248.034.17-.045.102-.928.102-.928s-.338-2.978-1.816-8.028c0 0-.226-.634-.068-1.222.147-.6.745-.318.745-.318s2.3 1.155 3.406 4.914c1.094 3.793.35 7.179-.079 8.198ZM59.14 16.99c-.191.385-.304.94-1.274 1.087 0 0-9.283.634-9.723 1.29 0 0-.327.386.18.499.508.102 2.606.385 3.621.441 1.083.012 4.738.046 6.046 1.687 0 0 .778.781.744 2.548-.033 1.811-.35 2.445-1.049 3.102-.733.611-7.026 3.442-11.087-.906 0 0-1.872-2.094.643-3.68 0 0 1.816-1.098 6.43.193 0 0 1.398.51 1.33 1.019-.079.543-1.15 1.12-2.707 1.087-1.511-.045-2.617-.77-2.402-.657.203.08-1.625-.883-2.189-.226-.564.6-.428.974.124 1.347 1.41.804 6.858.521 8.482-1.29 0 0 .643-.736-.338-1.337-.981-.566-3.79-.905-4.884-.962-1.049-.057-4.951.011-5.515-1.03 0 0-.564-.702.056-2.695.654-2.083 5.2-2.887 7.162-3.068 0 0 5.403-.193 6.396.917-.012 0 .124.26-.046.634ZM43.8 29.207c-.653.487-2.04.272-2.435-.271-.395-.487-.53-2.423-.452-5.457.08-3.069.147-6.873.801-7.473.7-.612 1.128-.08 1.399.34.293.407.643.86.722 1.822.067.963.293 6.012.293 6.012s.293 4.552-.327 5.027Zm1.41-16.28c-1.905.633-3.214.418-4.32-.057-.484.849-.766 1.11-1.138 1.166-.542.056-1.027-.816-1.117-1.098-.09-.216-.35-.578-.034-1.439-1.082-.973-1.161-2.287-.981-3.17.27-1.019 2.098-4.89 7.659-5.344 0 0 2.718-.204 3.18 1.257h.08s2.638.011 2.582 2.366c-.034 2.367-2.933 5.31-5.91 6.318Zm-5.188-5.243c-.563.906-.586 1.45-.327 1.823.643-.985 1.816-2.536 3.542-3.714-1.331.113-2.448.69-3.215 1.89Zm7.681-1.517c-1.748.26-4.455 2.615-5.74 4.54 1.973.362 5.459.226 7.004-2.932-.012 0 .733-1.96-1.264-1.608Zm47.463 18.24c-1.05 1.834-3.993 5.661-7.918 4.767-1.297 3.159-2.38 6.34-3 11.118 0 0-.136.928-.903.6-.755-.272-2.019-1.54-2.267-3.295-.27-2.31.756-6.216 2.843-10.688-.61-.996-1.027-2.423-.666-4.45 0 0 .53-3.758 4.286-7.155 0 0 .451-.396.71-.272.294.125.159 1.347-.078 1.936s-1.918 3.51-1.918 3.51-1.049 1.97-.755 3.521c1.973-3.045 6.463-9.193 9.248-7.257.937.668 1.365 2.128 1.365 3.702-.011 1.393-.338 2.865-.947 3.963Zm-.812-4.823s-.158-1.212-1.331.124c-1.015 1.121-2.843 3.238-4.32 6.103 1.545-.17 3.034-1.02 3.485-1.45.733-.656 2.436-2.422 2.166-4.777Zm-54.76 1.54c-.215 2.74-1.263 7.348-8.696 9.623-4.907 1.484-9.542.77-12.069.125-.056 1.008-.17 1.438-.327 1.608-.214.215-1.816 1.143-2.696-.17-.394-.623-.597-1.755-.71-2.763C9.41 26.92 6.794 23.14 6.693 22.97c-.124-.125-1.421-1.483-.124-3.148 1.218-1.506 5.2-3.011 8.786-3.623.124-3.08.485-5.4.914-6.465.519-1.234 1.173-.124 1.737.714.473.622.755 3.306.778 5.446 2.346-.114 3.733.056 6.35.532 3.406.622 5.685 2.366 5.482 4.348-.147 1.947-1.929 2.75-2.606 2.807-.71.057-1.816-.452-1.816-.452-.755-.363-.056-.68.858-1.076.992-.487.767-.985.767-.985-.373-1.087-4.794-1.846-9.193-1.846-.023 2.435.101 6.477.158 8.832 3.08.588 5.38.475 5.38.475s11.234-.317 11.572-7.518c.35-7.212-11.2-14.13-19.738-16.326-8.527-2.242-13.354-.68-13.772-.465-.45.227-.034.295-.034.295s.463.068 1.264.34c.846.271.191.713.191.713-1.455.464-3.09.17-3.406-.498-.316-.669.214-1.269.824-2.13.609-.905 1.274-.87 1.274-.87C12.885-1.6 25.732 5.036 25.732 5.036c12.035 6.125 14.087 13.303 13.862 16.088Zm-31.83-.374c-1.195.589-.372 1.438-.372 1.438 2.245 2.423 5.008 3.94 7.636 4.88.305-4.178.26-5.65.293-7.756-4.105.283-6.474.94-7.557 1.438Z" fill="#344054"/></svg>