<svg xmlns="http://www.w3.org/2000/svg" width="168" height="70" fill="none"><path d="M145.143 30.566c-2.842.654-10.323 1.03-10.323 1.03l-.948 2.973s3.731-.318 6.455-.04c0 0 .888-.1.987 1.01.039 1.03-.079 2.14-.079 2.14s-.059.674-1.007.832c-1.026.179-8.053.436-8.053.436l-1.145 3.864s-.414.892.533.634c.888-.238 8.251-1.625 9.218-1.426 1.026.257 2.171 1.624 1.836 2.892-.395 1.546-7.738 6.262-12.218 5.925 0 0-2.349.158-4.343-3.032-1.855-3.031.711-8.797.711-8.797s-1.165-2.695-.316-3.587c0 0 .513-.455 1.974-.574l1.796-3.745s-2.053.139-3.277-1.367c-1.144-1.447-1.223-2.1-.355-2.497.928-.455 9.474-2.02 15.356-1.822 0 0 2.053-.199 3.81 3.368-.02 0 .849 1.446-.612 1.783Zm-22.127 14.385c-.75 1.783-2.743 3.685-5.211 2.497-2.447-1.19-6.336-9.174-6.336-9.174s-1.48-2.972-1.756-2.913c0 0-.316-.575-.513 2.675-.198 3.25.039 9.57-1.244 10.56-1.224.992-2.704.595-3.474-.574-.691-1.149-.987-3.883-.612-8.678.454-4.795 1.56-9.907 2.981-11.512 1.421-1.585 2.566-.436 3-.02 0 0 1.895 1.724 5.033 6.796l.553.931s2.842 4.795 3.138 4.776c0 0 .237.218.435.059.296-.08.177-1.625.177-1.625s-.592-5.21-3.178-14.048c0 0-.394-1.11-.118-2.14.256-1.05 1.303-.555 1.303-.555s4.026 2.021 5.961 8.6c1.914 6.637.611 12.562-.139 14.345ZM103.239 28.05c-.336.673-.533 1.644-2.231 1.902 0 0-16.245 1.11-17.014 2.259 0 0-.573.673.316.872.888.178 4.559.673 6.335.772 1.895.02 8.29.08 10.58 2.953 0 0 1.362 1.367 1.303 4.458-.059 3.17-.612 4.28-1.836 5.429-1.283 1.07-12.297 6.023-19.402-1.585 0 0-3.277-3.666 1.125-6.44 0 0 3.177-1.922 11.25.337 0 0 2.448.892 2.33 1.783-.139.951-2.014 1.962-4.738 1.902-2.645-.079-4.579-1.347-4.204-1.149.355.139-2.842-1.545-3.83-.396-.986 1.05-.75 1.704.218 2.358 2.467 1.406 12 .911 14.843-2.26 0 0 1.125-1.287-.592-2.337-1.717-.99-6.632-1.585-8.547-1.684-1.835-.1-8.665.02-9.652-1.803 0 0-.987-1.229.099-4.716 1.145-3.646 9.1-5.053 12.534-5.37 0 0 9.455-.337 11.192 1.605-.02 0 .217.456-.079 1.11ZM76.394 49.429c-1.144.852-3.572.475-4.263-.476-.69-.852-.928-4.24-.79-9.55.139-5.37.257-12.027 1.402-13.077 1.224-1.07 1.974-.139 2.447.594.514.714 1.125 1.506 1.264 3.19.118 1.685.513 10.522.513 10.522s.513 7.965-.573 8.797Zm2.468-28.492c-3.336 1.11-5.626.733-7.56-.1-.849 1.486-1.342 1.942-1.994 2.041-.947.1-1.796-1.426-1.954-1.922-.158-.376-.612-1.01-.059-2.516-1.895-1.704-2.033-4.002-1.717-5.548.474-1.783 3.671-8.56 13.402-9.352 0 0 4.757-.357 5.566 2.2h.138s4.62.02 4.52 4.14c-.059 4.141-5.131 9.293-10.342 11.057Zm-9.08-9.174c-.987 1.585-1.026 2.536-.572 3.19 1.125-1.724 3.178-4.439 6.198-6.5-2.33.199-4.284 1.21-5.626 3.31Zm13.442-2.655c-3.06.455-7.797 4.577-10.047 7.945 3.454.634 9.553.396 12.258-5.132-.02 0 1.282-3.428-2.211-2.813Zm83.059 31.92c-1.836 3.21-6.987 9.907-13.856 8.342-2.27 5.528-4.165 11.095-5.251 19.457 0 0-.237 1.625-1.579 1.05-1.322-.476-3.533-2.695-3.967-5.766-.474-4.042 1.322-10.878 4.974-18.704-1.066-1.744-1.796-4.24-1.165-7.787 0 0 .928-6.578 7.501-12.522 0 0 .789-.694 1.243-.476.513.218.277 2.358-.138 3.388-.414 1.03-3.355 6.142-3.355 6.142s-1.836 3.448-1.323 6.163c3.454-5.33 11.31-16.09 16.186-12.701 1.638 1.169 2.388 3.725 2.388 6.479-.02 2.437-.592 5.013-1.658 6.935Zm-1.421-8.44s-.277-2.12-2.329.217c-1.777 1.962-4.974 5.667-7.56 10.68 2.704-.297 5.309-1.783 6.099-2.536 1.283-1.15 4.263-4.24 3.79-8.362Zm-95.83 2.694c-.375 4.795-2.21 12.86-15.218 16.842-8.587 2.595-16.699 1.347-21.12.218-.099 1.763-.296 2.516-.573 2.813-.375.377-3.178 2.001-4.717-.297-.691-1.09-1.046-3.071-1.244-4.835-9.948-4.596-14.527-11.214-14.705-11.512-.217-.217-2.487-2.595-.217-5.508 2.132-2.635 9.1-5.27 15.376-6.34.217-5.39.849-9.451 1.599-11.314.908-2.16 2.053-.218 3.04 1.248.829 1.09 1.322 5.786 1.362 9.53 4.105-.197 6.533.1 11.112.932 5.961 1.09 9.949 4.141 9.593 7.609-.256 3.408-3.375 4.814-4.56 4.913-1.243.1-3.177-.792-3.177-.792-1.323-.634-.099-1.189 1.5-1.882 1.737-.852 1.342-1.724 1.342-1.724-.651-1.902-8.389-3.23-16.087-3.23-.04 4.26.178 11.334.277 15.455 5.388 1.03 9.415.832 9.415.832s19.66-.555 20.252-13.156c.611-12.622-19.6-24.728-34.543-28.572C12.817 2.589 4.37 5.323 3.64 5.7c-.79.396-.06.515-.06.515s.81.119 2.211.594c1.48.476.336 1.248.336 1.248-2.547.813-5.41.298-5.962-.871-.553-1.17.375-2.22 1.44-3.725 1.067-1.585 2.231-1.526 2.231-1.526 18.456-6.42 40.938 5.191 40.938 5.191 21.06 10.72 24.653 23.282 24.258 28.156Zm-55.702-.654c-2.092 1.03-.651 2.516-.651 2.516 3.928 4.24 8.764 6.896 13.363 8.54.533-7.311.454-9.887.513-13.572-7.185.495-11.33 1.644-13.225 2.516Z" fill="#0BA5EC"/></svg>