<svg xmlns="http://www.w3.org/2000/svg" width="162" height="85" fill="none"><path d="M35.868 83.976v-7.468l-.146.065a13.814 13.814 0 0 1-5.382 1.366 7.916 7.916 0 0 1-5.419-1.598 6.933 6.933 0 0 1-2.358-3.35c-.476-1.448-.53-3-.159-4.478a6.867 6.867 0 0 1 2.402-3.83 7.2 7.2 0 0 1 3.774-1.628 12.438 12.438 0 0 1 7.127 1.336l.161.084v-7.51l-.34-.09a19.078 19.078 0 0 0-6.795-.89 15.727 15.727 0 0 0-6.069 1.388 13.87 13.87 0 0 0-4.97 3.84 14.95 14.95 0 0 0-.271 18.183 14.25 14.25 0 0 0 7.9 5.08c3.3.803 6.76.68 9.998-.35l.547-.15Zm73.896 0v-7.468l-.146.065a13.814 13.814 0 0 1-5.382 1.366 7.916 7.916 0 0 1-5.419-1.598 6.933 6.933 0 0 1-2.358-3.35c-.476-1.448-.53-3-.159-4.478a6.867 6.867 0 0 1 2.402-3.83 7.2 7.2 0 0 1 3.774-1.628 12.437 12.437 0 0 1 7.127 1.336l.161.084v-7.51l-.34-.09a19.076 19.076 0 0 0-6.795-.89 15.725 15.725 0 0 0-6.069 1.388 13.87 13.87 0 0 0-4.97 3.84 14.95 14.95 0 0 0-.271 18.183 14.25 14.25 0 0 0 7.9 5.08c3.301.803 6.76.68 9.998-.35l.547-.15Z" fill="#1E4471"/><path fill-rule="evenodd" clip-rule="evenodd" d="m62.237 77.777-.028 6.431.47.081a39.75 39.75 0 0 0 4.464.575c1.311.121 2.63.147 3.944.076 1.257-.09 2.5-.325 3.703-.699a10.243 10.243 0 0 0 3.84-2.046 7.748 7.748 0 0 0 2.237-3.207c.8-2.08.785-4.386-.045-6.455a7.244 7.244 0 0 0-2.005-2.78 8.312 8.312 0 0 0-2.94-1.712l-4.852-1.8a2.6 2.6 0 0 1-1.325-1.262 1.653 1.653 0 0 1 .054-1.472 1.89 1.89 0 0 1 .324-.434c.208-.213.45-.388.717-.519a5.146 5.146 0 0 1 1.728-.503 10.093 10.093 0 0 1 3.094.033c1.209.132 2.407.345 3.585.642l.251.055V56.85l-.463-.1a31.546 31.546 0 0 0-3.648-.65 18.728 18.728 0 0 0-4.797-.02 10.368 10.368 0 0 0-5.522 2.22 7.326 7.326 0 0 0-2.358 3.252 8.933 8.933 0 0 0-.005 6.046c.361.97.94 1.847 1.696 2.56a9.682 9.682 0 0 0 2.194 1.59 15.154 15.154 0 0 0 3.337 1.31c.384.115.764.236 1.144.363l.574.21.164.067a4.309 4.309 0 0 1 1.52.938c.302.283.535.631.68 1.02.089.353.09.723.004 1.079a2.293 2.293 0 0 1-1.11 1.331 5.51 5.51 0 0 1-1.85.578c-.948.15-1.909.2-2.867.145a32.804 32.804 0 0 1-3.742-.499 36.858 36.858 0 0 1-1.928-.452l-.239-.06Zm-16.636 6.691h7.061V56.461h-7.06v28.007Zm81.748-19.737a7.359 7.359 0 0 1 5.436-1.613 7.363 7.363 0 0 1 6.531 8.18 7.355 7.355 0 0 1-2.776 4.945 7.364 7.364 0 0 1-11.83-6.59 7.367 7.367 0 0 1 2.639-4.922Zm-10.252 5.746a14.737 14.737 0 0 0 17.918 14.16 14.375 14.375 0 0 0 4.713-26.467 14.834 14.834 0 0 0-20.475 4.902 14.832 14.832 0 0 0-2.157 7.405" fill="#1E4471"/><path d="M0 33.953a3.505 3.505 0 0 0 5.874 2.306 3.504 3.504 0 0 0 1.111-2.306V26.19a3.493 3.493 0 0 0-6.985 0v7.763Zm19.334 0a3.506 3.506 0 0 0 3.493 3.24 3.503 3.503 0 0 0 3.492-3.24V16.55a3.495 3.495 0 0 0-6.985 0v17.403m19.229 7.009a3.5 3.5 0 0 0 6.984 0V3.319a3.497 3.497 0 0 0-6.983 0v37.643Zm19.397-7.009a3.507 3.507 0 0 0 3.494 3.24 3.503 3.503 0 0 0 3.492-3.24V16.55a3.495 3.495 0 0 0-6.985 0v17.403m19.295 0a3.505 3.505 0 0 0 5.874 2.306 3.504 3.504 0 0 0 1.111-2.306V26.19a3.494 3.494 0 0 0-6.985 0v7.763Zm19.332 0a3.506 3.506 0 0 0 3.493 3.24 3.501 3.501 0 0 0 3.492-3.24V16.55a3.495 3.495 0 0 0-6.985 0v17.403m19.231 7.009a3.504 3.504 0 0 0 3.492 3.25 3.499 3.499 0 0 0 3.492-3.25V3.319A3.494 3.494 0 0 0 119.311 0a3.496 3.496 0 0 0-3.492 3.32v37.642Zm19.397-7.009a3.506 3.506 0 0 0 3.494 3.24 3.5 3.5 0 0 0 3.491-3.24V16.55a3.49 3.49 0 0 0-3.492-3.37 3.497 3.497 0 0 0-3.493 3.37v17.403m19.108 0a3.508 3.508 0 0 0 2.214 2.995 3.504 3.504 0 0 0 3.661-.688 3.5 3.5 0 0 0 1.11-2.307V26.19a3.494 3.494 0 0 0-6.985 0v7.763Z" fill="#1E4471"/></svg>