<svg width="27" height="18" fill="none" xmlns="http://www.w3.org/2000/svg"><path d="M8.438 5.625a.542.542 0 0 1-.563-.563V3.938a.57.57 0 0 1 .563-.562h1.124c.282 0 .563.281.563.563v1.124a.57.57 0 0 1-.563.563H8.438Zm4.5 4.5a.542.542 0 0 1-.563-.563V8.438a.57.57 0 0 1 .563-.563h1.124c.282 0 .563.281.563.563v1.124a.57.57 0 0 1-.563.563h-1.124Zm-4.5 0a.542.542 0 0 1-.563-.563V8.438a.57.57 0 0 1 .563-.563h1.124c.282 0 .563.281.563.563v1.124a.57.57 0 0 1-.563.563H8.438Zm9-4.5a.542.542 0 0 1-.563-.563V3.938a.57.57 0 0 1 .563-.562h1.125c.28 0 .562.281.562.563v1.124a.57.57 0 0 1-.563.563h-1.125Zm-4.5 0a.542.542 0 0 1-.563-.563V3.938a.57.57 0 0 1 .563-.562h1.124c.282 0 .563.281.563.563v1.124a.57.57 0 0 1-.563.563h-1.124Zm-7.876 6.75c.282 0 .563.281.563.563v1.124a.57.57 0 0 1-.563.563H3.938a.542.542 0 0 1-.562-.563v-1.124a.57.57 0 0 1 .563-.563h1.124Zm12.375-2.25a.542.542 0 0 1-.562-.563V8.438a.57.57 0 0 1 .563-.563h1.125c.28 0 .562.281.562.563v1.124a.57.57 0 0 1-.563.563h-1.125ZM5.063 3.375c.282 0 .563.281.563.563v1.124a.57.57 0 0 1-.563.563H3.938a.542.542 0 0 1-.562-.563V3.938a.57.57 0 0 1 .563-.562h1.124Zm18 4.5c.282 0 .563.281.563.563v1.124a.57.57 0 0 1-.563.563h-1.125a.542.542 0 0 1-.562-.563V8.438a.57.57 0 0 1 .563-.563h1.125Zm-18 0c.282 0 .563.281.563.563v1.124a.57.57 0 0 1-.563.563H3.938a.542.542 0 0 1-.562-.563V8.438a.57.57 0 0 1 .563-.563h1.124ZM24 0c1.64 0 3 1.36 3 3v12c0 1.688-1.36 3-3 3H3c-1.688 0-3-1.313-3-3V3c0-1.64 1.313-3 3-3h21Zm1.5 15V3c0-.797-.703-1.5-1.5-1.5H3c-.844 0-1.5.703-1.5 1.5v12c0 .844.656 1.5 1.5 1.5h21c.797 0 1.5-.656 1.5-1.5ZM23.062 3.375c.282 0 .563.281.563.563v1.124a.57.57 0 0 1-.563.563h-1.125a.542.542 0 0 1-.562-.563V3.938a.57.57 0 0 1 .563-.562h1.125ZM18.75 12.75c.375 0 .75.375.75.75 0 .422-.375.75-.75.75H8.25a.74.74 0 0 1-.75-.75c0-.375.328-.75.75-.75h10.5Zm4.313-.375c.28 0 .562.281.562.563v1.124a.57.57 0 0 1-.563.563h-1.125a.542.542 0 0 1-.562-.563v-1.124a.57.57 0 0 1 .563-.563h1.125Z" fill="#98A2B3"/></svg>