<svg width="24" height="24" fill="none" xmlns="http://www.w3.org/2000/svg"><path d="M12 .375c6.375 0 11.625 5.25 11.625 11.625 0 6.422-5.25 11.625-11.625 11.625C5.578 23.625.375 18.422.375 12 .375 5.625 5.578.375 12 .375Zm7.64 5.39c-.187.282-1.828 2.391-5.53 3.891.374.75.609 1.313.89 1.969 3.281-.422 6.563.234 6.89.328 0-2.344-.843-4.5-2.25-6.187Zm-1.078-1.171C16.125 2.437 12.797 1.64 9.656 2.39a53.874 53.874 0 0 1 3.703 5.812c3.516-1.312 5.016-3.328 5.204-3.61ZM7.735 3.047A10.06 10.06 0 0 0 2.25 9.984c.469.047 4.547.047 9.188-1.171a56.462 56.462 0 0 0-3.704-5.766Zm-5.671 9c0 2.531.937 4.875 2.53 6.61C6.189 15.936 9.47 13.03 13.079 12c-.281-.563-.515-1.125-.844-1.688-4.921 1.5-9.75 1.454-10.171 1.407v.328Zm3.796 7.828a9.93 9.93 0 0 0 9.985 1.313c-.14-.891-.703-3.938-2.11-7.547C9.75 15 6.938 17.766 5.86 19.875Zm11.672.375a10.122 10.122 0 0 0 4.266-6.656c-.375-.094-3.094-.89-6.188-.422 1.266 3.61 1.829 6.515 1.922 7.078Z" fill="#98A2B3"/></svg>