<svg xmlns="http://www.w3.org/2000/svg" width="104" height="41" fill="none"><g clip-path="url(#a)" fill="#344054"><path fill-rule="evenodd" clip-rule="evenodd" d="M22.413 40.962c-10.426 0-15.845-2.295-19.086-7.708C1.5 30.137.852 24.551.852 20.962c0-3.59.648-9.172 2.475-12.291C6.567 3.258 11.986.962 22.413.962c10.428 0 15.847 2.296 19.085 7.709 1.827 3.119 2.474 8.703 2.474 12.29 0 3.589-.647 9.174-2.474 12.293-3.24 5.413-8.659 7.708-19.085 7.708Zm5.24-8.695c-1.178 0-2.888-.53-3.71-2.414L18.76 17.32c-1.12-2.824 1.061-5.472 3.595-5.472 1.178 0 2.885.531 3.71 2.413l5.183 12.532c1.12 2.824-1.061 5.474-3.593 5.474h-.001Zm-10.426 0c-1.177 0-2.886-.53-3.712-2.414L8.332 17.32c-1.119-2.824 1.06-5.472 3.593-5.472 1.18 0 2.887.531 3.712 2.413l5.184 12.532c1.119 2.824-1.059 5.474-3.593 5.474h-.001Zm16.934-9.47c-1.177 0-2.887-.53-3.71-2.413l-1.265-3.064c-1.12-2.824 1.058-5.472 3.59-5.472 1.178 0 2.887.531 3.711 2.413l1.269 3.063c1.12 2.826-1.062 5.474-3.595 5.474Z"/><path d="m51.813 13.821 1.645-6.376 1.646 6.376H57.2l2.646-9.59h-2.129l-1.51 6.007a2.93 2.93 0 0 1-.09.37c0 .006-.003.013-.004.02l-.011-.043c-.038-.112-.062-.238-.091-.379l-1.546-5.974h-2.017L50.9 10.215c-.027.133-.051.258-.091.38a.432.432 0 0 1-.009.032 3.093 3.093 0 0 1-.007-.029c-.037-.11-.061-.231-.092-.377l-1.505-5.99h-2.13l2.647 9.59h2.1Zm9.029 0 .933-2.439h3.422l.933 2.44h2.166l-3.848-9.509-.033-.081h-1.857l-3.882 9.59h2.166Zm2.42-6.336.224-.643.117.35.894 2.357h-2.02l.786-2.064Zm13.217-.483c0-1.709-1.323-2.77-3.453-2.77h-4.12v9.59h2.023v-3.784h1.286l2.16 3.783h2.317l-2.29-4.007c1.377-.546 2.075-1.492 2.075-2.814l.002.002Zm-2.023.132c0 .727-.48 1.094-1.429 1.094H70.93v-2.19h2.097c.948 0 1.43.369 1.43 1.095v.001Zm5.292.392.022.04c.043.077.088.159.137.227l3.895 5.97.04.06h1.99V4.231h-1.97v6.255l-.022-.039a2.212 2.212 0 0 0-.137-.227l-3.934-5.99h-1.99v9.59h1.97V7.526h-.001Zm14.38 4.462h-4.722V9.785h4.308V7.95h-4.308V6.067h4.682V4.232h-6.706v9.59h6.746v-1.834Zm6.728-2.173c1.378-.546 2.076-1.492 2.076-2.813 0-1.709-1.323-2.77-3.454-2.77h-4.12v9.59h2.023v-3.784h1.287l2.16 3.783h2.317l-2.291-4.007.002.001Zm.053-2.68c0 .727-.481 1.095-1.43 1.095h-2.095V6.04h2.096c.948 0 1.429.368 1.429 1.094v.001ZM58.73 25.665v-9.59h-2.074l-2.886 7.187-2.887-7.188H48.81v9.59h1.97v-4.987l.201.63 1.862 4.358h1.853l1.866-4.369.197-.619v4.988h1.971Zm1.445-9.591v5.927c0 2.338 1.554 3.85 3.96 3.85 2.404 0 3.959-1.512 3.959-3.85v-5.927H66.07v5.755c0 1.355-.706 2.133-1.937 2.133-1.23 0-1.936-.778-1.936-2.133v-5.755h-2.023Zm12.883 7.969c-1.258 0-1.968-.674-2.232-2.118l-.031-.173-1.794.912.02.098c.414 1.964 1.89 3.09 4.05 3.09 2.373 0 3.614-1.508 3.614-2.996 0-1.613-.974-2.536-3.16-2.993-1.547-.318-2.15-.689-2.15-1.324 0-.636.77-.842 1.43-.842 1.026 0 1.725.527 2.076 1.564l.05.152 1.622-.935-.038-.104c-.6-1.648-1.835-2.485-3.67-2.485-2.042 0-3.414 1.081-3.414 2.69 0 1.496 1.104 2.564 3.026 2.926 1.606.327 2.203.712 2.203 1.418s-.629 1.12-1.603 1.12h.001Zm6.759-7.969h-2.023v9.59h2.023v-9.59Zm10.141 7.214.07-.106-1.598-1.147-.07.132c-.642 1.191-1.555 1.795-2.714 1.795-1.662 0-2.87-1.3-2.87-3.093 0-1.792 1.208-3.093 2.87-3.093 1.194 0 2.02.56 2.604 1.765l.068.14 1.64-1.179-.043-.097c-.707-1.576-2.283-2.516-4.215-2.516-2.882 0-4.973 2.095-4.973 4.982 0 2.886 2.018 4.98 4.906 4.98 2.186 0 3.241-.939 4.325-2.563ZM52.154 33.962h2.989c-.138.654-.632 1.843-2.404 1.843-1.627 0-2.763-1.272-2.763-3.093 0-1.822 1.218-3.174 2.897-3.174 1.204 0 2.128.56 2.67 1.621l.07.136 1.535-1.115-.052-.1c-.75-1.47-2.32-2.35-4.199-2.35-2.835 0-4.973 2.142-4.973 4.982 0 2.84 2.046 4.981 4.76 4.981 1.188 0 2.149-.447 2.792-1.297l.325 1.111h1.39v-5.245h-5.038v1.7Zm13.935-3.276c0-1.708-1.323-2.77-3.453-2.77h-4.12v9.59h2.023v-3.784h1.286l2.16 3.784h2.317l-2.29-4.008c1.377-.546 2.075-1.491 2.075-2.813l.002.001Zm-2.023.133c0 .727-.48 1.095-1.429 1.095H60.54v-2.19h2.097c.948 0 1.429.369 1.429 1.095Zm7.612-3.089c-2.813 0-4.933 2.142-4.933 4.982 0 2.84 2.122 4.981 4.933 4.981 2.812 0 4.934-2.141 4.934-4.981s-2.122-4.982-4.934-4.982Zm2.884 4.982c0 1.85-1.159 3.093-2.884 3.093-1.724 0-2.883-1.244-2.883-3.093 0-1.85 1.159-3.093 2.883-3.093 1.725 0 2.884 1.243 2.884 3.093Zm9.004.959c0 1.356-.706 2.134-1.936 2.134s-1.937-.778-1.937-2.134v-5.755H77.67v5.928c0 2.338 1.555 3.848 3.96 3.848 2.405 0 3.96-1.511 3.96-3.848v-5.928h-2.024v5.755Zm7.841-5.755h-4.373v9.59h2.023v-3.251h2.35c2.238 0 3.627-1.215 3.627-3.169s-1.39-3.17-3.627-3.17Zm1.603 3.17c0 .873-.573 1.335-1.656 1.335h-2.297v-2.67h2.297c1.083 0 1.656.462 1.656 1.335Z"/></g><defs><clipPath id="a"><path fill="#fff" transform="translate(.852 .962)" d="M0 0h102.295v40H0z"/></clipPath></defs></svg>