<svg xmlns="http://www.w3.org/2000/svg" width="165" height="65" fill="none"><g clip-path="url(#a)" fill="#0032A0"><path fill-rule="evenodd" clip-rule="evenodd" d="M34.778 64.52C17.96 64.52 9.22 60.816 3.99 52.085 1.044 47.057 0 38.048 0 32.259c0-5.79 1.044-14.795 3.991-19.825C9.22 3.703 17.958 0 34.778 0c16.819 0 25.56 3.703 30.784 12.434 2.947 5.03 3.99 14.037 3.99 19.825 0 5.787-1.043 14.796-3.99 19.827-5.226 8.73-13.967 12.433-30.784 12.433Zm8.452-14.027c-1.901 0-4.66-.855-5.985-3.893l-8.361-20.215c-1.806-4.556 1.712-8.827 5.797-8.827 1.9 0 4.655.857 5.984 3.893l8.362 20.213c1.806 4.556-1.712 8.83-5.796 8.83h-.002Zm-16.818 0c-1.898 0-4.655-.855-5.986-3.893l-8.362-20.215c-1.804-4.556 1.71-8.827 5.796-8.827 1.902 0 4.657.857 5.988 3.893l8.362 20.213c1.804 4.556-1.709 8.83-5.796 8.83h-.002ZM53.727 35.22c-1.898 0-4.657-.855-5.984-3.893l-2.042-4.942c-1.806-4.556 1.708-8.827 5.792-8.827 1.9 0 4.657.857 5.986 3.893l2.046 4.94c1.808 4.558-1.712 8.829-5.798 8.829Z"/><path d="m82.199 20.74 2.654-10.283 2.654 10.284h3.381l4.268-15.468h-3.433l-2.435 9.688c-.041.208-.08.404-.145.597l-.008.031-.018-.069c-.06-.18-.1-.382-.147-.61l-2.493-9.637h-3.253l-2.498 9.651c-.043.214-.082.416-.147.612a.735.735 0 0 1-.014.053 8.102 8.102 0 0 0-.011-.047c-.06-.177-.099-.373-.148-.608l-2.428-9.66h-3.434l4.268 15.467H82.2Zm14.563 0 1.506-3.933h5.519l1.506 3.934h3.492l-6.206-15.336-.053-.132H99.53l-6.26 15.468h3.492Zm3.905-10.219.361-1.037.189.565 1.441 3.8h-3.26l1.269-3.328Zm21.318-.781c0-2.755-2.135-4.467-5.57-4.467h-6.646v15.468h3.263v-6.103h2.075l3.485 6.103h3.736l-3.695-6.464c2.223-.88 3.348-2.406 3.348-4.538l.004.002Zm-3.263.215c0 1.172-.776 1.765-2.305 1.765h-3.383V8.188h3.383c1.529 0 2.305.594 2.305 1.765v.002Zm8.536.631.035.065c.069.125.142.257.222.367l6.283 9.629.063.096h3.21V5.273h-3.177v10.09l-.035-.062a3.714 3.714 0 0 0-.222-.367l-6.346-9.66h-3.208V20.74h3.177V10.586h-.002Zm23.194 7.198h-7.615V14.23h6.948v-2.96h-6.948V8.234h7.55v-2.96h-10.815v15.468h10.88v-2.957Zm10.853-3.505c2.223-.88 3.348-2.406 3.348-4.538 0-2.755-2.135-4.468-5.57-4.468h-6.646v15.468h3.263v-6.103h2.075l3.485 6.103h3.736l-3.695-6.464.004.002Zm.085-4.322c0 1.172-.776 1.765-2.305 1.765h-3.381V8.19h3.381c1.529 0 2.305.594 2.305 1.765v.002ZM93.356 39.844V24.375h-3.345l-4.655 11.594-4.657-11.594h-3.343v15.47h3.176V31.8l.326 1.016 3.002 7.028h2.99l3.01-7.046.318-.998v8.044h3.178Zm2.33-15.469v9.56c0 3.772 2.508 6.21 6.387 6.21 3.88 0 6.387-2.438 6.387-6.21v-9.56h-3.263v9.282c0 2.187-1.139 3.442-3.124 3.442s-3.123-1.255-3.123-3.442v-9.282h-3.264Zm20.782 12.853c-2.03 0-3.175-1.086-3.601-3.416l-.051-.279-2.894 1.471.034.16c.667 3.166 3.049 4.982 6.534 4.982 3.826 0 5.827-2.431 5.827-4.832 0-2.602-1.571-4.09-5.097-4.828-2.495-.512-3.467-1.11-3.467-2.136s1.242-1.357 2.305-1.357c1.657 0 2.784.85 3.349 2.522l.082.245 2.616-1.508-.061-.166c-.968-2.66-2.961-4.01-5.922-4.01-3.292 0-5.505 1.744-5.505 4.339 0 2.414 1.781 4.136 4.881 4.72 2.59.528 3.554 1.148 3.554 2.287 0 1.14-1.015 1.808-2.586 1.808l.002-.002Zm10.902-12.853h-3.263v15.467h3.263V24.375Zm16.356 11.635.114-.17-2.578-1.85-.114.212c-1.034 1.922-2.507 2.897-4.376 2.897-2.682 0-4.629-2.099-4.629-4.99 0-2.89 1.947-4.988 4.629-4.988 1.926 0 3.259.904 4.199 2.845l.11.228 2.647-1.903-.071-.157c-1.14-2.541-3.683-4.057-6.799-4.057-4.649 0-8.022 3.379-8.022 8.035 0 4.655 3.256 8.034 7.914 8.034 3.526 0 5.229-1.516 6.976-4.136ZM82.748 53.227h4.822c-.222 1.055-1.019 2.973-3.877 2.973-2.625 0-4.457-2.051-4.457-4.989 0-2.938 1.965-5.118 4.672-5.118 1.942 0 3.432.904 4.308 2.614l.112.22 2.475-1.8-.082-.16c-1.211-2.373-3.742-3.79-6.773-3.79-4.573 0-8.022 3.453-8.022 8.034 0 4.581 3.3 8.035 7.678 8.035 1.916 0 3.465-.722 4.504-2.093l.524 1.793h2.242v-8.46h-8.126v2.743-.002Zm22.478-5.283c0-2.756-2.134-4.468-5.57-4.468H93.01v15.468h3.263V52.84h2.075l3.485 6.103h3.736l-3.695-6.464c2.223-.88 3.348-2.406 3.348-4.538l.004.002Zm-3.263.213c0 1.173-.776 1.768-2.305 1.768h-3.383v-3.532h3.383c1.529 0 2.305.594 2.305 1.764Zm12.278-4.981c-4.537 0-7.957 3.454-7.957 8.035 0 4.581 3.422 8.035 7.957 8.035 4.536 0 7.958-3.454 7.958-8.035 0-4.581-3.422-8.035-7.958-8.035Zm4.651 8.035c0 2.985-1.869 4.99-4.651 4.99s-4.651-2.007-4.651-4.99 1.869-4.99 4.651-4.99 4.651 2.007 4.651 4.99Zm14.525 1.547c0 2.187-1.139 3.442-3.124 3.442s-3.123-1.255-3.123-3.442v-9.282h-3.263v9.56c0 3.772 2.507 6.208 6.386 6.208 3.88 0 6.387-2.438 6.387-6.207v-9.56h-3.263v9.281Zm12.647-9.282h-7.054v15.468h3.263V53.7h3.791c3.609 0 5.849-1.96 5.849-5.111 0-3.152-2.242-5.113-5.849-5.113Zm2.586 5.113c0 1.408-.925 2.153-2.672 2.153h-3.705v-4.306h3.705c1.747 0 2.672.745 2.672 2.153Z"/></g><defs><clipPath id="a"><path fill="#fff" d="M0 0h165v64.519H0z"/></clipPath></defs></svg>