<svg width="45" height="46" viewBox="0 0 45 46" fill="none" xmlns="http://www.w3.org/2000/svg">
<path d="M29.2676 16.3574C29.5312 16.6211 29.5312 17.0605 29.2676 17.2363L23.4668 23.125L29.2676 29.0137C29.5312 29.2773 29.5312 29.7168 29.2676 29.9805C29.0039 30.2441 28.5645 30.2441 28.3008 29.9805L22.5 24.1797L16.6113 29.8926C16.3477 30.1562 15.9082 30.1562 15.6445 29.8926C15.3809 29.6289 15.3809 29.1895 15.6445 28.9258L21.4453 23.125L15.6445 17.3242C15.3809 17.0605 15.3809 16.6211 15.6445 16.3574C15.9082 16.0938 16.3477 16.0938 16.6113 16.3574L22.5 22.1582L28.3008 16.3574C28.5645 16.0938 29.0039 16.0938 29.2676 16.3574ZM22.5 0.625C34.8926 0.625 45 10.7324 45 23.125C45 35.6055 34.8926 45.625 22.5 45.625C10.0195 45.625 0 35.6055 0 23.125C0 10.7324 10.0195 0.625 22.5 0.625ZM22.5 44.2188C34.1016 44.2188 43.5938 34.8145 43.5938 23.125C43.5938 11.5234 34.1016 2.03125 22.5 2.03125C10.8105 2.03125 1.40625 11.5234 1.40625 23.125C1.40625 34.8145 10.8105 44.2188 22.5 44.2188Z" fill="#E8FCFF"/>
</svg>
