<svg width="27" height="18" viewBox="0 0 27 18" fill="none" xmlns="http://www.w3.org/2000/svg">
<path d="M8.4375 5.625C8.10938 5.625 7.875 5.39062 7.875 5.0625V3.9375C7.875 3.65625 8.10938 3.375 8.4375 3.375H9.5625C9.84375 3.375 10.125 3.65625 10.125 3.9375V5.0625C10.125 5.39062 9.84375 5.625 9.5625 5.625H8.4375ZM12.9375 10.125C12.6094 10.125 12.375 9.89062 12.375 9.5625V8.4375C12.375 8.15625 12.6094 7.875 12.9375 7.875H14.0625C14.3438 7.875 14.625 8.15625 14.625 8.4375V9.5625C14.625 9.89062 14.3438 10.125 14.0625 10.125H12.9375ZM8.4375 10.125C8.10938 10.125 7.875 9.89062 7.875 9.5625V8.4375C7.875 8.15625 8.10938 7.875 8.4375 7.875H9.5625C9.84375 7.875 10.125 8.15625 10.125 8.4375V9.5625C10.125 9.89062 9.84375 10.125 9.5625 10.125H8.4375ZM17.4375 5.625C17.1094 5.625 16.875 5.39062 16.875 5.0625V3.9375C16.875 3.65625 17.1094 3.375 17.4375 3.375H18.5625C18.8438 3.375 19.125 3.65625 19.125 3.9375V5.0625C19.125 5.39062 18.8438 5.625 18.5625 5.625H17.4375ZM12.9375 5.625C12.6094 5.625 12.375 5.39062 12.375 5.0625V3.9375C12.375 3.65625 12.6094 3.375 12.9375 3.375H14.0625C14.3438 3.375 14.625 3.65625 14.625 3.9375V5.0625C14.625 5.39062 14.3438 5.625 14.0625 5.625H12.9375ZM5.0625 12.375C5.34375 12.375 5.625 12.6562 5.625 12.9375V14.0625C5.625 14.3906 5.34375 14.625 5.0625 14.625H3.9375C3.60938 14.625 3.375 14.3906 3.375 14.0625V12.9375C3.375 12.6562 3.60938 12.375 3.9375 12.375H5.0625ZM17.4375 10.125C17.1094 10.125 16.875 9.89062 16.875 9.5625V8.4375C16.875 8.15625 17.1094 7.875 17.4375 7.875H18.5625C18.8438 7.875 19.125 8.15625 19.125 8.4375V9.5625C19.125 9.89062 18.8438 10.125 18.5625 10.125H17.4375ZM5.0625 3.375C5.34375 3.375 5.625 3.65625 5.625 3.9375V5.0625C5.625 5.39062 5.34375 5.625 5.0625 5.625H3.9375C3.60938 5.625 3.375 5.39062 3.375 5.0625V3.9375C3.375 3.65625 3.60938 3.375 3.9375 3.375H5.0625ZM23.0625 7.875C23.3438 7.875 23.625 8.15625 23.625 8.4375V9.5625C23.625 9.89062 23.3438 10.125 23.0625 10.125H21.9375C21.6094 10.125 21.375 9.89062 21.375 9.5625V8.4375C21.375 8.15625 21.6094 7.875 21.9375 7.875H23.0625ZM5.0625 7.875C5.34375 7.875 5.625 8.15625 5.625 8.4375V9.5625C5.625 9.89062 5.34375 10.125 5.0625 10.125H3.9375C3.60938 10.125 3.375 9.89062 3.375 9.5625V8.4375C3.375 8.15625 3.60938 7.875 3.9375 7.875H5.0625ZM24 0C25.6406 0 27 1.35938 27 3V15C27 16.6875 25.6406 18 24 18H3C1.3125 18 0 16.6875 0 15V3C0 1.35938 1.3125 0 3 0H24ZM25.5 15V3C25.5 2.20312 24.7969 1.5 24 1.5H3C2.15625 1.5 1.5 2.20312 1.5 3V15C1.5 15.8438 2.15625 16.5 3 16.5H24C24.7969 16.5 25.5 15.8438 25.5 15ZM23.0625 3.375C23.3438 3.375 23.625 3.65625 23.625 3.9375V5.0625C23.625 5.39062 23.3438 5.625 23.0625 5.625H21.9375C21.6094 5.625 21.375 5.39062 21.375 5.0625V3.9375C21.375 3.65625 21.6094 3.375 21.9375 3.375H23.0625ZM18.75 12.75C19.125 12.75 19.5 13.125 19.5 13.5C19.5 13.9219 19.125 14.25 18.75 14.25H8.25C7.82812 14.25 7.5 13.9219 7.5 13.5C7.5 13.125 7.82812 12.75 8.25 12.75H18.75ZM23.0625 12.375C23.3438 12.375 23.625 12.6562 23.625 12.9375V14.0625C23.625 14.3906 23.3438 14.625 23.0625 14.625H21.9375C21.6094 14.625 21.375 14.3906 21.375 14.0625V12.9375C21.375 12.6562 21.6094 12.375 21.9375 12.375H23.0625Z" fill="#98A2B3"/>
</svg>
