<svg width="45" height="46" viewBox="0 0 45 46" fill="none" xmlns="http://www.w3.org/2000/svg" transform="rotate(180)">
  <path d="M19.4238 12.8418L29.9707 22.6855C30.2344 22.9492 30.2344 23.3887 29.9707 23.6523L19.4238 33.4961C19.1602 33.7598 18.7207 33.7598 18.457 33.4961C18.2812 33.3203 18.2812 33.1445 18.2812 32.9688C18.2812 32.793 18.2812 32.6172 18.457 32.5293L28.4766 23.2129L18.457 13.8086C18.1934 13.5449 18.1934 13.1055 18.457 12.8418C18.7207 12.5781 19.1602 12.5781 19.4238 12.8418ZM22.5 0.625C34.8926 0.625 45 10.7324 45 23.125C45 35.6055 34.8926 45.625 22.5 45.625C10.0195 45.625 0 35.6055 0 23.125C0 10.7324 10.0195 0.625 22.5 0.625ZM22.5 44.2188C34.1016 44.2188 43.5938 34.8145 43.5938 23.125C43.5938 11.5234 34.1016 2.03125 22.5 2.03125C10.8105 2.03125 1.40625 11.5234 1.40625 23.125C1.40625 34.8145 10.8105 44.2188 22.5 44.2188Z" fill="#747E7F"/>
</svg>
