<?xml version="1.0" encoding="utf-8"?>
<!-- Generator: Adobe Illustrator 27.8.1, SVG Export Plug-In . SVG Version: 6.00 Build 0)  -->
<svg version="1.1" id="Tenet" xmlns="http://www.w3.org/2000/svg" xmlns:xlink="http://www.w3.org/1999/xlink" x="0px" fill="#344054"y="0px" 
	 width="89" height="47" viewBox="0 0 549.8 286.1" style="enable-background:new 0 0 549.8 286.1;" xml:space="preserve">
<style type="text/css">

</style>
<path class="st0" d="M452.9,118.9c-3.2-14.4-11.1-25.1-25.3-30.4c-10-3.7-20.5-3.7-30.9-2c-16.5,2.8-30.6,10.3-41.6,23
	c-12.8,14.7-18.4,31.9-16.5,51.4c1.2,12.5,6.4,23.2,16.1,31.3c14.1,11.8,30.7,14.1,48.3,11.7c11.6-1.7,22-6.5,31.3-13.7
	c3.4-2.6,6.5-5.5,9.9-8.5c-6.9-4.7-13.3-9.1-19.9-13.7c-0.7,0.7-1.3,1.2-1.9,1.8c-8.5,8.7-18.8,12.9-31,12.7
	c-14.5-0.2-24.9-9.8-26.1-24.2c-0.2-3.1-0.2-3.2,3-3.2c26,0,51.9,0,77.8,0c1.5,0,3.1-0.1,4.6,0c1.1,0,1.8-0.3,1.9-1.6
	c0.2-2.5,0.6-5,0.9-7.5C454.8,136.9,454.9,127.9,452.9,118.9z M427.5,132c-0.1,1.8-1.3,1.7-2.6,1.7c-15.1,0-30.3,0-45.4,0
	c-3.6,0-7.1,0-11.2,0c2.1-7.8,5.6-14.4,11.5-19.4c10.1-8.5,21.8-10.3,34.1-6.1C425.4,112.1,428.2,122.5,427.5,132z"/>
<path class="st0" d="M210.3,120.5c-3-15.8-11.4-27.3-27.1-32.6c-9.9-3.3-20-3.2-30.1-1.4c-17.9,3.2-32.7,11.8-43.8,26.2
	c-10.6,13.6-15.2,29.1-14,46.4c0.8,10.6,4.3,20,11.2,28c9.5,11,22,16.2,36.2,17.4c11.5,1,22.8-0.7,33.5-5.4
	c9.4-4.1,17.4-10,24.7-17.5c-6.6-4.6-13.1-9-19.7-13.6c-0.8,0.7-1.5,1.4-2.2,2.2c-8.2,8.2-18.1,12.4-29.8,12.3
	c-15.1-0.2-26-9.8-26.7-23.9c-0.2-3.6-0.4-3.6,3.3-3.6c27.1,0,54.1-0.1,81.2,0c2,0,2.7-0.7,2.8-2.6c0.1-1.9,0.3-3.7,0.6-5.5
	C211.7,138.1,212,129.3,210.3,120.5z M184.2,132.4c0,0.5-0.9,1.1-1.5,1.2c-1.3,0.2-2.7,0.1-4.1,0.1c-16.8,0-33.6,0-50.4,0
	c-0.9,0-1.7,0-3.4,0c1.7-3.8,2.9-7.2,4.5-10.4c7.3-12.9,20.5-19.1,35.2-16.8c5,0.8,9.6,2.4,13.4,5.9
	C183.8,117.9,184.8,124.9,184.2,132.4z"/>
<path class="st0" d="M258.1,88.3c-0.8,6.2-1.5,12-2.2,17.8c0.2,0.1,0.3,0.1,0.5,0.2c0.4-0.4,0.8-0.8,1.1-1.2
	c7.2-11.3,17.4-17.9,30.6-19.4c9.7-1.1,19.3-0.5,27.9,4.9c8.3,5.1,12.2,13,13.6,22.3c1.3,8.4,0.1,16.7-1.1,25
	c-1.2,8.1-2.3,16.1-3.5,24.2c-1.3,9.3-2.6,18.5-4,27.8c-0.5,3.5-1.1,6.9-1.5,10.4c-0.1,1.2-0.7,1.5-1.8,1.5c-8.3,0-16.5,0-24.8,0
	c-1.3,0-1.7-0.3-1.5-1.7c1.8-12.8,3.6-25.6,5.4-38.4c1-7,2.1-14,3-21c0.7-5.5,1-11-0.2-16.6c-2.2-10.9-10.4-14.3-19.9-13.3
	c-18.1,1.8-25.5,16.1-27.4,29.4c-1.3,9.2-2.6,18.4-3.9,27.6c-1.3,9.1-2.6,18.2-3.8,27.4c-0.1,0.7-0.2,1.4-0.3,2
	c-0.9,4.8-0.9,4.8-5.8,4.8c-6.7,0-13.5,0-20.2,0c-0.8,0-1.6,0-2.7,0c0.8-6.1,1.6-11.9,2.4-17.7c1.1-8.2,2.3-16.4,3.5-24.6
	c1.3-9.3,2.6-18.5,3.9-27.8c1.3-9.5,2.6-19,4-28.5c0.6-4.4,1.2-8.9,1.9-13.3c0.1-0.6,1-1.5,1.5-1.5C241,88.2,249.3,88.3,258.1,88.3z
	"/>
<path class="st0" d="M350.5,90.6c10.1-30.7,29.2-53,56.8-68.2c17.4-9.5,36-15.2,55.5-18.6C475,1.6,487.4,0.2,500,0.1
	c9.1-0.1,18.2-0.2,27.2,0.2c7,0.3,13.9,1.4,20.9,2.1c1.5,0.1,1.8,0.8,1.6,2.1c-1.8,12.9-3.7,25.8-5.5,38.7c-0.2,1.7-0.8,2.2-2.7,1.8
	c-11.8-2.2-23.6-4.1-35.6-4.3c-11-0.2-22-0.6-33,0.1c-26.6,1.8-52.5,7.4-77,18.3c-16.1,7.1-30.9,16-43.1,28.9
	C352.2,88.7,351.5,89.4,350.5,90.6z"/>
<path class="st0" d="M203.5,201.8c-10.3,26.6-28.3,45.7-52.4,59.2c-17.3,9.7-36,15.8-55.4,19.6c-12,2.4-24.2,4.1-36.5,4.6
	c-9.1,0.4-18.2,1-27.2,0.7c-10-0.3-20-1.6-30.1-2.5c-2-0.2-2.1-1.1-1.8-2.8c1.5-10.1,3-20.2,4.4-30.3c0.4-2.5,0.7-5,1-7.5
	c0.2-1.6,0.8-1.9,2.6-1.7c8.7,1.3,17.3,2.7,26,3.3c12.2,0.8,24.4,1.5,36.6,1.2c29.6-0.6,58.7-4.4,86.5-15
	c17-6.5,32.4-15.4,45.3-28.4C202.7,202.4,202.9,202.3,203.5,201.8z"/>
<path class="st0" d="M77.1,55.5c-1,6.7-1.9,13.4-2.9,20.1c-0.5,3.5-1,7.1-1.6,10.6c-0.3,1.7,0.5,2.1,2.1,2c7.7,0,15.4,0,23.2,0
	c0.8,0,1.6,0,2.8,0c-0.4,3.1-0.7,5.9-1.1,8.6c-0.6,4.1-1.2,8.3-1.7,12.4c-0.2,1.8-0.8,2.6-2.8,2.6c-7.7-0.1-15.4,0-23.2-0.1
	c-1.9,0-2.7,0.3-3,2.5C67,129.1,64.7,144,62.7,159c-0.5,3.6-0.8,7.3-0.6,10.9c0.4,8,5.7,10.5,12.4,10.9c4.7,0.3,9.2-0.7,13.8-3.2
	c-0.4,3.1-0.7,5.7-1,8.4c-0.6,4.1-1.2,8.3-1.7,12.4c-0.2,1.8-0.9,2.8-2.7,3.4c-8.6,3.1-17.5,3.1-26.4,2.2c-3.2-0.3-6.5-1-9.6-2.1
	c-8.5-2.9-12.6-9.3-13.8-18c-1.2-8.8,0.4-17.3,1.6-25.9c1.1-8.1,2.3-16.3,3.4-24.4c0.8-6,1.7-12.1,2.5-18.1c0.2-1.2,0.2-2.4,0.3-3.8
	c-5.7,0-11.2,0-17.1,0c0.4-3,0.7-5.8,1-8.5c0.6-4.1,1.2-8.3,1.7-12.4c0.2-1.9,0.7-2.9,2.9-2.8c4,0.2,8.1-0.1,12.1,0.1
	c2.4,0.2,3-1,3.3-3c1-6.7,2.1-13.4,3.3-20.1c0.1-0.7,0.7-1.6,1.3-1.8c9-2.8,17.9-5.4,26.9-8.1C76.5,55.4,76.7,55.5,77.1,55.5z"/>
<path class="st0" d="M461,111.8c0.4-3.2,0.7-6.2,1.1-9.1c0.6-4.1,1.2-8.3,1.7-12.4c0.2-1.5,0.7-2.1,2.3-2.1c4.4,0.1,8.7,0,13.1,0
	c1.6,0,2.4-0.2,2.7-2.1c1-7,2.3-14,3.5-20.9c0.1-0.7,0.9-1.6,1.6-1.8c8.8-2.7,17.6-5.3,26.5-8c0.2-0.1,0.4,0,0.9,0
	c-0.9,6.6-1.9,13.2-2.8,19.7c-0.5,3.5-1,7.1-1.6,10.6c-0.3,1.8,0.2,2.6,2.3,2.6c7.6-0.1,15.3,0,22.9,0c0.8,0,1.6,0,2.7,0
	c-0.5,3.7-0.9,7.2-1.4,10.6c-0.5,3.5-0.9,6.9-1.4,10.4c-0.2,1.8-0.9,2.7-3,2.6c-7.6-0.2-15.3,0-22.9-0.1c-1.9,0-2.8,0.3-3.1,2.5
	c-1,8.3-2.3,16.6-3.5,24.9c-1.2,8.5-2.4,17-3.4,25.6c-0.3,2.7-0.1,5.7,0.6,8.3c1.2,5,5.5,7.6,11.8,7.9c4.8,0.2,9.4-0.7,13.9-3.3
	c-0.7,5.1-1.3,9.8-2,14.5c-0.3,2.4-0.6,4.9-1.2,7.2c-0.2,0.9-1.1,1.9-2,2.3c-6.9,2.8-14.2,3.1-21.6,2.9c-5.9-0.2-11.7-0.9-17.1-3.4
	c-7-3.3-10.3-9.2-11.4-16.6c-1.2-8,0.1-15.8,1.1-23.7c1.1-8.2,2.3-16.4,3.5-24.6c1-7.1,2-14.2,3-21.2c0.4-3,0.4-3.2-2.6-3.2
	C470.7,111.8,466,111.8,461,111.8z"/>
</svg>
