<svg width="89" height="47" viewBox="0 0 89 47" fill="none" xmlns="http://www.w3.org/2000/svg" ><g clip-path="url(#a)" ><mask id="b" style="mask-type:luminance" maskUnits="userSpaceOnUse" x="0" y="0" width="89" height="47"><path d="M88.818.962h-88v46h88v-46Z" fill="#fff"/></mask><g mask="url(#b)"><mask id="c" style="mask-type:luminance" maskUnits="userSpaceOnUse" x="0" y="0" width="89" height="47"><path d="M88.818.962h-88v46h88v-46Z" fill="#fff"/></mask><g mask="url(#c)" fill="#344054"><path d="M68.731 27.975c1.051.73 2.075 1.448 3.18 2.206-.553.474-1.051.947-1.577 1.353-1.482 1.15-3.152 1.936-5.011 2.193-2.816.392-5.47.013-7.733-1.881-1.55-1.313-2.385-3.018-2.573-5.035-.297-3.126.592-5.9 2.64-8.269 1.765-2.043 4.015-3.248 6.655-3.694 1.67-.271 3.341-.285 4.945.324 2.276.853 3.543 2.572 4.055 4.9.323 1.434.296 2.896.094 4.357-.054.406-.108.799-.148 1.205-.014.216-.121.257-.31.257H59.759c-.512 0-.512 0-.472.514.189 2.314 1.846 3.857 4.177 3.898 1.953.04 3.597-.636 4.97-2.044.082-.08.176-.162.297-.27m-8.959-5.509h9.054c.202 0 .39.014.417-.27.121-1.516-.337-3.194-2.182-3.83-1.967-.663-3.84-.393-5.457.988-.943.798-1.495 1.854-1.832 3.113Zm-29.948 5.482c1.05.73 2.088 1.448 3.152 2.192-1.172 1.204-2.451 2.152-3.947 2.815-1.71.758-3.516 1.028-5.362.866-2.263-.203-4.27-1.029-5.793-2.801-1.105-1.286-1.67-2.802-1.792-4.493-.202-2.775.553-5.279 2.237-7.471 1.778-2.314 4.15-3.695 7.005-4.209 1.617-.284 3.233-.311 4.81.23 2.506.853 3.853 2.707 4.338 5.238.27 1.407.229 2.828.027 4.25-.04.297-.081.581-.095.879-.013.298-.12.42-.444.42h-13c-.594 0-.553 0-.526.568.108 2.26 1.845 3.816 4.27 3.843 1.873 0 3.463-.65 4.77-1.976.107-.108.229-.216.35-.338m-9.04-5.508h8.622c.216 0 .445.014.66 0 .095 0 .243-.108.243-.19.094-1.204-.067-2.34-1.01-3.207-.607-.568-1.334-.812-2.143-.947-2.357-.366-4.459.622-5.63 2.706-.284.488-.472 1.029-.742 1.651m21.34-7.335c-.122.988-.243 1.936-.35 2.87.026 0 .053.026.08.04.054-.068.121-.122.175-.203 1.145-1.813 2.79-2.883 4.904-3.113 1.55-.176 3.085-.08 4.46.785 1.32.826 1.94 2.085 2.169 3.587.202 1.353.026 2.693-.176 4.02-.188 1.298-.363 2.598-.552 3.883-.216 1.489-.418 2.977-.633 4.466-.081.555-.175 1.11-.23 1.678-.026.203-.107.244-.282.244h-3.96c-.203 0-.284-.04-.243-.284.296-2.057.579-4.128.862-6.185.161-1.123.337-2.247.485-3.383.108-.894.148-1.773-.027-2.666-.364-1.76-1.67-2.301-3.18-2.152-2.883.284-4.082 2.585-4.378 4.736-.202 1.476-.418 2.95-.633 4.44-.202 1.461-.404 2.936-.62 4.398a2.736 2.736 0 0 1-.054.325c-.09.514-.4.77-.93.77h-3.664c.135-.987.256-1.907.39-2.841.19-1.326.378-2.64.553-3.965.202-1.49.418-2.978.62-4.466.216-1.53.431-3.059.633-4.588.094-.718.189-1.435.31-2.139.014-.094.162-.243.242-.243 1.32-.014 2.641 0 4.042 0m14.766.365c1.617-4.94 4.661-8.526 9.08-10.962 2.775-1.529 5.766-2.45 8.878-2.99 1.98-.352 3.961-.583 5.968-.596 1.455-.014 2.91-.027 4.365.027 1.118.054 2.223.23 3.341.338.23.027.297.122.27.339-.297 2.07-.593 4.14-.876 6.211-.04.271-.135.352-.43.285-1.887-.352-3.773-.65-5.7-.69-1.765-.028-3.53-.095-5.28.027-4.271.284-8.407 1.204-12.328 2.936-2.573 1.137-4.944 2.572-6.898 4.642-.107.109-.215.23-.377.42M33.394 33.402c-1.644 4.276-4.527 7.335-8.393 9.514-2.775 1.57-5.766 2.53-8.865 3.153-1.926.393-3.866.663-5.833.744-1.455.068-2.91.163-4.352.122-1.603-.054-3.206-.257-4.81-.392-.323-.027-.336-.176-.296-.447.243-1.624.472-3.248.7-4.872.055-.392.109-.798.163-1.204.04-.257.134-.312.417-.27 1.388.202 2.775.446 4.163.527 1.954.135 3.907.243 5.86.203 4.73-.095 9.39-.704 13.85-2.409 2.708-1.042 5.187-2.463 7.248-4.574.027-.027.054-.04.148-.122M13.159 9.88c-.149 1.084-.31 2.166-.459 3.235-.08.569-.161 1.137-.255 1.706-.04.284.08.338.323.324h4.149c-.067.501-.121.948-.175 1.38-.094.664-.189 1.327-.27 2.004-.026.297-.134.42-.457.42-1.24-.014-2.48 0-3.705 0-.297 0-.445.04-.485.405-.31 2.396-.674 4.805-.984 7.2-.08.582-.134 1.164-.107 1.746.067 1.285.902 1.678 1.98 1.76.754.053 1.482-.11 2.21-.529-.068.488-.108.92-.162 1.34a89.62 89.62 0 0 0-.27 2.003c-.027.284-.135.447-.43.555-1.388.5-2.803.5-4.231.352a7.574 7.574 0 0 1-1.536-.325c-1.36-.46-2.02-1.489-2.21-2.883-.188-1.407.068-2.787.257-4.168.175-1.313.363-2.612.552-3.925.135-.974.27-1.935.404-2.91.027-.189.04-.378.054-.608H4.617c.054-.487.108-.92.162-1.367.094-.663.202-1.326.27-2.003.04-.298.107-.46.457-.447.647.027 1.294-.027 1.94.014.391.027.485-.163.526-.474.161-1.082.337-2.152.525-3.22.014-.109.108-.258.202-.285 1.428-.447 2.87-.866 4.311-1.3h.122m61.473 9.068c.067-.514.108-.988.175-1.461.081-.663.202-1.327.27-2.003.026-.244.12-.339.363-.339h2.088c.256 0 .391-.04.432-.338a96.26 96.26 0 0 1 .565-3.37c.014-.108.149-.257.256-.284 1.415-.433 2.83-.853 4.23-1.286h.135c-.148 1.07-.296 2.112-.444 3.167a76.196 76.196 0 0 1-.256 1.705c-.054.298.04.42.364.406 1.225-.013 2.451 0 3.677 0h.432c-.081.596-.149 1.15-.216 1.706-.067.555-.148 1.11-.216 1.678-.04.297-.148.433-.484.42-1.227-.028-2.453 0-3.665-.014-.296 0-.458.04-.498.406-.162 1.34-.364 2.666-.553 3.992-.188 1.367-.39 2.734-.539 4.114a3.76 3.76 0 0 0 .095 1.34c.202.812.875 1.232 1.886 1.272.768.027 1.495-.108 2.223-.528-.108.826-.216 1.584-.31 2.342-.054.392-.094.785-.189 1.163a.62.62 0 0 1-.323.366c-1.105.447-2.277.5-3.462.46-.944-.027-1.873-.149-2.735-.555-1.119-.528-1.644-1.475-1.82-2.666-.188-1.285 0-2.544.176-3.803.175-1.326.377-2.639.566-3.965.162-1.137.31-2.274.485-3.41.067-.474.054-.515-.418-.515H74.62"/></g></g></g><defs><clipPath id="a"><path fill="#fff" d="M.818.962h88v46h-88z"/></clipPath></defs></svg>