<svg width="134" height="70" viewBox="0 0 134 70" fill="none" xmlns="http://www.w3.org/2000/svg">
<g id="tenet 2" clip-path="url(#clip0_5145_1364)">
<g id="Group 1000001689">
<g id="Group 1000001688">
<g id="Layer_1-2">
<g id="Artwork_179">
<g id="Clip path group">
<mask id="mask0_5145_1364" style="mask-type:luminance" maskUnits="userSpaceOnUse" x="0" y="0" width="134" height="70">
<g id="clippath">
<path id="Vector" d="M133.913 0H0V70H133.913V0Z" fill="white"/>
</g>
</mask>
<g mask="url(#mask0_5145_1364)">
<g id="Group">
<g id="Clip path group_2">
<mask id="mask1_5145_1364" style="mask-type:luminance" maskUnits="userSpaceOnUse" x="0" y="0" width="134" height="70">
<g id="clippath-1">
<path id="Vector_2" d="M133.913 0H0V70H133.913V0Z" fill="white"/>
</g>
</mask>
<g mask="url(#mask1_5145_1364)">
<g id="Group_2">
<path id="Vector_3" d="M103.346 41.1058C104.945 42.2179 106.503 43.3094 108.184 44.4627C107.344 45.1835 106.585 45.9043 105.785 46.5221C103.53 48.2726 100.988 49.4671 98.1591 49.8584C93.8744 50.4556 89.8356 49.879 86.3915 46.9958C84.0338 44.9982 82.7628 42.4033 82.4758 39.3347C82.0247 34.5774 83.3778 30.3556 86.494 26.7516C89.1796 23.6419 92.6033 21.809 96.6215 21.1294C99.1636 20.7175 101.706 20.6969 104.145 21.6236C107.61 22.9211 109.537 25.5366 110.316 29.0788C110.808 31.2618 110.767 33.4859 110.46 35.7101C110.378 36.328 110.296 36.9252 110.234 37.543C110.214 37.8725 110.05 37.9343 109.763 37.9343C109.394 37.9343 109.025 37.9343 108.635 37.9343H89.6921C88.9131 37.9343 88.9131 37.9343 88.9746 38.7169C89.2616 42.2385 91.7833 44.5863 95.3299 44.6481C98.3026 44.7098 100.804 43.6801 102.895 41.5383C103.018 41.4147 103.161 41.2912 103.346 41.1264M89.7126 32.7446H92.4393C96.1295 32.7446 99.8197 32.7446 103.489 32.7446C103.797 32.7446 104.084 32.7651 104.125 32.3327C104.309 30.0261 103.612 27.4724 100.804 26.5045C97.8106 25.4954 94.9609 25.9072 92.5008 28.0079C91.0657 29.2229 90.2252 30.8293 89.7126 32.7446Z" fill="#055EAA"/>
<path id="Vector_4" d="M44.1391 41.0852C45.7382 42.1973 47.3167 43.2888 48.9363 44.4215C47.1527 46.2544 45.2051 47.696 42.9295 48.7051C40.3259 49.8584 37.5787 50.2703 34.7701 50.0232C31.3259 49.7142 28.2712 48.458 25.9546 45.7601C24.2735 43.8037 23.4125 41.4971 23.228 38.9228C22.9205 34.701 24.0685 30.8911 26.6312 27.5548C29.3373 24.0332 32.9455 21.9325 37.2917 21.15C39.7518 20.7175 42.212 20.6763 44.6106 21.5001C48.4238 22.7975 50.4739 25.6189 51.2119 29.4701C51.622 31.6119 51.5605 33.7743 51.253 35.9367C51.1914 36.3897 51.1299 36.8222 51.1094 37.2753C51.0889 37.7284 50.9249 37.9137 50.4329 37.9137C43.8316 37.9137 37.2507 37.9137 30.6494 37.9137C29.7473 37.9137 29.8088 37.9137 29.8498 38.7787C30.0138 42.2179 32.6585 44.5863 36.3487 44.6275C39.1983 44.6275 41.6174 43.6389 43.606 41.6207C43.7701 41.4559 43.9546 41.2912 44.1391 41.1058M30.3829 32.724H43.5035C43.8316 32.724 44.1801 32.7445 44.5081 32.724C44.6516 32.724 44.8771 32.5592 44.8771 32.4356C45.0206 30.6027 44.7746 28.8728 43.3395 27.5548C42.417 26.6898 41.3099 26.3191 40.0799 26.1132C36.4922 25.5571 33.294 27.0605 31.5104 30.232C31.0799 30.9734 30.7929 31.7972 30.3829 32.7445" fill="#055EAA"/>
<path id="Vector_5" d="M62.8565 21.5828C62.672 23.0861 62.4875 24.5277 62.3235 25.9488C62.3645 25.9488 62.4055 25.9899 62.4465 26.0105C62.5285 25.9076 62.631 25.8252 62.713 25.7016C64.4556 22.942 66.9567 21.315 70.1754 20.9649C72.533 20.6972 74.8701 20.8414 76.9612 22.1594C78.9703 23.4157 79.9134 25.3309 80.2619 27.6169C80.5694 29.6763 80.3029 31.7152 79.9954 33.7334C79.7084 35.7104 79.4419 37.6875 79.1548 39.644C78.8268 41.9093 78.5193 44.1747 78.1913 46.4401C78.0683 47.2844 77.9248 48.1288 77.8428 48.9938C77.8018 49.3027 77.6788 49.3645 77.4122 49.3645C75.4031 49.3645 73.394 49.3645 71.3849 49.3645C71.0774 49.3645 70.9544 49.3027 71.0159 48.932C71.4669 45.8016 71.8975 42.6507 72.328 39.5204C72.574 37.8111 72.8405 36.1017 73.066 34.3718C73.23 33.0126 73.2915 31.674 73.025 30.3147C72.4715 27.6375 70.4829 26.8137 68.1868 27.0403C63.7995 27.4727 61.9749 30.9738 61.5239 34.2483C61.2164 36.493 60.8884 38.7378 60.5604 41.0032C60.2528 43.2274 59.9453 45.4721 59.6173 47.6963C59.5968 47.8611 59.5763 48.0258 59.5353 48.1906C59.3986 48.9732 58.9271 49.3645 58.1207 49.3645H52.5444C52.7494 47.8611 52.934 46.4607 53.139 45.0397C53.426 43.0214 53.713 41.0238 53.9795 39.0055C54.287 36.7402 54.615 34.4748 54.9226 32.2094C55.2506 29.8823 55.5786 27.5551 55.8861 25.228C56.0296 24.1365 56.1731 23.045 56.3576 21.9741C56.3781 21.8299 56.6036 21.6034 56.7267 21.6034C58.7358 21.5828 60.7449 21.6034 62.877 21.6034" fill="#055EAA"/>
<path id="Vector_6" d="M85.3462 22.1592C87.8063 14.6423 92.4396 9.18483 99.1639 5.47786C103.387 3.15071 107.938 1.75029 112.674 0.926522C115.688 0.39107 118.701 0.0409675 121.756 0.0203732C123.97 -0.000221071 126.184 -0.0208154 128.398 0.0615618C130.1 0.143939 131.781 0.411665 133.483 0.576419C133.831 0.617608 133.934 0.761768 133.893 1.09128C133.442 4.2422 132.991 7.39313 132.56 10.5441C132.499 10.9559 132.355 11.0795 131.904 10.9765C129.034 10.4411 126.164 9.98801 123.232 9.92623C120.547 9.88504 117.861 9.78207 115.196 9.96741C108.697 10.3999 102.403 11.8003 96.4373 14.4364C92.5216 16.1663 88.9134 18.3493 85.9407 21.5002C85.7767 21.665 85.6127 21.8503 85.3667 22.1386" fill="#F68E2E"/>
<path id="Vector_7" d="M49.5719 49.3644C47.0708 55.8722 42.6836 60.5265 36.7998 63.8422C32.5765 66.2312 28.0253 67.6934 23.3101 68.6407C20.3784 69.2379 17.4262 69.6498 14.4331 69.7734C12.219 69.8763 10.0049 70.0205 7.81124 69.9587C5.37161 69.8763 2.93198 69.5674 0.492353 69.3615C0.000327017 69.3203 -0.020174 69.0938 0.0413292 68.6819C0.410349 66.2106 0.758867 63.7392 1.10739 61.2679C1.18939 60.6707 1.27139 60.0529 1.3534 59.435C1.4149 59.0437 1.55841 58.9614 1.98893 59.0232C4.10054 59.3321 6.21215 59.7028 8.32376 59.8263C11.2964 60.0323 14.2691 60.197 17.2417 60.1352C24.4376 59.9911 31.531 59.0643 38.3168 56.4695C42.4376 54.8837 46.2098 52.7213 49.3464 49.5086C49.3874 49.4674 49.4284 49.4468 49.5719 49.3232" fill="#F68E2E"/>
<path id="Vector_8" d="M18.7789 13.5713C18.5534 15.2188 18.3074 16.8664 18.0819 18.4933C17.9589 19.3583 17.8359 20.2232 17.6924 21.0882C17.6309 21.5207 17.8154 21.6031 18.1844 21.5825C20.0705 21.5825 21.9566 21.5825 23.8222 21.5825H24.4987C24.3962 22.3445 24.3142 23.0241 24.2322 23.6831C24.0887 24.6922 23.9452 25.7013 23.8222 26.731C23.7812 27.1841 23.6172 27.3695 23.1252 27.3695C21.2391 27.3489 19.353 27.3695 17.4874 27.3695C17.0363 27.3695 16.8108 27.4312 16.7493 27.9873C16.2778 31.6325 15.7243 35.2983 15.2527 38.9435C15.1297 39.829 15.0477 40.7146 15.0887 41.6001C15.1912 43.5566 16.4623 44.1538 18.1024 44.2774C19.2505 44.3598 20.3575 44.1126 21.4646 43.4742C21.3621 44.2156 21.3006 44.8746 21.2186 45.513C21.0751 46.5222 20.9315 47.5313 20.8085 48.561C20.7675 48.9935 20.6035 49.2406 20.1525 49.4054C18.0409 50.1673 15.8883 50.1673 13.7152 49.9408C12.9361 49.8584 12.1366 49.6937 11.378 49.4465C9.30744 48.7463 8.30288 47.1812 8.01587 45.06C7.72885 42.9182 8.11837 40.8175 8.40539 38.7169C8.6719 36.7193 8.95892 34.7422 9.24593 32.7446C9.45094 31.2618 9.65595 29.7996 9.86096 28.3168C9.90197 28.0285 9.92247 27.7402 9.94297 27.3901H5.78125C5.86325 26.6487 5.94526 25.9896 6.02726 25.31C6.17077 24.3009 6.33478 23.2918 6.43728 22.2621C6.49879 21.809 6.60129 21.5619 7.13432 21.5825C8.11837 21.6237 9.10243 21.5413 10.0865 21.6031C10.681 21.6443 10.8245 21.3559 10.886 20.8823C11.132 19.2347 11.3985 17.6078 11.6856 15.9808C11.7061 15.8161 11.8496 15.5895 11.9931 15.5483C14.1662 14.8687 16.3598 14.2303 18.5534 13.5713C18.5944 13.5713 18.6559 13.5713 18.7379 13.5713" fill="#055EAA"/>
<path id="Vector_9" d="M112.285 27.3696C112.387 26.587 112.449 25.8662 112.551 25.1454C112.674 24.1362 112.859 23.1271 112.961 22.0974C113.002 21.7267 113.146 21.5826 113.515 21.5826C114.581 21.5826 115.626 21.5826 116.692 21.5826C117.082 21.5826 117.287 21.5208 117.348 21.0677C117.594 19.3584 117.902 17.649 118.209 15.9397C118.23 15.775 118.435 15.5484 118.599 15.5072C120.752 14.8482 122.904 14.2098 125.036 13.5508C125.077 13.5508 125.139 13.5508 125.241 13.5508C125.016 15.1777 124.79 16.7635 124.565 18.3698C124.442 19.2348 124.319 20.0998 124.175 20.9647C124.093 21.4178 124.237 21.6031 124.729 21.5826C126.594 21.562 128.46 21.5826 130.326 21.5826H130.982C130.859 22.4887 130.756 23.3331 130.654 24.1774C130.551 25.0218 130.428 25.8662 130.326 26.7311C130.264 27.1842 130.1 27.3901 129.588 27.3696C127.722 27.3284 125.856 27.3696 124.011 27.349C123.56 27.349 123.314 27.4107 123.253 27.9668C123.007 30.0056 122.699 32.0239 122.412 34.0421C122.125 36.1221 121.818 38.2021 121.592 40.3028C121.51 40.9618 121.572 41.6826 121.736 42.3416C122.043 43.5773 123.068 44.2157 124.606 44.2775C125.774 44.3187 126.881 44.1127 127.988 43.4743C127.824 44.7305 127.66 45.8838 127.517 47.0371C127.435 47.6343 127.373 48.2316 127.23 48.8082C127.168 49.0347 126.943 49.2819 126.738 49.3643C125.057 50.0439 123.273 50.1262 121.469 50.0645C120.034 50.0233 118.62 49.8379 117.307 49.2201C115.606 48.4169 114.806 46.9753 114.54 45.163C114.253 43.2066 114.54 41.2913 114.806 39.376C115.073 37.3578 115.38 35.3601 115.667 33.3419C115.913 31.612 116.139 29.8821 116.405 28.1521C116.508 27.4313 116.487 27.3696 115.77 27.3696H112.305" fill="#055EAA"/>
</g>
</g>
</g>
</g>
</g>
</g>
</g>
</g>
</g>
</g>
</g>
<defs>
<clipPath id="clip0_5145_1364">
<rect width="133.913" height="70" fill="white"/>
</clipPath>
</defs>
</svg>
