<svg width="24" height="18" viewBox="0 0 24 18" fill="none" xmlns="http://www.w3.org/2000/svg">
<path d="M21 0C22.6406 0 24 1.35938 24 3V15C24 16.6875 22.6406 18 21 18H3C1.3125 18 0 16.6875 0 15V3C0 1.35938 1.3125 0 3 0H21ZM3 1.5C2.15625 1.5 1.5 2.20312 1.5 3V4.6875L10.6406 11.5781C11.4375 12.1875 12.5156 12.1875 13.3125 11.5781L22.5 4.73438V3C22.5 2.20312 21.7969 1.5 21 1.5H3ZM22.5 15V6.5625L14.25 12.75C13.5469 13.2656 12.75 13.5469 12 13.5469C11.2031 13.5469 10.4062 13.2656 9.75 12.75L1.5 6.5625V15C1.5 15.8438 2.15625 16.5 3 16.5H21C21.7969 16.5 22.5 15.8438 22.5 15Z" fill="#98A2B3"/>
</svg>
