<svg width="18" height="24" viewBox="0 0 18 24" fill="none" xmlns="http://www.w3.org/2000/svg">
<path d="M17.1094 5.90625C17.6719 6.46875 18 7.21875 18 8.01562V21C18 22.6875 16.6406 24 15 24H3C1.3125 24 0 22.6875 0 21V3C0 1.35938 1.3125 0 3 0H9.98438C10.7812 0 11.5312 0.328125 12.0938 0.890625L17.1094 5.90625ZM10.5 1.64062V6.75C10.5 7.17188 10.8281 7.5 11.25 7.5H16.3594C16.3125 7.3125 16.2188 7.125 16.0312 6.9375L11.0625 1.96875C10.875 1.78125 10.6875 1.6875 10.5 1.64062ZM16.5 21V9H11.25C9.98438 9 9 8.01562 9 6.75V1.5H3C2.15625 1.5 1.5 2.20312 1.5 3V21C1.5 21.8438 2.15625 22.5 3 22.5H15C15.7969 22.5 16.5 21.8438 16.5 21ZM9.46875 13.5938C9.79688 14.1562 10.2188 14.6719 10.6875 15.0938C11.25 15 12.375 14.8125 13.125 14.8125C14.1562 14.8125 15 15.6562 15 16.6406C15 17.625 14.2031 18.4219 13.1719 18.4219C12.1875 18.4219 10.7812 17.5781 10.2188 17.2031C9.1875 17.4375 8.29688 17.6719 7.5 18C6.84375 19.125 6.28125 19.9688 6 20.3438C5.67188 20.7656 5.15625 21 4.64062 21C3.70312 21 3 20.2969 3 19.3594C3 18.8906 3.14062 18.4688 3.46875 18.1406C4.125 17.4844 5.01562 16.9219 6.09375 16.4062C6.5625 15.5156 6.98438 14.5781 7.3125 13.6875C6.65625 12.0469 6.65625 10.6875 6.65625 10.6875C6.65625 9.75 7.40625 9 8.29688 9C9.23438 9 9.98438 9.75 9.98438 10.6875C9.98438 10.9219 9.9375 12.0938 9.46875 13.5938ZM4.92188 19.5469C5.10938 19.2656 5.48438 18.75 5.95312 17.9531C5.39062 18.2812 4.82812 18.6562 4.40625 19.125C4.35938 19.1719 4.3125 19.2188 4.3125 19.3125C4.3125 19.6875 4.73438 19.7812 4.92188 19.5469ZM8.29688 10.3594C8.10938 10.3594 7.96875 10.5 7.96875 10.6875C7.96875 10.7344 7.96875 11.625 8.34375 12.7031C8.4375 12.3281 8.625 11.3906 8.625 10.6875C8.625 10.5 8.48438 10.3594 8.29688 10.3594ZM7.5 16.5469C8.25 16.3125 9 16.125 9.70312 15.9375C9.1875 15.4688 8.76562 14.9531 8.48438 14.4375C8.15625 15.1875 7.82812 15.9375 7.5 16.5469ZM13.125 16.1719C12.5625 16.1719 11.3438 16.3594 11.2969 16.3594C11.7656 16.6406 12.75 17.1094 13.1719 17.1094C13.4531 17.1094 13.6406 16.9219 13.6406 16.6875C13.6406 16.3594 13.4062 16.1719 13.125 16.1719Z" fill="#98A2B3"/>
</svg>
