<svg xmlns="http://www.w3.org/2000/svg" width="89" height="47" viewBox="0 0 89 47" fill="none">
  <g clip-path="url(#clip0_5233_540)">
    <mask id="mask0_5233_540" style="mask-type:luminance" maskUnits="userSpaceOnUse" x="0" y="0" width="89" height="47">
      <path d="M88.1133 0.962402H0.113281V46.9624H88.1133V0.962402Z" fill="white"/>
    </mask>
    <g mask="url(#mask0_5233_540)">
      <mask id="mask1_5233_540" style="mask-type:luminance" maskUnits="userSpaceOnUse" x="0" y="0" width="89" height="47">
        <path d="M88.1133 0.962402H0.113281V46.9624H88.1133V0.962402Z" fill="white"/>
      </mask>
      <g mask="url(#mask1_5233_540)">
        <path d="M68.0261 27.9751C69.0769 28.7059 70.1008 29.4232 71.2055 30.1811C70.6532 30.6547 70.1547 31.1284 69.6293 31.5344C68.1474 32.6848 66.4768 33.4697 64.6177 33.7268C61.802 34.1193 59.148 33.7404 56.8847 31.8457C55.3354 30.5329 54.5001 28.8277 54.3115 26.8113C54.0151 23.6851 54.9043 20.9107 56.952 18.5424C58.7169 16.4988 60.9667 15.2943 63.6073 14.8477C65.2778 14.5771 66.9483 14.5635 68.5515 15.1725C70.8283 16.0252 72.0947 17.7439 72.6066 20.0716C72.93 21.5062 72.903 22.9678 72.701 24.4294C72.6471 24.8354 72.5932 25.2279 72.5528 25.6339C72.5393 25.8504 72.4315 25.891 72.2429 25.891C72.0004 25.891 71.7579 25.891 71.5019 25.891H59.0537C58.5417 25.891 58.5417 25.891 58.5822 26.4053C58.7708 28.7195 60.4278 30.2623 62.7585 30.3029C64.712 30.3435 66.3556 29.6668 67.7297 28.2593C67.8106 28.1781 67.9049 28.0969 68.0261 27.9887M59.0671 22.4806H60.8589C63.2839 22.4806 65.7089 22.4806 68.1204 22.4806C68.3225 22.4806 68.5111 22.4941 68.5381 22.2099C68.6593 20.6942 68.2013 19.016 66.3556 18.38C64.3886 17.7168 62.516 17.9875 60.8994 19.3679C59.9563 20.1664 59.404 21.222 59.0671 22.4806Z" fill="#344054"/>
        <path d="M29.1188 27.9615C30.1697 28.6923 31.207 29.4096 32.2713 30.1539C31.0993 31.3584 29.8194 32.3057 28.324 32.9688C26.613 33.7267 24.8078 33.9974 22.9621 33.835C20.6988 33.632 18.6914 32.8064 17.1691 31.0336C16.0643 29.7479 15.4985 28.2322 15.3773 26.5405C15.1752 23.7661 15.9296 21.2625 17.6136 19.07C19.392 16.7558 21.7631 15.3754 24.6192 14.8612C26.2358 14.577 27.8525 14.5499 29.4287 15.0912C31.9345 15.9438 33.2817 17.7979 33.7667 20.3287C34.0362 21.7361 33.9958 23.1571 33.7937 24.5781C33.7533 24.8759 33.7128 25.1601 33.6994 25.4578C33.6859 25.7555 33.5781 25.8773 33.2548 25.8773C28.9168 25.8773 24.5922 25.8773 20.2542 25.8773C19.6614 25.8773 19.7018 25.8773 19.7288 26.4457C19.8365 28.7058 21.5744 30.2622 23.9994 30.2892C25.8721 30.2892 27.4618 29.6396 28.7686 28.3134C28.8763 28.2051 28.9976 28.0968 29.1188 27.975M20.079 22.4669H28.7012C28.9168 22.4669 29.1458 22.4805 29.3613 22.4669C29.4556 22.4669 29.6038 22.3587 29.6038 22.2775C29.6981 21.073 29.5365 19.9362 28.5934 19.07C27.9872 18.5016 27.2597 18.258 26.4514 18.1227C24.0937 17.7573 21.9921 18.7452 20.82 20.8294C20.5371 21.3166 20.3485 21.8579 20.079 22.4805" fill="#344054"/>
        <path d="M41.4186 15.1453C41.2973 16.1332 41.1761 17.0806 41.0683 18.0144C41.0952 18.0144 41.1222 18.0415 41.1491 18.055C41.203 17.9873 41.2704 17.9332 41.3243 17.852C42.4694 16.0385 44.113 14.9694 46.2281 14.7393C47.7774 14.5634 49.3132 14.6581 50.6874 15.5242C52.0077 16.3498 52.6274 17.6084 52.8564 19.1106C53.0585 20.4639 52.8834 21.8037 52.6813 23.13C52.4927 24.4292 52.3175 25.7284 52.1289 27.0141C51.9134 28.5028 51.7113 29.9914 51.4957 31.4801C51.4149 32.035 51.3206 32.5899 51.2667 33.1583C51.2398 33.3613 51.1589 33.4019 50.9838 33.4019C49.6635 33.4019 48.3433 33.4019 47.023 33.4019C46.8209 33.4019 46.7401 33.3613 46.7805 33.1177C47.0769 31.0606 47.3598 28.99 47.6427 26.9329C47.8044 25.8096 47.9795 24.6864 48.1277 23.5495C48.2355 22.6563 48.2759 21.7767 48.1008 20.8835C47.737 19.1241 46.4302 18.5828 44.9213 18.7317C42.0383 19.0159 40.8393 21.3165 40.5429 23.4683C40.3408 24.9435 40.1253 26.4186 39.9097 27.9073C39.7076 29.3689 39.5055 30.844 39.29 32.3057C39.2765 32.4139 39.263 32.5222 39.2361 32.6305C39.1463 33.1447 38.8364 33.4019 38.3065 33.4019H34.6421C34.7768 32.4139 34.8981 31.4937 35.0328 30.5598C35.2214 29.2336 35.41 27.9208 35.5851 26.5946C35.7872 25.1059 36.0028 23.6172 36.2049 22.1285C36.4204 20.5993 36.636 19.07 36.838 17.5407C36.9324 16.8235 37.0267 16.1062 37.1479 15.4024C37.1614 15.3077 37.3096 15.1588 37.3904 15.1588C38.7107 15.1453 40.0309 15.1588 41.432 15.1588" fill="#344054"/>
        <path d="M56.1978 15.5244C57.8144 10.5847 60.8591 6.99833 65.278 4.56232C68.0532 3.03305 71.044 2.11278 74.1561 1.57144C76.1365 1.21957 78.1169 0.989505 80.1243 0.975972C81.5793 0.962438 83.0343 0.948905 84.4892 1.00304C85.6074 1.05717 86.7121 1.23311 87.8303 1.34137C88.0594 1.36844 88.1267 1.46317 88.0998 1.67971C87.8034 3.75032 87.507 5.82093 87.2241 7.89153C87.1837 8.1622 87.0894 8.2434 86.793 8.17574C84.9069 7.82387 83.0208 7.52613 81.0943 7.48553C79.3294 7.45847 77.5646 7.3908 75.8132 7.5126C71.5425 7.7968 67.4066 8.71707 63.4862 10.4493C60.913 11.5862 58.5419 13.0207 56.5884 15.0913C56.4807 15.1996 56.3729 15.3214 56.2112 15.5108" fill="#344054"/>
        <path d="M32.689 33.4018C31.0454 37.6784 28.1623 40.7369 24.2958 42.9158C21.5206 44.4857 18.5297 45.4465 15.4311 46.0691C13.5046 46.4615 11.5646 46.7322 9.59771 46.8134C8.14272 46.8811 6.68773 46.9758 5.24621 46.9352C3.64303 46.8811 2.03984 46.6781 0.43666 46.5427C0.113329 46.5157 0.0998566 46.3668 0.140273 46.0961C0.382771 44.4721 0.611798 42.8481 0.840824 41.2241C0.894713 40.8317 0.948601 40.4257 1.00249 40.0197C1.04291 39.7625 1.13721 39.7084 1.42013 39.749C2.80776 39.952 4.19539 40.1956 5.58302 40.2768C7.53648 40.4121 9.48994 40.5204 11.4434 40.4798C16.1721 40.3851 20.8335 39.776 25.2928 38.0708C28.0007 37.0288 30.4795 35.6078 32.5408 33.4966C32.5677 33.4695 32.5947 33.456 32.689 33.3748" fill="#344054"/>
        <path d="M12.4534 9.88086C12.3053 10.9635 12.1436 12.0462 11.9954 13.1153C11.9146 13.6837 11.8337 14.2521 11.7394 14.8205C11.699 15.1047 11.8203 15.1589 12.0628 15.1453C13.3022 15.1453 14.5416 15.1453 15.7676 15.1453H16.2122C16.1448 15.6461 16.0909 16.0927 16.037 16.5258C15.9427 17.1889 15.8484 17.852 15.7676 18.5287C15.7406 18.8264 15.6329 18.9482 15.3095 18.9482C14.0701 18.9347 12.8307 18.9482 11.6047 18.9482C11.3083 18.9482 11.1601 18.9888 11.1197 19.3542C10.8098 21.7496 10.4461 24.1586 10.1362 26.554C10.0554 27.1359 10.0015 27.7179 10.0285 28.2998C10.0958 29.5855 10.9311 29.9779 12.0089 30.0591C12.7633 30.1133 13.4908 29.9509 14.2183 29.5313C14.1509 30.0185 14.1105 30.4516 14.0566 30.8712C13.9623 31.5343 13.868 32.1974 13.7872 32.8741C13.7602 33.1583 13.6525 33.3207 13.3561 33.429C11.9684 33.9297 10.5539 33.9297 9.12583 33.7808C8.61389 33.7267 8.08847 33.6184 7.59 33.456C6.22932 32.9959 5.56918 31.9674 5.38057 30.5734C5.19196 29.1659 5.44793 27.7855 5.63654 26.4051C5.81168 25.0924 6.00029 23.7932 6.1889 22.4804C6.32362 21.506 6.45834 20.5452 6.59306 19.5708C6.62001 19.3813 6.63348 19.1918 6.64695 18.9618H3.91211C3.966 18.4746 4.01989 18.0415 4.07378 17.5949C4.16808 16.9318 4.27586 16.2686 4.34322 15.592C4.38363 15.2942 4.451 15.1318 4.80127 15.1453C5.44793 15.1724 6.0946 15.1183 6.74126 15.1589C7.13195 15.1859 7.22626 14.9965 7.26667 14.6852C7.42834 13.6025 7.60347 12.5334 7.79208 11.4643C7.80556 11.356 7.89986 11.2071 7.99417 11.1801C9.42221 10.7335 10.8637 10.3139 12.3053 9.88086C12.3322 9.88086 12.3726 9.88086 12.4265 9.88086" fill="#344054"/>
        <path d="M73.8999 18.9483C73.9673 18.4341 74.0077 17.9604 74.075 17.4867C74.1559 16.8236 74.2771 16.1605 74.3445 15.4838C74.3714 15.2402 74.4657 15.1455 74.7082 15.1455C75.4088 15.1455 76.0959 15.1455 76.7964 15.1455C77.0524 15.1455 77.1871 15.1049 77.2275 14.8071C77.3892 13.6838 77.5913 12.5606 77.7933 11.4373C77.8068 11.329 77.9415 11.1802 78.0493 11.1531C79.4639 10.72 80.8785 10.3005 82.2796 9.86743C82.3065 9.86743 82.3469 9.86743 82.4143 9.86743C82.2661 10.9366 82.1179 11.9786 81.9697 13.0342C81.8889 13.6026 81.808 14.1711 81.7137 14.7395C81.6599 15.0372 81.7542 15.159 82.0775 15.1455C83.3035 15.1319 84.5294 15.1455 85.7554 15.1455H86.1865C86.1057 15.7409 86.0383 16.2958 85.9709 16.8507C85.9036 17.4055 85.8227 17.9604 85.7554 18.5288C85.715 18.8265 85.6072 18.9619 85.2704 18.9483C84.0444 18.9213 82.8185 18.9483 81.606 18.9348C81.3096 18.9348 81.1479 18.9754 81.1075 19.3408C80.9458 20.6806 80.7437 22.0069 80.5551 23.3332C80.3665 24.7 80.1644 26.0669 80.0163 27.4473C79.9624 27.8804 80.0028 28.354 80.1106 28.7871C80.3126 29.5991 80.9862 30.0187 81.9967 30.0593C82.7646 30.0863 83.4921 29.951 84.2196 29.5315C84.1118 30.357 84.004 31.1149 83.9097 31.8727C83.8558 32.2652 83.8154 32.6577 83.7211 33.0366C83.6807 33.1855 83.5325 33.3479 83.3978 33.402C82.293 33.8486 81.121 33.9027 79.9354 33.8621C78.9924 33.8351 78.0628 33.7133 77.2006 33.3073C76.0824 32.7795 75.557 31.8321 75.3818 30.6412C75.1932 29.3555 75.3818 28.0969 75.557 26.8383C75.7321 25.512 75.9342 24.1993 76.1228 22.873C76.2845 21.7362 76.4327 20.5994 76.6078 19.4626C76.6752 18.9889 76.6617 18.9483 76.1902 18.9483H73.9134" fill="#344054"/>
      </g>
    </g>
  </g>
  <defs>
    <clipPath id="clip0_5233_540">
      <rect width="88" height="46" fill="white" transform="translate(0.113281 0.962402)"/>
    </clipPath>
  </defs>
</svg>