<svg width="89" height="47" viewBox="0 0 89 47" fill="none" xmlns="http://www.w3.org/2000/svg">
<mask id="mask0_5233_279" style="mask-type:luminance" maskUnits="userSpaceOnUse" x="0" y="0" width="89" height="47">
<path d="M88.1133 0.962402H0.113281V46.9624H88.1133V0.962402Z" fill="white"/>
</mask>
<g mask="url(#mask0_5233_279)">
<mask id="mask1_5233_279" style="mask-type:luminance" maskUnits="userSpaceOnUse" x="0" y="0" width="89" height="47">
<path d="M88.1133 0.962402H0.113281V46.9624H88.1133V0.962402Z" fill="white"/>
</mask>
<g mask="url(#mask1_5233_279)">
<path d="M68.0261 27.9751C69.0769 28.7059 70.1008 29.4231 71.2055 30.181C70.6532 30.6547 70.1547 31.1284 69.6293 31.5344C68.1474 32.6847 66.4768 33.4696 64.6177 33.7268C61.802 34.1192 59.148 33.7403 56.8847 31.8456C55.3354 30.5329 54.5001 28.8277 54.3115 26.8112C54.0151 23.685 54.9043 20.9106 56.952 18.5423C58.7169 16.4988 60.9667 15.2943 63.6073 14.8477C65.2778 14.577 66.9483 14.5635 68.5515 15.1725C70.8283 16.0251 72.0947 17.7438 72.6066 20.0716C72.93 21.5061 72.903 22.9677 72.701 24.4293C72.6471 24.8353 72.5932 25.2278 72.5528 25.6338C72.5393 25.8503 72.4315 25.8909 72.2429 25.8909C72.0004 25.8909 71.7579 25.8909 71.5019 25.8909H59.0537C58.5417 25.8909 58.5417 25.8909 58.5822 26.4052C58.7708 28.7194 60.4278 30.2622 62.7585 30.3028C64.712 30.3434 66.3556 29.6667 67.7297 28.2593C67.8106 28.1781 67.9049 28.0969 68.0261 27.9886M59.0671 22.4805H60.8589C63.2839 22.4805 65.7089 22.4805 68.1204 22.4805C68.3225 22.4805 68.5111 22.4941 68.5381 22.2099C68.6593 20.6941 68.2013 19.016 66.3556 18.3799C64.3886 17.7168 62.516 17.9874 60.8994 19.3678C59.9563 20.1663 59.404 21.2219 59.0671 22.4805Z" fill="#344054"/>
<path d="M29.1188 27.9615C30.1697 28.6923 31.207 29.4096 32.2713 30.1539C31.0993 31.3584 29.8194 32.3057 28.324 32.9688C26.613 33.7267 24.8078 33.9974 22.9621 33.835C20.6988 33.632 18.6914 32.8064 17.1691 31.0336C16.0643 29.7479 15.4985 28.2322 15.3773 26.5405C15.1752 23.7661 15.9296 21.2625 17.6136 19.07C19.392 16.7558 21.7631 15.3754 24.6192 14.8612C26.2358 14.577 27.8525 14.5499 29.4287 15.0912C31.9345 15.9438 33.2817 17.7979 33.7667 20.3287C34.0362 21.7361 33.9958 23.1571 33.7937 24.5781C33.7533 24.8759 33.7128 25.1601 33.6994 25.4578C33.6859 25.7555 33.5781 25.8773 33.2548 25.8773C28.9168 25.8773 24.5922 25.8773 20.2542 25.8773C19.6614 25.8773 19.7018 25.8773 19.7288 26.4457C19.8365 28.7058 21.5744 30.2622 23.9994 30.2892C25.8721 30.2892 27.4618 29.6396 28.7686 28.3134C28.8763 28.2051 28.9976 28.0968 29.1188 27.975M20.079 22.4669H28.7012C28.9168 22.4669 29.1458 22.4805 29.3613 22.4669C29.4556 22.4669 29.6038 22.3587 29.6038 22.2775C29.6981 21.073 29.5365 19.9362 28.5934 19.07C27.9872 18.5016 27.2597 18.258 26.4514 18.1227C24.0937 17.7573 21.9921 18.7452 20.82 20.8294C20.5371 21.3166 20.3485 21.8579 20.079 22.4805" fill="#344054"/>
<path d="M41.4186 15.1454C41.2973 16.1333 41.1761 17.0806 41.0683 18.0145C41.0952 18.0145 41.1222 18.0415 41.1491 18.0551C41.203 17.9874 41.2704 17.9333 41.3243 17.8521C42.4694 16.0386 44.113 14.9694 46.2281 14.7394C47.7774 14.5634 49.3132 14.6582 50.6874 15.5243C52.0077 16.3498 52.6274 17.6085 52.8564 19.1107C53.0585 20.464 52.8834 21.8038 52.6813 23.1301C52.4927 24.4293 52.3175 25.7285 52.1289 27.0142C51.9134 28.5028 51.7113 29.9915 51.4957 31.4802C51.4149 32.035 51.3206 32.5899 51.2667 33.1583C51.2398 33.3613 51.1589 33.4019 50.9838 33.4019C49.6635 33.4019 48.3433 33.4019 47.023 33.4019C46.8209 33.4019 46.7401 33.3613 46.7805 33.1177C47.0769 31.0606 47.3598 28.99 47.6427 26.933C47.8044 25.8097 47.9795 24.6864 48.1277 23.5496C48.2355 22.6564 48.2759 21.7767 48.1008 20.8835C47.737 19.1242 46.4302 18.5829 44.9213 18.7317C42.0383 19.0159 40.8393 21.3166 40.5429 23.4684C40.3408 24.9435 40.1253 26.4187 39.9097 27.9074C39.7076 29.369 39.5055 30.8441 39.29 32.3057C39.2765 32.414 39.263 32.5222 39.2361 32.6305C39.1463 33.1448 38.8364 33.4019 38.3065 33.4019H34.6421C34.7768 32.414 34.8981 31.4937 35.0328 30.5599C35.2214 29.2336 35.41 27.9209 35.5851 26.5946C35.7872 25.1059 36.0028 23.6173 36.2049 22.1286C36.4204 20.5993 36.636 19.0701 36.838 17.5408C36.9324 16.8235 37.0267 16.1062 37.1479 15.4025C37.1614 15.3078 37.3096 15.1589 37.3904 15.1589C38.7107 15.1454 40.0309 15.1589 41.432 15.1589" fill="#344054"/>
<path d="M56.1978 15.5243C57.8144 10.5846 60.8591 6.99827 65.278 4.56226C68.0532 3.03299 71.044 2.11272 74.1561 1.57138C76.1365 1.21951 78.1169 0.989444 80.1243 0.975911C81.5793 0.962377 83.0343 0.948844 84.4892 1.00298C85.6074 1.05711 86.7121 1.23305 87.8303 1.34131C88.0594 1.36838 88.1267 1.46311 88.0998 1.67965C87.8034 3.75026 87.507 5.82086 87.2241 7.89147C87.1837 8.16214 87.0894 8.24334 86.793 8.17567C84.9069 7.82381 83.0208 7.52607 81.0943 7.48547C79.3294 7.45841 77.5646 7.39074 75.8132 7.51254C71.5425 7.79674 67.4066 8.71701 63.4862 10.4493C60.913 11.5861 58.5419 13.0206 56.5884 15.0912C56.4807 15.1995 56.3729 15.3213 56.2112 15.5108" fill="#344054"/>
<path d="M32.689 33.4019C31.0454 37.6785 28.1623 40.737 24.2958 42.9159C21.5206 44.4858 18.5297 45.4467 15.4311 46.0692C13.5046 46.4617 11.5646 46.7323 9.59771 46.8135C8.14272 46.8812 6.68773 46.9759 5.24621 46.9353C3.64303 46.8812 2.03984 46.6782 0.43666 46.5429C0.113329 46.5158 0.0998566 46.3669 0.140273 46.0963C0.382771 44.4723 0.611798 42.8483 0.840824 41.2242C0.894713 40.8318 0.948601 40.4258 1.00249 40.0198C1.04291 39.7626 1.13721 39.7085 1.42013 39.7491C2.80776 39.9521 4.19539 40.1957 5.58302 40.2769C7.53648 40.4122 9.48994 40.5205 11.4434 40.4799C16.1721 40.3852 20.8335 39.7762 25.2928 38.071C28.0007 37.0289 30.4795 35.6079 32.5408 33.4967C32.5677 33.4696 32.5947 33.4561 32.689 33.3749" fill="#344054"/>
<path d="M12.4534 9.88092C12.3053 10.9636 12.1436 12.0463 11.9954 13.1154C11.9146 13.6838 11.8337 14.2522 11.7394 14.8206C11.699 15.1048 11.8203 15.1589 12.0628 15.1454C13.3022 15.1454 14.5416 15.1454 15.7676 15.1454H16.2122C16.1448 15.6461 16.0909 16.0927 16.037 16.5258C15.9427 17.189 15.8484 17.8521 15.7676 18.5288C15.7406 18.8265 15.6329 18.9483 15.3095 18.9483C14.0701 18.9348 12.8307 18.9483 11.6047 18.9483C11.3083 18.9483 11.1601 18.9889 11.1197 19.3543C10.8098 21.7497 10.4461 24.1586 10.1362 26.5541C10.0554 27.136 10.0015 27.7179 10.0285 28.2999C10.0958 29.5855 10.9311 29.978 12.0089 30.0592C12.7633 30.1133 13.4908 29.9509 14.2183 29.5314C14.1509 30.0186 14.1105 30.4517 14.0566 30.8712C13.9623 31.5343 13.868 32.1975 13.7872 32.8742C13.7602 33.1584 13.6525 33.3208 13.3561 33.429C11.9684 33.9298 10.5539 33.9298 9.12583 33.7809C8.61389 33.7268 8.08847 33.6185 7.59 33.4561C6.22932 32.996 5.56918 31.9674 5.38057 30.5735C5.19196 29.166 5.44793 27.7856 5.63654 26.4052C5.81168 25.0925 6.00029 23.7932 6.1889 22.4805C6.32362 21.5061 6.45834 20.5452 6.59306 19.5708C6.62001 19.3814 6.63348 19.1919 6.64695 18.9618H3.91211C3.966 18.4746 4.01989 18.0416 4.07378 17.595C4.16808 16.9318 4.27586 16.2687 4.34322 15.592C4.38363 15.2943 4.451 15.1319 4.80127 15.1454C5.44793 15.1725 6.0946 15.1183 6.74126 15.1589C7.13195 15.186 7.22626 14.9965 7.26667 14.6853C7.42834 13.6026 7.60347 12.5335 7.79208 11.4643C7.80556 11.3561 7.89986 11.2072 7.99417 11.1801C9.42221 10.7335 10.8637 10.314 12.3053 9.88092C12.3322 9.88092 12.3726 9.88092 12.4265 9.88092" fill="#344054"/>
<path d="M73.8999 18.9483C73.9673 18.434 74.0077 17.9603 74.075 17.4867C74.1559 16.8235 74.2771 16.1604 74.3445 15.4837C74.3714 15.2401 74.4657 15.1454 74.7082 15.1454C75.4088 15.1454 76.0959 15.1454 76.7964 15.1454C77.0524 15.1454 77.1871 15.1048 77.2275 14.8071C77.3892 13.6838 77.5913 12.5605 77.7933 11.4372C77.8068 11.329 77.9415 11.1801 78.0493 11.153C79.4639 10.72 80.8785 10.3004 82.2796 9.86737C82.3065 9.86737 82.3469 9.86737 82.4143 9.86737C82.2661 10.9365 82.1179 11.9786 81.9697 13.0342C81.8889 13.6026 81.808 14.171 81.7137 14.7394C81.6599 15.0371 81.7542 15.1589 82.0775 15.1454C83.3035 15.1319 84.5294 15.1454 85.7554 15.1454H86.1865C86.1057 15.7409 86.0383 16.2957 85.9709 16.8506C85.9036 17.4055 85.8227 17.9603 85.7554 18.5287C85.715 18.8265 85.6072 18.9618 85.2704 18.9483C84.0444 18.9212 82.8185 18.9483 81.606 18.9347C81.3096 18.9347 81.1479 18.9753 81.1075 19.3407C80.9458 20.6806 80.7437 22.0068 80.5551 23.3331C80.3665 24.7 80.1644 26.0668 80.0163 27.4472C79.9624 27.8803 80.0028 28.354 80.1106 28.7871C80.3126 29.5991 80.9862 30.0186 81.9967 30.0592C82.7646 30.0863 83.4921 29.9509 84.2196 29.5314C84.1118 30.3569 84.004 31.1148 83.9097 31.8727C83.8558 32.2651 83.8154 32.6576 83.7211 33.0365C83.6807 33.1854 83.5325 33.3478 83.3978 33.4019C82.293 33.8485 81.121 33.9027 79.9354 33.8621C78.9924 33.835 78.0628 33.7132 77.2006 33.3072C76.0824 32.7794 75.557 31.8321 75.3818 30.6411C75.1932 29.3555 75.3818 28.0969 75.557 26.8382C75.7321 25.512 75.9342 24.1992 76.1228 22.873C76.2845 21.7362 76.4327 20.5994 76.6078 19.4625C76.6752 18.9889 76.6617 18.9483 76.1902 18.9483H73.9134" fill="#344054"/>
</g>
</g>
</svg>
