<svg xmlns="http://www.w3.org/2000/svg" width="165" height="65" viewBox="0 0 165 65" fill="none">
  <g clip-path="url(#clip0_5145_763)">
    <path fill-rule="evenodd" clip-rule="evenodd" d="M34.7776 64.5192C17.9601 64.5192 9.21957 60.8166 3.99135 52.0857C1.04447 47.0573 0 38.0479 0 32.2586C0 26.4694 1.04447 17.4639 3.99135 12.4336C9.21957 3.70261 17.9581 0 34.7776 0C51.597 0 60.3375 3.70261 65.5618 12.4336C68.5087 17.4639 69.5512 26.4713 69.5512 32.2586C69.5512 38.0459 68.5087 47.0554 65.5618 52.0857C60.3355 60.8166 51.595 64.5192 34.7776 64.5192ZM43.2295 50.4932C41.329 50.4932 38.5706 49.6382 37.2454 46.6004L28.8838 26.385C27.0776 21.8293 30.5958 17.558 34.6814 17.558C36.5818 17.558 39.3363 18.415 40.6654 21.4508L49.027 41.6642C50.8333 46.2199 47.3151 50.4932 43.2314 50.4932H43.2295ZM26.412 50.4932C24.5135 50.4932 21.7571 49.6382 20.426 46.6004L12.0644 26.385C10.2601 21.8293 13.7744 17.558 17.86 17.558C19.7624 17.558 22.5169 18.415 23.848 21.4508L32.2096 41.6642C34.0138 46.2199 30.5015 50.4932 26.414 50.4932H26.412ZM53.7271 35.2199C51.8286 35.2199 49.0702 34.3649 47.7431 31.3271L45.7012 26.385C43.895 21.8293 47.4093 17.558 51.4929 17.558C53.3934 17.558 56.1498 18.415 57.479 21.4508L59.5247 26.3909C61.3329 30.9486 57.8127 35.2199 53.7271 35.2199Z" fill="#0032A0"/>
    <path d="M82.1988 20.7409L84.8531 10.4567L87.5075 20.7409H90.8883L95.1564 5.27344H91.7227L89.2882 14.9614C89.247 15.1693 89.2077 15.3654 89.1429 15.5576C89.1409 15.5674 89.137 15.5792 89.135 15.589C89.1292 15.5655 89.1233 15.5439 89.1174 15.5203C89.0565 15.3399 89.0173 15.1379 88.9701 14.9104L86.4768 5.27344H83.2236L80.7263 14.9242C80.6831 15.1379 80.6439 15.3399 80.5791 15.536C80.5751 15.5537 80.5712 15.5694 80.5653 15.589C80.5614 15.5733 80.5575 15.5576 80.5535 15.5419C80.4946 15.3654 80.4554 15.1693 80.4063 14.934L77.9777 5.27344H74.5439L78.8121 20.7409H82.1929H82.1988Z" fill="#0032A0"/>
    <path d="M96.7622 20.7409L98.268 16.8068H103.787L105.293 20.7409H108.785L102.579 5.40483L102.526 5.27344H99.5304L93.2695 20.7409H96.7622ZM100.667 10.5214L101.028 9.48399L101.217 10.0488L102.658 13.8495H99.3989L100.667 10.5214Z" fill="#0032A0"/>
    <path d="M121.985 9.74089C121.985 6.9855 119.85 5.27344 116.415 5.27344H109.769V20.7409H113.032V14.6378H115.107L118.592 20.7409H122.328L118.633 14.277C120.856 13.3964 121.981 11.8707 121.981 9.73893L121.985 9.74089ZM118.722 9.95466C118.722 11.1274 117.946 11.7197 116.417 11.7197H113.034V8.18768H116.417C117.946 8.18768 118.722 8.7819 118.722 9.9527V9.95466Z" fill="#0032A0"/>
    <path d="M127.258 10.5861L127.293 10.6509C127.362 10.7764 127.435 10.9078 127.515 11.0176L133.798 20.6467L133.861 20.7428H137.071V5.27344H133.894V15.3635L133.859 15.3007C133.79 15.1752 133.717 15.0458 133.637 14.934L127.291 5.27344H124.083V20.7409H127.26V10.5861H127.258Z" fill="#0032A0"/>
    <path d="M150.452 17.7835H142.837V14.2299H149.785V11.2706H142.837V8.23278H150.387V5.27344H139.572V20.7409H150.452V17.7835Z" fill="#0032A0"/>
    <path d="M161.305 14.2789C163.528 13.3984 164.653 11.8726 164.653 9.74089C164.653 6.9855 162.518 5.27344 159.083 5.27344H152.437V20.7409H155.7V14.6378H157.775L161.26 20.7409H164.996L161.301 14.277L161.305 14.2789ZM161.39 9.95662C161.39 11.1294 160.614 11.7216 159.085 11.7216H155.704V8.18964H159.085C160.614 8.18964 161.39 8.78386 161.39 9.95466V9.95662Z" fill="#0032A0"/>
    <path d="M93.3562 39.8444V24.375H90.0108L85.3558 35.9692L80.6989 24.375H77.3555V39.8444H80.5321V31.7998L80.858 32.8157L83.8598 39.8444H86.8499L89.8596 32.7981L90.1777 31.7998V39.8444H93.3562Z" fill="#0032A0"/>
    <path d="M95.6865 24.375V33.9355C95.6865 37.7068 98.1936 40.1445 102.073 40.1445C105.953 40.1445 108.46 37.7068 108.46 33.9355V24.375H105.197V33.657C105.197 35.8437 104.058 37.0988 102.073 37.0988C100.088 37.0988 98.9495 35.8437 98.9495 33.657V24.375H95.6865Z" fill="#0032A0"/>
    <path d="M116.468 37.2282C114.438 37.2282 113.293 36.1418 112.867 33.812L112.816 33.5335L109.922 35.0043L109.956 35.1632C110.623 38.3304 113.005 40.1464 116.49 40.1464C120.316 40.1464 122.317 37.7146 122.317 35.3142C122.317 32.7118 120.746 31.2233 117.22 30.4859C114.725 29.974 113.753 29.3759 113.753 28.3502C113.753 27.3245 114.995 26.9931 116.058 26.9931C117.715 26.9931 118.842 27.8423 119.407 29.5151L119.489 29.7603L122.105 28.2522L122.044 28.0855C121.076 25.4262 119.083 24.0769 116.122 24.0769C112.83 24.0769 110.617 25.8203 110.617 28.4149C110.617 30.8291 112.398 32.551 115.498 33.1354C118.088 33.6629 119.052 34.2826 119.052 35.422C119.052 36.5615 118.037 37.2302 116.466 37.2302L116.468 37.2282Z" fill="#0032A0"/>
    <path d="M127.37 24.375H124.107V39.8424H127.37V24.375Z" fill="#0032A0"/>
    <path d="M143.726 36.0104L143.84 35.8398L141.262 33.9904L141.148 34.2022C140.114 36.1241 138.641 37.0988 136.772 37.0988C134.09 37.0988 132.143 35.0004 132.143 32.1097C132.143 29.219 134.09 27.1206 136.772 27.1206C138.698 27.1206 140.031 28.0247 140.971 29.9662L141.081 30.1937L143.728 28.2914L143.657 28.1345C142.517 25.5929 139.974 24.0769 136.858 24.0769C132.209 24.0769 128.836 27.4559 128.836 32.1117C128.836 36.7674 132.092 40.1464 136.75 40.1464C140.276 40.1464 141.979 38.6305 143.726 36.0104Z" fill="#0032A0"/>
    <path d="M82.7482 53.2271H87.57C87.3481 54.2822 86.5511 56.2001 83.6925 56.2001C81.0676 56.2001 79.2359 54.1488 79.2359 51.211C79.2359 48.2732 81.2011 46.0925 83.9085 46.0925C85.8502 46.0925 87.3403 46.9966 88.2159 48.7067L88.3278 48.9263L90.8035 47.1279L90.7211 46.9671C89.5097 44.5942 86.979 43.1763 83.9477 43.1763C79.3753 43.1763 75.9258 46.6298 75.9258 51.211C75.9258 55.7922 79.2261 59.2458 83.6042 59.2458C85.5203 59.2458 87.0694 58.5241 88.1079 57.1532L88.6321 58.9457H90.8742V50.4854H82.7482V53.229V53.2271Z" fill="#0032A0"/>
    <path d="M105.226 47.9438C105.226 45.1884 103.092 43.4763 99.656 43.4763H93.0103V58.9438H96.2732V52.8407H98.3484L101.833 58.9438H105.569L101.874 52.4799C104.097 51.5993 105.222 50.0736 105.222 47.9418L105.226 47.9438ZM101.963 48.1575C101.963 49.3303 101.187 49.9245 99.6579 49.9245H96.2752V46.3925H99.6579C101.187 46.3925 101.963 46.9867 101.963 48.1575Z" fill="#0032A0"/>
    <path d="M114.241 43.1763C109.704 43.1763 106.284 46.6298 106.284 51.211C106.284 55.7922 109.706 59.2458 114.241 59.2458C118.777 59.2458 122.199 55.7922 122.199 51.211C122.199 46.6298 118.777 43.1763 114.241 43.1763ZM118.892 51.211C118.892 54.1959 117.023 56.2001 114.241 56.2001C111.459 56.2001 109.59 54.1939 109.59 51.211C109.59 48.2281 111.459 46.2219 114.241 46.2219C117.023 46.2219 118.892 48.2281 118.892 51.211Z" fill="#0032A0"/>
    <path d="M133.417 52.7583C133.417 54.945 132.278 56.2001 130.293 56.2001C128.308 56.2001 127.17 54.945 127.17 52.7583V43.4763H123.907V53.0368C123.907 56.8081 126.414 59.2438 130.293 59.2438C134.173 59.2438 136.68 56.8061 136.68 53.0368V43.4763H133.417V52.7583Z" fill="#0032A0"/>
    <path d="M146.064 43.4763H139.01V58.9438H142.273V53.6997H146.064C149.673 53.6997 151.913 51.7405 151.913 48.589C151.913 45.4374 149.671 43.4763 146.064 43.4763ZM148.65 48.589C148.65 49.9971 147.725 50.7423 145.978 50.7423H142.273V46.4357H145.978C147.725 46.4357 148.65 47.1809 148.65 48.589Z" fill="#0032A0"/>
  </g>
  <defs>
    <clipPath id="clip0_5145_763">
      <rect width="165" height="64.5192" fill="white"/>
    </clipPath>
  </defs>
</svg>